<svg width="299" height="299" viewBox="0 0 299 299" fill="none" xmlns="http://www.w3.org/2000/svg">
<g clip-path="url(#clip0_337_6005)">
<path d="M264.959 9.34961H33.787C15.153 9.34961 0 24.4976 0 43.1536V255.615C0 274.249 15.153 289.381 33.787 289.381H264.958C283.592 289.381 298.729 274.249 298.729 255.615V43.1536C298.73 24.4976 283.593 9.34961 264.959 9.34961ZM193.174 59.6226C211.194 59.6226 225.808 74.2376 225.808 92.2566C225.808 110.276 211.193 124.891 193.174 124.891C175.149 124.891 160.54 110.276 160.54 92.2566C160.54 74.2376 175.149 59.6226 193.174 59.6226ZM254.363 258.149H149.362H49.039C40.026 258.149 36.012 251.628 40.075 243.583L96.081 132.653C100.139 124.609 107.873 123.891 113.35 131.048L169.666 204.644C175.143 211.802 184.716 212.411 191.052 205.998L204.829 192.047C211.16 185.634 220.488 186.428 225.655 193.809L261.33 244.768C266.487 252.16 263.376 258.149 254.363 258.149Z" fill="#B6B6B6"/>
</g>
<defs>
<clipPath id="clip0_337_6005">
<rect width="298.73" height="298.73" fill="white"/>
</clipPath>
</defs>
</svg>
