<svg width="26" height="25" viewBox="0 0 26 25" fill="none" xmlns="http://www.w3.org/2000/svg">
<path d="M15.94 5.69C16.3181 5.25428 16.6063 4.74817 16.7882 4.20074C16.9701 3.6533 17.0421 3.07533 17 2.5C15.8394 2.59369 14.762 3.13956 14 4.02C13.6351 4.44198 13.3586 4.93288 13.1868 5.46364C13.015 5.99441 12.9515 6.55424 13 7.11C13.5661 7.11472 14.1258 6.9891 14.6356 6.74286C15.1454 6.49662 15.5917 6.13637 15.94 5.69ZM18.46 13.13C18.4667 12.3637 18.6685 11.6118 19.0465 10.9452C19.4244 10.2786 19.9659 9.71926 20.62 9.32C20.2072 8.72524 19.6615 8.23483 19.0262 7.88767C18.3909 7.54052 17.6835 7.34615 16.96 7.32C15.4 7.16 13.96 8.23 13.13 8.23C12.3 8.23 11.13 7.34 9.82997 7.36C8.9801 7.388 8.15199 7.63578 7.42642 8.07919C6.70085 8.52259 6.10258 9.14648 5.68997 9.89C3.92997 12.95 5.23997 17.5 6.99997 19.97C7.79997 21.18 8.79997 22.55 10.12 22.5C11.44 22.45 11.87 21.68 13.4 21.68C14.93 21.68 15.4 22.5 16.7 22.47C18 22.44 18.92 21.23 19.76 20.02C20.355 19.1415 20.8199 18.1816 21.14 17.17C20.3475 16.832 19.6713 16.2693 19.195 15.5513C18.7188 14.8333 18.4632 13.9916 18.46 13.13Z" fill="#0E6C51"/>
</svg>
