<svg width="25" height="25" viewBox="0 0 25 25" fill="none" xmlns="http://www.w3.org/2000/svg">
<g clip-path="url(#clip0_1_2017)">
<mask id="mask0_1_2017" style="mask-type:luminance" maskUnits="userSpaceOnUse" x="0" y="0" width="25" height="25">
<path d="M0.5 0.5H24.5V24.5H0.5V0.5Z" fill="white"/>
</mask>
<g mask="url(#mask0_1_2017)">
<path fill-rule="evenodd" clip-rule="evenodd" d="M9.06207 18.1665C9.08289 18.1665 9.10437 18.1632 9.12574 18.1566C9.23647 18.1215 9.29792 18.0031 9.26282 17.8924L7.41393 12.0488C7.38652 11.9616 7.30547 11.9019 7.21334 11.9019H0.765057C0.648736 11.9019 0.554504 11.9962 0.554504 12.1124C0.554449 12.2287 0.648792 12.323 0.765057 12.323H7.05926L8.86148 18.0196C8.88933 18.1089 8.97277 18.1665 9.06207 18.1665Z" fill="#999999"/>
<path fill-rule="evenodd" clip-rule="evenodd" d="M19.3412 16.5069C19.4191 16.5069 19.4942 16.4636 19.5304 16.389C20.3281 14.7541 20.7185 12.5812 20.7481 12.4096C21.173 10.7001 20.735 8.34741 19.6812 6.6856C18.9355 5.50844 17.9612 4.77099 16.863 4.5528C16.8202 4.54399 16.7769 4.53635 16.7336 4.52976C16.7204 4.52755 16.7068 4.52644 16.6941 4.527C10.8808 4.527 7.74405 4.70903 2.10884 5.37191C1.99313 5.38509 1.91036 5.48978 1.92409 5.60549C1.93771 5.72115 2.04196 5.80398 2.15767 5.78969C7.7709 5.12958 10.8961 4.94865 16.6832 4.9481C16.7161 4.95358 16.7479 4.95906 16.7802 4.96565C18.021 5.21235 18.8494 6.1598 19.3259 6.91093C20.3237 8.4856 20.7399 10.7078 20.338 12.3153C20.3363 12.3202 20.3353 12.3252 20.3347 12.3301C20.3309 12.3526 19.9389 14.5923 19.1521 16.2043C19.1011 16.3085 19.1444 16.4345 19.2492 16.4855C19.2787 16.5004 19.3106 16.5069 19.3412 16.5069ZM18.0829 18.155C18.1157 18.155 18.1498 18.1474 18.1811 18.1304C18.6213 17.8974 18.952 17.3726 19.2278 16.8995C19.2858 16.7986 19.2519 16.6698 19.1515 16.6116C19.0506 16.553 18.9218 16.587 18.8637 16.6878C18.6174 17.1106 18.3264 17.5771 17.9842 17.7581C17.8811 17.8129 17.8423 17.9401 17.8966 18.0432C17.9343 18.1145 18.0073 18.155 18.0829 18.155ZM16.9244 18.1567C17.0165 18.1567 17.1015 18.0953 17.1273 18.0015C17.1898 17.7735 17.7447 15.7026 17.9678 13.1865C18.2611 9.88699 17.8779 7.32655 16.829 5.57643C16.8049 5.5364 16.7687 5.50573 16.7259 5.48868C16.3915 5.35602 14.6601 5.21401 12.9286 5.22935C11.3002 5.24413 9.1142 5.39273 7.94419 6.0189C6.63648 6.71793 6.82517 9.15778 6.96275 10.9397C6.99126 11.3043 7.0165 11.63 7.02581 11.9019H1.09661C0.979963 11.9019 0.88623 11.9963 0.88623 12.1125C0.886175 12.2287 0.979962 12.323 1.09673 12.323H7.24007C7.35644 12.323 7.45073 12.2287 7.45073 12.1125C7.45067 11.789 7.41945 11.3805 7.38274 10.9073C7.26094 9.33544 7.0779 6.95971 8.14267 6.39006C8.99678 5.93336 10.6976 5.67071 12.9324 5.65045C14.6654 5.63456 16.1355 5.76998 16.5083 5.86155C18.8675 9.92153 16.8104 17.5651 16.721 17.8902C16.6903 18.0021 16.7561 18.1183 16.8685 18.149C16.887 18.1539 16.9058 18.1567 16.9244 18.1567Z" fill="#999999"/>
<path fill-rule="evenodd" clip-rule="evenodd" d="M11.2948 18.1677C11.4109 18.1677 11.5054 18.0734 11.5054 17.9571L11.5053 5.50352C11.5053 5.38725 11.411 5.29297 11.2948 5.29297C11.1786 5.29297 11.0843 5.38725 11.0843 5.50352L11.0842 17.9571C11.0842 18.0734 11.1786 18.1677 11.2948 18.1677Z" fill="#999999"/>
<path fill-rule="evenodd" clip-rule="evenodd" d="M3.8551 20.4733C4.97805 20.4733 5.89151 19.5599 5.89151 18.437C5.8914 18.2511 5.86792 18.0696 5.82131 17.8975C5.79052 17.7851 5.67492 17.7187 5.56253 17.7495C5.45064 17.7796 5.38437 17.8953 5.41449 18.0077C5.45175 18.1442 5.47041 18.2884 5.47041 18.437C5.47041 19.3274 4.74613 20.0522 3.85521 20.0522C2.96478 20.0522 2.23995 19.3274 2.23995 18.437C2.2399 18.2939 2.25861 18.1524 2.29532 18.0159C2.32599 17.9035 2.25916 17.7878 2.14677 17.7576C2.03488 17.7275 1.91923 17.7939 1.88905 17.9062C1.84244 18.0784 1.81891 18.2571 1.81891 18.437C1.81885 19.5599 2.73231 20.4733 3.8551 20.4733Z" fill="#999999"/>
<path fill-rule="evenodd" clip-rule="evenodd" d="M6.37223 17.7599H1.31547C1.42293 16.4593 2.51621 15.4335 3.84418 15.4335C5.17204 15.4335 6.26482 16.4593 6.37223 17.7599ZM1.09662 18.181H6.59158C6.70779 18.181 6.80213 18.0872 6.80213 17.9704C6.80202 16.3393 5.47527 15.0125 3.84418 15.0125C2.21293 15.0125 0.88623 16.3393 0.88623 17.9704C0.886175 18.0872 0.979964 18.181 1.09662 18.181Z" fill="#999999"/>
<path fill-rule="evenodd" clip-rule="evenodd" d="M0.992615 17.9863H2.3523V17.9556H0.992615V17.9863Z" fill="#999999"/>
<path fill-rule="evenodd" clip-rule="evenodd" d="M24.0701 17.7313H19.0133C19.0522 17.2576 19.2212 16.8102 19.5074 16.4259C19.992 15.7773 20.7333 15.4049 21.542 15.4049C22.8699 15.4049 23.9627 16.4308 24.0701 17.7313ZM18.7946 18.1523H24.2894C24.4057 18.1523 24.5 18.058 24.5 17.9418C24.5 16.3107 23.1732 14.9839 21.542 14.9839C20.5989 14.9839 19.735 15.4176 19.1702 16.1742C18.7863 16.6879 18.5841 17.2993 18.5841 17.9418C18.584 18.058 18.6784 18.1524 18.7946 18.1523Z" fill="#999999"/>
<path fill-rule="evenodd" clip-rule="evenodd" d="M21.8009 20.4733C22.9238 20.4733 23.8372 19.5599 23.8372 18.437C23.8371 18.2511 23.8131 18.0696 23.7665 17.8975C23.7357 17.7851 23.6201 17.7187 23.5082 17.7495C23.3957 17.7796 23.3295 17.8953 23.3602 18.0077C23.3968 18.1442 23.4161 18.2884 23.4161 18.437C23.4161 19.3274 22.6913 20.0522 21.8009 20.0522C20.9098 20.0522 20.1857 19.3274 20.1857 18.437C20.1856 18.2939 20.2043 18.1524 20.241 18.0159C20.2711 17.9035 20.2049 17.7878 20.0924 17.7576C19.98 17.7275 19.8644 17.7944 19.8342 17.9062C19.7881 18.0784 19.7646 18.2571 19.7646 18.437C19.7646 19.5599 20.678 20.4733 21.8009 20.4733Z" fill="#999999"/>
<path fill-rule="evenodd" clip-rule="evenodd" d="M20.0748 14.4832H21.8167C22.2154 14.4832 22.5394 14.1591 22.5394 13.7605V12.9414C22.5394 12.5428 22.2154 12.2188 21.8168 12.2188H20.553C20.4367 12.2188 20.3425 12.313 20.3425 12.4293C20.3424 12.5455 20.4368 12.6399 20.553 12.6399H21.8167C21.9835 12.6399 22.1184 12.7747 22.1184 12.9414L22.1183 13.7605C22.1183 13.9266 21.9835 14.0621 21.8168 14.0621H20.0748C19.9586 14.0621 19.8644 14.1564 19.8644 14.2726C19.8643 14.3889 19.9587 14.4832 20.0748 14.4832Z" fill="#999999"/>
<path fill-rule="evenodd" clip-rule="evenodd" d="M22.9626 13.5615H23.7088C23.825 13.5615 23.9194 13.4671 23.9194 13.3509C23.9194 13.2347 23.8251 13.1404 23.7089 13.1404H22.9626C22.8464 13.1404 22.7521 13.2347 22.7521 13.3509C22.7521 13.4671 22.8465 13.5615 22.9626 13.5615Z" fill="#999999"/>
<path fill-rule="evenodd" clip-rule="evenodd" d="M6.59172 18.1808L18.7952 18.1522C18.9114 18.1517 19.0052 18.0574 19.0052 17.9412C19.0046 17.825 18.9104 17.7312 18.7947 17.7312L6.59111 17.7597C6.4749 17.7603 6.38061 17.8546 6.38117 17.9708C6.38111 18.087 6.47545 18.1808 6.59172 18.1808Z" fill="#999999"/>
<path fill-rule="evenodd" clip-rule="evenodd" d="M0.717442 14.6477H1.474C1.59021 14.6477 1.6846 14.5534 1.6846 14.4371V12.7435C1.6846 12.6272 1.59032 12.533 1.47405 12.533H0.728902C0.612692 12.533 0.518407 12.6272 0.518407 12.7435C0.518407 12.8597 0.612749 12.954 0.728959 12.954H1.26356V14.2266H0.717442C0.601233 14.2266 0.507446 14.3209 0.507446 14.4371C0.507446 14.5534 0.601233 14.6477 0.717442 14.6477Z" fill="#999999"/>
<path fill-rule="evenodd" clip-rule="evenodd" d="M23.6962 14.3084C23.7889 14.3084 23.8745 14.2459 23.8997 14.1522C23.9293 14.0397 23.8629 13.9241 23.7506 13.8945L23.03 13.7009C22.9177 13.6713 22.8021 13.7377 22.7719 13.85C22.7423 13.9624 22.8086 14.0776 22.921 14.1077L23.6414 14.3007C23.6601 14.3056 23.6782 14.3084 23.6962 14.3084Z" fill="#999999"/>
<path fill-rule="evenodd" clip-rule="evenodd" d="M22.9753 13.0078C22.9933 13.0078 23.0115 13.0055 23.0301 13.0006L23.7505 12.8076C23.8629 12.7774 23.9293 12.6618 23.8997 12.5499C23.8694 12.4375 23.7538 12.3706 23.6414 12.4008L22.921 12.5938C22.8085 12.624 22.7422 12.7396 22.7719 12.852C22.797 12.9458 22.8826 13.0078 22.9753 13.0078Z" fill="#999999"/>
<path fill-rule="evenodd" clip-rule="evenodd" d="M13.8086 13.7064H11.5053V12.9575H13.8086V13.7064ZM11.2948 14.1275H14.0192C14.1354 14.1275 14.2297 14.0332 14.2297 13.9169L14.2296 12.7469C14.2296 12.6307 14.1354 12.5364 14.0192 12.5364H11.2948C11.1786 12.5364 11.0843 12.6307 11.0843 12.7469L11.0842 13.9169C11.0842 14.0332 11.1786 14.1275 11.2948 14.1275Z" fill="#999999"/>
<path fill-rule="evenodd" clip-rule="evenodd" d="M11.3056 15.911C11.3588 15.911 11.412 15.8912 11.4532 15.8506L13.2718 14.0671C13.3546 13.986 13.3562 13.8528 13.2746 13.7694C13.1933 13.6866 13.0601 13.6855 12.9769 13.7667L11.1581 15.5502C11.0753 15.6313 11.0743 15.7652 11.1554 15.8479C11.1964 15.8901 11.2514 15.911 11.3056 15.911Z" fill="#999999"/>
<path fill-rule="evenodd" clip-rule="evenodd" d="M7.76272 14.0595H9.17013C9.28634 14.0595 9.38074 13.9652 9.38074 13.8489V12.6202C9.38074 12.504 9.28645 12.4097 9.17019 12.4097H7.374C7.25779 12.4097 7.16351 12.504 7.16351 12.6202C7.16345 12.7365 7.25779 12.8308 7.37406 12.8308H8.95958V13.6384H7.76272C7.64651 13.6384 7.55222 13.7327 7.55222 13.8489C7.55216 13.9652 7.64651 14.0595 7.76272 14.0595Z" fill="#999999"/>
<path fill-rule="evenodd" clip-rule="evenodd" d="M1.09623 18.1808C1.1094 18.1808 1.12258 18.1797 1.1357 18.1775C1.24964 18.1556 1.32488 18.0454 1.30351 17.9314C0.645562 14.4547 0.958591 11.3054 1.33695 9.27564C1.74753 7.07263 2.32221 5.67562 2.32769 5.6614C2.37198 5.55443 2.32166 5.43113 2.2142 5.38618C2.10668 5.34172 1.98333 5.39271 1.93893 5.50017C1.91484 5.55775 1.34459 6.94325 0.925152 9.18628C0.538598 11.2544 0.218426 14.464 0.889553 18.0097C0.908709 18.1106 0.997014 18.1808 1.09623 18.1808Z" fill="#999999"/>
<path fill-rule="evenodd" clip-rule="evenodd" d="M11.9854 12.9573C12.1016 12.9573 12.196 12.863 12.196 12.7467V10.3924C12.196 10.2762 12.1018 10.1819 11.9855 10.1819C11.8692 10.1819 11.775 10.2762 11.775 10.3924L11.7749 12.7467C11.7749 12.863 11.8693 12.9573 11.9854 12.9573Z" fill="#999999"/>
<path fill-rule="evenodd" clip-rule="evenodd" d="M17.7984 12.8938C17.8521 12.8938 17.9059 12.873 17.947 12.8318C18.0292 12.7496 18.0292 12.6164 17.947 12.5341L16.9074 11.494C16.868 11.4545 16.8143 11.4326 16.7584 11.4326H15.4473C15.3306 11.4326 15.2369 11.527 15.2369 11.6432C15.2369 11.7594 15.3306 11.8537 15.4474 11.8537H16.6711L17.6492 12.8318C17.6904 12.873 17.7447 12.8938 17.7984 12.8938Z" fill="#999999"/>
</g>
</g>
<defs>
<clipPath id="clip0_1_2017">
<rect width="24" height="24" fill="white" transform="translate(0.5 0.5)"/>
</clipPath>
</defs>
</svg>
