<svg width="25" height="25" viewBox="0 0 25 25" fill="none" xmlns="http://www.w3.org/2000/svg">
<g clip-path="url(#clip0_1_2042)">
<path d="M9.66492 9.54222C9.66492 9.54222 14.5769 10.7612 16.4779 7.92822" stroke="#999999" stroke-width="0.5" stroke-miterlimit="10" stroke-linecap="round" stroke-linejoin="round"/>
<path d="M8.92595 14.379C8.93595 14.509 8.94595 14.639 8.94595 14.779C8.94595 17.019 7.13595 18.829 4.89595 18.829C2.65595 18.829 0.845947 17.019 0.845947 14.779C0.845947 12.539 2.65595 10.729 4.89595 10.729C6.50595 10.729 7.89595 11.669 8.54595 13.029" stroke="#999999" stroke-width="0.5" stroke-miterlimit="10" stroke-linecap="round" stroke-linejoin="round"/>
<path d="M7.43595 14.649C7.44595 14.689 7.44595 14.739 7.44595 14.779C7.44595 16.179 6.30595 17.319 4.89595 17.319C3.48595 17.319 2.34595 16.179 2.34595 14.779C2.34595 13.369 3.48595 12.229 4.89595 12.229C5.81595 12.229 6.62595 12.719 7.06595 13.449" stroke="#999999" stroke-width="0.5" stroke-miterlimit="10" stroke-linecap="round" stroke-linejoin="round"/>
<path d="M20.2179 13.0872C20.3209 13.0762 20.4249 13.0642 20.5279 13.0642C21.8019 13.0642 22.8229 14.0852 22.8229 15.3592C22.8229 16.6212 21.8019 17.6542 20.5279 17.6542C19.2659 17.6542 18.2329 16.6212 18.2329 15.3592C18.2329 14.6252 18.5769 13.9712 19.1169 13.5462" stroke="#999999" stroke-width="0.5" stroke-miterlimit="10" stroke-linecap="round" stroke-linejoin="round"/>
<path d="M19.6559 11.8362C19.9429 11.7672 20.2299 11.7332 20.5279 11.7332C22.5249 11.7332 24.1539 13.3622 24.1539 15.3592C24.1539 17.3562 22.5249 18.9852 20.5279 18.9852C18.5309 18.9852 16.9139 17.3562 16.9139 15.3592C16.9139 14.1542 17.4989 13.0872 18.4059 12.4332" stroke="#999999" stroke-width="0.5" stroke-miterlimit="10" stroke-linecap="round" stroke-linejoin="round"/>
<path d="M10.5609 11.733L13.1429 11.479" stroke="#999999" stroke-width="0.5" stroke-miterlimit="10" stroke-linecap="round" stroke-linejoin="round"/>
<path d="M9.99589 14.219C9.87589 14.869 9.75589 15.589 9.66589 16.319" stroke="#999999" stroke-width="0.5" stroke-miterlimit="10" stroke-linecap="round" stroke-linejoin="round"/>
<path d="M17.8169 6.01611C19.2469 6.95611 19.2259 7.95911 19.0859 8.48911C18.9759 8.88911 18.6159 9.15911 18.2059 9.20911C16.7659 9.38911 16.4759 7.92911 16.4759 7.92911L14.7159 7.20911C11.3459 5.30911 9.66595 8.10911 9.66595 8.10911V9.53911C8.44595 9.53911 6.40595 8.67911 6.40595 8.67911L5.18595 7.06911L1.59595 6.31911L2.74595 8.06911L10.5559 11.7291C10.5559 11.7291 10.4659 12.0691 10.3359 12.6291" stroke="#999999" stroke-width="0.5" stroke-miterlimit="10" stroke-linecap="round" stroke-linejoin="round"/>
<path d="M17.8169 6.01611C18.2369 6.16611 21.4459 7.65911 21.7159 10.6891L19.2359 10.9091C19.2359 10.9091 15.2959 10.6591 13.1459 11.4791C13.1459 11.4791 16.5459 13.8491 9.66589 16.3191L15.9359 16.7091C15.9359 16.7091 15.3459 13.0491 17.7959 11.4791" stroke="#999999" stroke-width="0.5" stroke-miterlimit="10" stroke-linecap="round" stroke-linejoin="round"/>
<path d="M19.2359 10.9092C18.6659 11.0292 18.1959 11.2292 17.7959 11.4792L19.5159 14.1692L20.5259 13.7892L19.2359 10.9092Z" stroke="#999999" stroke-width="0.5" stroke-miterlimit="10" stroke-linecap="round" stroke-linejoin="round"/>
<path d="M20.5339 16.0261C20.9023 16.0261 21.2009 15.7275 21.2009 15.3591C21.2009 14.9908 20.9023 14.6921 20.5339 14.6921C20.1656 14.6921 19.8669 14.9908 19.8669 15.3591C19.8669 15.7275 20.1656 16.0261 20.5339 16.0261Z" fill="#999999"/>
<path d="M4.8959 15.6541C5.3797 15.6541 5.7719 15.2619 5.7719 14.7781C5.7719 14.2943 5.3797 13.9021 4.8959 13.9021C4.4121 13.9021 4.0199 14.2943 4.0199 14.7781C4.0199 15.2619 4.4121 15.6541 4.8959 15.6541Z" fill="#999999"/>
<path d="M20.534 15.3591L19.995 13.9871" stroke="#999999" stroke-width="0.5" stroke-miterlimit="10" stroke-linecap="round" stroke-linejoin="round"/>
<path d="M16.1449 13.8L12.5509 14.948" stroke="#999999" stroke-width="0.5" stroke-miterlimit="10" stroke-linecap="round" stroke-linejoin="round"/>
<path d="M12.029 13.9872C12.4592 13.9872 12.808 13.6384 12.808 13.2082C12.808 12.778 12.4592 12.4292 12.029 12.4292C11.5988 12.4292 11.25 12.778 11.25 13.2082C11.25 13.6384 11.5988 13.9872 12.029 13.9872Z" stroke="#999999" stroke-width="0.5" stroke-miterlimit="10" stroke-linecap="round" stroke-linejoin="round"/>
<path d="M4.97192 14.1782C4.97192 14.1782 8.96592 12.5832 12.0289 12.4282" stroke="#999999" stroke-width="0.5" stroke-miterlimit="10" stroke-linecap="round" stroke-linejoin="round"/>
<path d="M12.029 13.9871C12.029 13.9871 7.841 14.3271 5.078 15.2611" stroke="#999999" stroke-width="0.5" stroke-miterlimit="10" stroke-linecap="round" stroke-linejoin="round"/>
<path d="M16.2789 6.77417H17.5289L19.0859 7.55317" stroke="#999999" stroke-width="0.5" stroke-miterlimit="10" stroke-linecap="round" stroke-linejoin="round"/>
<path d="M20.5259 10.795C20.5259 10.795 19.6299 9.528 20.7979 8.323" stroke="#999999" stroke-width="0.5" stroke-miterlimit="10" stroke-linecap="round" stroke-linejoin="round"/>
</g>
<defs>
<clipPath id="clip0_1_2042">
<rect width="24" height="24" fill="white" transform="translate(0.5 0.5)"/>
</clipPath>
</defs>
</svg>
