<svg width="21" height="21" viewBox="0 0 21 21" fill="none" xmlns="http://www.w3.org/2000/svg">
<g clip-path="url(#clip0_1_2062)">
<path d="M15.5 2.5H19.5C19.7652 2.5 20.0196 2.60536 20.2071 2.79289C20.3946 2.98043 20.5 3.23478 20.5 3.5V19.5C20.5 19.7652 20.3946 20.0196 20.2071 20.2071C20.0196 20.3946 19.7652 20.5 19.5 20.5H1.5C1.23478 20.5 0.98043 20.3946 0.792893 20.2071C0.605357 20.0196 0.5 19.7652 0.5 19.5V3.5C0.5 3.23478 0.605357 2.98043 0.792893 2.79289C0.98043 2.60536 1.23478 2.5 1.5 2.5H5.5V0.5H7.5V2.5H13.5V0.5H15.5V2.5ZM18.5 10.5H2.5V18.5H18.5V10.5ZM13.5 4.5H7.5V6.5H5.5V4.5H2.5V8.5H18.5V4.5H15.5V6.5H13.5V4.5ZM4.5 12.5H6.5V14.5H4.5V12.5ZM9.5 12.5H11.5V14.5H9.5V12.5ZM14.5 12.5H16.5V14.5H14.5V12.5Z" fill="#808080"/>
</g>
<defs>
<clipPath id="clip0_1_2062">
<rect width="20" height="20" fill="white" transform="translate(0.5 0.5)"/>
</clipPath>
</defs>
</svg>
