<svg width="31" height="16" viewBox="0 0 31 16" fill="none" xmlns="http://www.w3.org/2000/svg">
<g clip-path="url(#clip0_1_2064)">
<path fill-rule="evenodd" clip-rule="evenodd" d="M17.354 0.500001C18.2095 0.499865 19.0474 0.748944 19.7692 1.21798C19.7934 1.23397 19.8162 1.25208 19.8373 1.27205L23.8816 5.04322C24.1008 5.18607 24.3406 5.29288 24.5922 5.35975L28.6063 6.3827C29.1476 6.52197 29.6278 6.84178 29.9708 7.29139C30.3138 7.74101 30.5001 8.29472 30.5 8.8647V10.3932C30.5 11.7983 29.3736 12.9485 27.9978 12.9485H26.501V11.9257H27.9978C28.1951 11.9267 28.3907 11.8877 28.5732 11.8111C28.7557 11.7344 28.9215 11.6216 29.0611 11.4791C29.2006 11.3366 29.3111 11.1672 29.3862 10.9808C29.4612 10.7944 29.4994 10.5948 29.4984 10.3932V8.8647C29.4984 8.15832 29.0335 7.5484 28.3644 7.37856L24.3503 6.35184C23.9861 6.25865 23.639 6.10614 23.3222 5.9002C23.2968 5.8844 23.2727 5.86628 23.2504 5.84613L19.2136 2.07496C18.657 1.71581 18.0124 1.52446 17.354 1.52296H9.43914C9.00069 1.52296 8.58492 1.71598 8.30144 2.05952C8.30269 2.05953 8.30017 2.05953 8.30144 2.05952L5.48173 5.35586C5.00548 5.91942 4.31 6.2437 3.58051 6.2437L2.00057 6.24759C1.93476 6.24654 1.86943 6.25898 1.80843 6.28422C1.74744 6.30946 1.69203 6.34696 1.64549 6.39448C1.59896 6.442 1.56225 6.49864 1.53753 6.56093C1.51282 6.62322 1.50062 6.68986 1.50164 6.75706V9.37417C1.50114 9.70887 1.56532 10.0403 1.69052 10.3497C1.81571 10.659 1.99944 10.94 2.23119 11.1767C2.46294 11.4134 2.73814 11.601 3.04103 11.7288C3.34392 11.8567 3.66854 11.9223 3.99628 11.9218H5.50063V12.9485H4.00006C2.07238 12.9485 0.5 11.3428 0.5 9.37417V6.75706C0.502966 6.35157 0.662012 5.96359 0.942781 5.67686C1.22355 5.39013 1.60351 5.22766 2.00057 5.22463H3.58051C3.79748 5.22504 4.01195 5.17733 4.20906 5.08469C4.40616 4.99204 4.58118 4.85676 4.722 4.68818C4.72199 4.68689 4.72199 4.68558 4.722 4.68429L7.53792 1.39173C7.77304 1.1118 8.06471 0.887156 8.3929 0.73324C8.72108 0.579324 9.07801 0.499709 9.43914 0.500001H17.354ZM21.5004 11.9257V12.9485H10.5013V11.9257H21.5004Z" fill="#999999"/>
<path d="M7.99815 9.37402C8.79283 9.37606 9.55445 9.69909 10.1167 10.2726C10.679 10.8461 10.9963 11.6234 10.9993 12.435C10.9993 14.1218 9.6499 15.4999 7.99815 15.4999C7.20346 15.4968 6.44224 15.1728 5.88067 14.5986C5.31909 14.0244 5.00278 13.2465 5.00079 12.435C5.00378 11.6241 5.32053 10.8473 5.882 10.2739C6.44346 9.7005 7.20412 9.37707 7.99815 9.37402ZM7.99815 10.3931C6.89067 10.3931 5.99865 11.3002 5.99865 12.4389C5.99865 13.5699 6.89067 14.4769 8.00192 14.4769C8.26447 14.4774 8.52451 14.425 8.76712 14.3225C9.00972 14.22 9.23009 14.0695 9.41556 13.8798C9.60103 13.69 9.74794 13.4646 9.84783 13.2167C9.94773 12.9688 9.99864 12.7031 9.99764 12.435C9.99764 11.3002 9.1094 10.3931 7.99815 10.3931ZM24.0017 9.37402C24.7957 9.37707 25.5564 9.7005 26.1178 10.2739C26.6793 10.8473 26.996 11.6241 26.999 12.435C26.999 14.1218 25.6496 15.4999 24.0017 15.4999C23.2063 15.4978 22.4441 15.1742 21.8818 14.5999C21.3194 14.0256 21.0025 13.2472 21.0005 12.435C21.0035 11.6234 21.3208 10.8461 21.8831 10.2726C22.4454 9.69909 23.207 9.37606 24.0017 9.37402ZM24.0017 10.3931C22.8904 10.3931 21.9984 11.3002 21.9984 12.4389C21.9984 13.5699 22.8904 14.4769 24.0017 14.4769C24.2645 14.4779 24.525 14.4258 24.768 14.3235C25.0111 14.2213 25.2319 14.0709 25.4178 13.8811C25.6036 13.6913 25.7509 13.4658 25.851 13.2176C25.9511 12.9694 26.0022 12.7034 26.0012 12.435C26.0012 11.3002 25.1091 10.3931 23.9979 10.3931H24.0017Z" fill="#999999"/>
<path fill-rule="evenodd" clip-rule="evenodd" d="M30.002 8.86088V9.88371H28.5014V8.86088H30.002ZM3.502 6.81897V7.84181H2.50037V6.81897H3.502ZM14.5011 2.22557V5.28654H13.4995V2.22168L14.5011 2.22557Z" fill="#999999"/>
<path fill-rule="evenodd" clip-rule="evenodd" d="M23.4991 4.77686V5.79592H4.99713V4.77686H23.4991Z" fill="#999999"/>
</g>
<defs>
<clipPath id="clip0_1_2064">
<rect width="30" height="15" fill="white" transform="translate(0.5 0.5)"/>
</clipPath>
</defs>
</svg>
