<svg width="25" height="25" viewBox="0 0 25 25" fill="none" xmlns="http://www.w3.org/2000/svg">
<path d="M19.5 5.5H5.5C4.70435 5.5 3.94129 5.81607 3.37868 6.37868C2.81607 6.94129 2.5 7.70435 2.5 8.5V16.5C2.5 17.2956 2.81607 18.0587 3.37868 18.6213C3.94129 19.1839 4.70435 19.5 5.5 19.5H19.5C20.2956 19.5 21.0587 19.1839 21.6213 18.6213C22.1839 18.0587 22.5 17.2956 22.5 16.5V8.5C22.5 7.70435 22.1839 6.94129 21.6213 6.37868C21.0587 5.81607 20.2956 5.5 19.5 5.5ZM11.5 15.5H7.5C7.23478 15.5 6.98043 15.3946 6.79289 15.2071C6.60536 15.0196 6.5 14.7652 6.5 14.5C6.5 14.2348 6.60536 13.9804 6.79289 13.7929C6.98043 13.6054 7.23478 13.5 7.5 13.5H11.5C11.7652 13.5 12.0196 13.6054 12.2071 13.7929C12.3946 13.9804 12.5 14.2348 12.5 14.5C12.5 14.7652 12.3946 15.0196 12.2071 15.2071C12.0196 15.3946 11.7652 15.5 11.5 15.5ZM17.5 15.5H15.5C15.2348 15.5 14.9804 15.3946 14.7929 15.2071C14.6054 15.0196 14.5 14.7652 14.5 14.5C14.5 14.2348 14.6054 13.9804 14.7929 13.7929C14.9804 13.6054 15.2348 13.5 15.5 13.5H17.5C17.7652 13.5 18.0196 13.6054 18.2071 13.7929C18.3946 13.9804 18.5 14.2348 18.5 14.5C18.5 14.7652 18.3946 15.0196 18.2071 15.2071C18.0196 15.3946 17.7652 15.5 17.5 15.5ZM20.5 9.5H4.5V8.5C4.5 8.23478 4.60536 7.98043 4.79289 7.79289C4.98043 7.60536 5.23478 7.5 5.5 7.5H19.5C19.7652 7.5 20.0196 7.60536 20.2071 7.79289C20.3946 7.98043 20.5 8.23478 20.5 8.5V9.5Z" fill="#0E6C51"/>
</svg>
