<svg width="19" height="25" viewBox="0 0 19 25" fill="none" xmlns="http://www.w3.org/2000/svg">
<g clip-path="url(#clip0_1_2071)">
<path d="M18.1248 17.842C18.1249 17.0964 17.9154 16.3657 17.5201 15.7335C17.1248 15.1013 16.5598 14.593 15.8894 14.2665C15.8476 14.0386 15.7407 13.8276 15.5817 13.6591L15.8664 11.0967L17.2264 7.92322C17.5151 7.24668 17.621 6.50614 17.5335 5.77579C17.4459 5.04544 17.168 4.35092 16.7275 3.7618C16.4273 3.36031 16.0211 3.05045 15.5545 2.867C15.0879 2.68356 14.5795 2.63379 14.0862 2.72328C12.7488 1.76513 11.145 1.24988 9.49985 1.24988C7.8547 1.24988 6.25086 1.76513 4.91353 2.72328C4.42023 2.63377 3.91174 2.68353 3.44516 2.86699C2.97857 3.05044 2.57236 3.36032 2.27212 3.76184C1.83166 4.35097 1.55374 5.04549 1.46619 5.77584C1.37864 6.50619 1.48454 7.24673 1.77328 7.92326L3.13326 11.0967L3.41794 13.6591C3.25893 13.8277 3.15207 14.0386 3.11025 14.2666C2.60904 14.5108 2.16477 14.8576 1.80626 15.2846C1.44776 15.7115 1.18303 16.2091 1.02926 16.745C0.875492 17.2809 0.836112 17.8432 0.91368 18.3953C0.991248 18.9474 1.18403 19.477 1.47951 19.9498L2.74983 21.9828V23.375C2.74983 23.4745 2.78934 23.5698 2.85966 23.6402C2.92999 23.7105 3.02537 23.75 3.12483 23.75H15.8748C15.9743 23.75 16.0697 23.7105 16.14 23.6402C16.2103 23.5698 16.2498 23.4745 16.2498 23.375V21.9828L17.5201 19.95C17.9155 19.318 18.125 18.5875 18.1248 17.842ZM13.5062 18.8558L14.0352 19.0321C14.1468 19.0696 14.2415 19.1456 14.3024 19.2465C14.3632 19.3473 14.3863 19.4665 14.3674 19.5828C14.3485 19.6991 14.2889 19.8048 14.1993 19.8813C14.1096 19.9577 13.9957 19.9998 13.878 20H12.1248C12.0254 19.9999 11.9301 19.9603 11.8598 19.89C11.7895 19.8197 11.7499 19.7244 11.7498 19.625V18.7491C11.749 18.495 11.6878 18.2448 11.5711 18.0191C11.4545 17.7934 11.2859 17.5987 11.0791 17.4511L11.64 16.8902C11.6748 16.8553 11.7024 16.814 11.7213 16.7685C11.7401 16.723 11.7498 16.6742 11.7498 16.625C11.7498 16.5758 11.7401 16.527 11.7213 16.4815C11.7024 16.436 11.6748 16.3946 11.64 16.3598L11.5302 16.25H12.0358C12.4026 16.4386 12.7101 16.725 12.9244 17.0775C13.1386 17.43 13.2513 17.8349 13.2498 18.2473V18.5C13.2498 18.5787 13.2746 18.6554 13.3206 18.7193C13.3666 18.7831 13.4316 18.8309 13.5062 18.8558ZM6.12483 9.125C6.02537 9.125 5.92999 9.08549 5.85966 9.01516C5.78934 8.94484 5.74983 8.84945 5.74983 8.75C5.74983 8.65054 5.78934 8.55516 5.85966 8.48483C5.92999 8.41451 6.02537 8.375 6.12483 8.375V9.125ZM6.12483 9.875H6.20986C6.32619 10.3852 6.55988 10.8613 6.89236 11.2654L6.40889 11.3862C6.33769 11.4037 6.27326 11.4419 6.22368 11.4959C6.1741 11.5499 6.14158 11.6173 6.13022 11.6898C5.86042 11.7575 5.6047 11.8724 5.37483 12.029V9.58761C5.58071 9.77281 5.8479 9.87519 6.12483 9.875ZM8.85966 7.51517C8.92998 7.5855 9.02537 7.62501 9.12483 7.62501C9.22429 7.62501 9.31967 7.5855 9.39 7.51517C9.46033 7.44484 9.49984 7.34946 9.49984 7.25C9.49984 7.15054 9.46033 7.05515 9.39 6.98483C9.23583 6.83176 9.12142 6.64332 9.05673 6.43593C8.99204 6.22854 8.97904 6.00847 9.01884 5.7949C9.26491 5.74868 9.51634 5.73807 9.76542 5.7634C9.7224 6.08146 9.75367 6.40515 9.85677 6.70909C9.95988 7.01302 10.132 7.28893 10.3596 7.51517C10.3945 7.54999 10.4358 7.57762 10.4813 7.59646C10.5268 7.61531 10.5756 7.62501 10.6248 7.62501C10.6741 7.62501 10.7228 7.61531 10.7683 7.59646C10.8138 7.57762 10.8552 7.54999 10.89 7.51517C10.9248 7.48035 10.9524 7.43901 10.9713 7.39351C10.9901 7.34801 10.9998 7.29924 10.9998 7.25C10.9998 7.20075 10.9901 7.15199 10.9713 7.10649C10.9524 7.06099 10.9248 7.01965 10.89 6.98483C10.7545 6.85014 10.6496 6.68789 10.5823 6.50909C10.515 6.33028 10.487 6.1391 10.5001 5.94851C10.9805 6.14703 11.3912 6.4835 11.6804 6.91539C11.9696 7.34729 12.1242 7.85522 12.1248 8.375V9.125C12.1248 9.82119 11.8483 10.4889 11.356 10.9812C10.8637 11.4734 10.196 11.75 9.49983 11.75C8.80363 11.75 8.13595 11.4734 7.64367 10.9812C7.15139 10.4889 6.87483 9.82119 6.87483 9.125V8.375C6.87516 7.90282 7.00273 7.43946 7.24413 7.03366C7.48554 6.62785 7.83184 6.29461 8.24662 6.06898C8.25402 6.61266 8.47408 7.1318 8.85966 7.51517ZM12.8748 8.375C12.9743 8.375 13.0697 8.41451 13.14 8.48483C13.2103 8.55516 13.2498 8.65054 13.2498 8.75C13.2498 8.84945 13.2103 8.94484 13.14 9.01516C13.0697 9.08549 12.9743 9.125 12.8748 9.125V8.375ZM12.8748 9.875C13.1518 9.87519 13.4189 9.77281 13.6248 9.58761V12.029C13.3949 11.8724 13.1392 11.7576 12.8694 11.6898C12.8581 11.6173 12.8256 11.5499 12.776 11.4959C12.7264 11.4419 12.662 11.4037 12.5908 11.3862L12.1073 11.2654C12.4398 10.8613 12.6735 10.3852 12.7898 9.875H12.8748ZM14.8758 13.2207L14.3748 12.7197V11.375H15.0809L14.8758 13.2207ZM10.0945 17.375H8.90512L8.15512 16.625L9.49983 15.2803L10.8445 16.625L10.0945 17.375ZM11.453 11.8748L11.9722 12.0046L10.5076 15.2272L9.94734 14.6669L11.0766 12.1263C11.0799 12.1188 11.0825 12.1111 11.0853 12.1035C11.2126 12.0352 11.3354 11.9588 11.453 11.8748ZM9.49983 13.8266L8.88478 12.4428C9.29127 12.5191 9.70839 12.5191 10.1149 12.4428L9.49983 13.8266ZM7.02975 12.0039L7.54669 11.8747C7.66377 11.9583 7.78606 12.0344 7.91283 12.1025L9.05255 14.6668L8.4923 15.2272L7.02951 12.0087L7.02975 12.0039ZM7.24983 14.3063L7.79245 15.5H7.24983V14.3063ZM11.7498 14.3063V15.5H11.2072L11.7498 14.3063ZM4.62483 12.7197L4.12387 13.2207L3.9188 11.375H4.62483V12.7197ZM3.87483 14.3107C3.90558 14.2354 3.95615 14.1698 4.02117 14.1209C4.02365 14.1192 4.02614 14.1177 4.02858 14.1159C4.0661 14.0889 4.10749 14.0677 4.15134 14.0531L4.36837 13.9808C4.42361 13.9624 4.47381 13.9313 4.515 13.8902L5.55947 12.8457C5.78493 12.62 6.07186 12.4656 6.38447 12.4019L6.94364 13.6322C6.85374 13.6151 6.76072 13.6316 6.68212 13.6784L4.84242 14.7822L4.4393 14.9166C4.33534 14.9508 4.22257 14.9466 4.12147 14.9047C4.02036 14.8628 3.93764 14.7861 3.88833 14.6884C3.85876 14.6302 3.84223 14.5662 3.8399 14.501C3.83757 14.4358 3.84949 14.3708 3.87483 14.3107ZM6.96389 16.25H7.46944L7.35961 16.3598C7.32478 16.3946 7.29716 16.436 7.27831 16.4815C7.25947 16.527 7.24977 16.5758 7.24977 16.625C7.24977 16.6742 7.25947 16.723 7.27831 16.7685C7.29716 16.814 7.32478 16.8553 7.35961 16.8902L7.92033 17.4509C7.71346 17.5985 7.54473 17.7932 7.42813 18.0189C7.31153 18.2447 7.2504 18.495 7.24983 18.7491V19.625C7.24972 19.7244 7.21017 19.8197 7.13987 19.89C7.06957 19.9603 6.97425 19.9999 6.87483 20H5.1217C5.00392 19.9997 4.89007 19.9576 4.80045 19.8812C4.71083 19.8048 4.65128 19.699 4.63241 19.5827C4.61355 19.4665 4.63659 19.3473 4.69744 19.2464C4.75828 19.1456 4.85298 19.0696 4.96462 19.0321L5.49356 18.8558C5.5682 18.8309 5.63312 18.7831 5.67911 18.7192C5.7251 18.6554 5.74984 18.5787 5.74983 18.5V18.2473C5.7484 17.8349 5.86104 17.43 6.07529 17.0775C6.28955 16.725 6.59707 16.4387 6.96389 16.25ZM9.12483 18.125H9.87483V18.875H9.12483V18.125ZM12.3178 13.6784C12.2392 13.6316 12.1461 13.6151 12.0562 13.6322L12.6154 12.4019C12.9279 12.4657 13.2148 12.62 13.4402 12.8457L14.4847 13.8902C14.5258 13.9313 14.576 13.9624 14.6313 13.9808L14.8483 14.0531C14.8922 14.0677 14.9336 14.0889 14.9712 14.116C14.9736 14.1177 14.9759 14.1192 14.9784 14.1209C15.0633 14.1851 15.123 14.277 15.1473 14.3807C15.1716 14.4843 15.1588 14.5932 15.1113 14.6884C15.062 14.7861 14.9793 14.8628 14.8782 14.9047C14.7771 14.9466 14.6644 14.9508 14.5605 14.9166L14.1573 14.7822L12.3178 13.6784ZM16.1275 4.21194C16.4891 4.69553 16.7172 5.26564 16.7891 5.86516C16.861 6.46468 16.774 7.07256 16.537 7.6279L15.2526 10.625H14.3748V3.43948C14.7087 3.40654 15.0455 3.46033 15.3526 3.59565C15.6596 3.73097 15.9265 3.94324 16.1275 4.21194ZM13.6248 3.3154V7.91239C13.4189 7.72719 13.1518 7.62481 12.8748 7.625H12.7898C12.62 6.87941 12.202 6.2136 11.6042 5.73668C11.0065 5.25977 10.2645 5.00003 9.49983 5.00003C8.73515 5.00003 7.99314 5.25977 7.39541 5.73668C6.79767 6.2136 6.37965 6.87941 6.20986 7.625H6.12483C5.8479 7.62481 5.58071 7.72719 5.37483 7.91239V3.3154C6.58011 2.45969 8.02167 2 9.49983 2C10.978 2 12.4195 2.45969 13.6248 3.3154ZM2.87212 4.21194C3.07311 3.94324 3.34003 3.73096 3.64708 3.59564C3.95413 3.46032 4.2909 3.40653 4.62483 3.43948V10.625H3.74709L2.46272 7.6279C2.22568 7.07257 2.13873 6.46469 2.21058 5.86517C2.28244 5.26565 2.51057 4.69553 2.87212 4.21194ZM15.4998 23H3.49983V22.25H15.4998V23ZM16.8843 19.5522L15.667 21.5H3.33267L2.11533 19.5522C1.886 19.1853 1.73281 18.776 1.66486 18.3486C1.59692 17.9213 1.61561 17.4846 1.71982 17.0646C1.82403 16.6446 2.01163 16.2499 2.27147 15.9039C2.53132 15.5578 2.85809 15.2676 3.23236 15.0504C3.36689 15.301 3.58531 15.4962 3.84935 15.6018C4.11338 15.7074 4.40617 15.7167 4.67639 15.6281L5.11837 15.4808C5.14434 15.4721 6.49978 14.6623 6.49978 14.6623V15.6496C6.04508 15.9099 5.66702 16.2855 5.40369 16.7384C5.14035 17.1914 5.00103 17.7057 4.99978 18.2297L4.7272 18.3206C4.44655 18.4144 4.20841 18.6049 4.05535 18.8582C3.90229 19.1115 3.84429 19.4109 3.89172 19.703C3.93915 19.9951 4.08892 20.2608 4.31425 20.4526C4.53958 20.6444 4.82579 20.7498 5.1217 20.75H6.87483C7.17309 20.7497 7.45903 20.631 7.66994 20.4201C7.88084 20.2092 7.99948 19.9233 7.99983 19.625V18.7491C8.00016 18.6105 8.03453 18.4741 8.09992 18.3518C8.1653 18.2296 8.2597 18.1253 8.37483 18.0481V19.25C8.37483 19.3495 8.41434 19.4448 8.48466 19.5152C8.55499 19.5855 8.65037 19.625 8.74983 19.625H10.2498C10.3493 19.625 10.4447 19.5855 10.515 19.5152C10.5853 19.4448 10.6248 19.3495 10.6248 19.25V18.0484C10.7398 18.1256 10.8342 18.2299 10.8996 18.3521C10.9649 18.4742 10.9994 18.6105 10.9998 18.7491V19.625C11.0002 19.9233 11.1188 20.2092 11.3297 20.4201C11.5406 20.631 11.8266 20.7497 12.1248 20.75H13.878C14.1738 20.7498 14.46 20.6443 14.6853 20.4525C14.9106 20.2606 15.0603 19.9949 15.1077 19.7029C15.1551 19.4108 15.0971 19.1114 14.944 18.8581C14.791 18.6049 14.5529 18.4144 14.2722 18.3206L13.9998 18.2297C13.9986 17.7057 13.8593 17.1914 13.5959 16.7384C13.3326 16.2855 12.9545 15.9099 12.4998 15.6496V14.6623C12.4998 14.6623 13.8553 15.4721 13.8812 15.4808L14.3233 15.6281C14.5935 15.7168 14.8863 15.7075 15.1503 15.6019C15.4144 15.4962 15.6328 15.301 15.7673 15.0504C16.1416 15.2676 16.4683 15.5578 16.7282 15.9039C16.988 16.2499 17.1756 16.6446 17.2798 17.0646C17.384 17.4846 17.4027 17.9213 17.3348 18.3486C17.2668 18.776 17.1137 19.1853 16.8843 19.5522Z" fill="#0E6C51"/>
</g>
<defs>
<clipPath id="clip0_1_2071">
<rect width="18" height="24" fill="white" transform="translate(0.5 0.5)"/>
</clipPath>
</defs>
</svg>
