<svg width="21" height="21" viewBox="0 0 21 21" fill="none" xmlns="http://www.w3.org/2000/svg">
<path d="M10.5 3C6.3575 3 3 6.3575 3 10.5C3 14.6425 6.3575 18 10.5 18C14.6425 18 18 14.6425 18 10.5C18 6.3575 14.6425 3 10.5 3ZM10.5 16.75C7.05375 16.75 4.25 13.9462 4.25 10.5C4.25 7.05375 7.05375 4.25 10.5 4.25C13.9462 4.25 16.75 7.05375 16.75 10.5C16.75 13.9462 13.9462 16.75 10.5 16.75ZM6.75 10.5C6.75 10.9925 6.847 11.4801 7.03545 11.9351C7.22391 12.39 7.50013 12.8034 7.84835 13.1517C8.19657 13.4999 8.60997 13.7761 9.06494 13.9645C9.51991 14.153 10.0075 14.25 10.5 14.25C11.4946 14.25 12.4484 13.8549 13.1517 13.1517C13.8549 12.4484 14.25 11.4946 14.25 10.5C14.25 9.50544 13.8549 8.55161 13.1517 7.84835C12.4484 7.14509 11.4946 6.75 10.5 6.75C9.50544 6.75 8.55161 7.14509 7.84835 7.84835C7.14509 8.55161 6.75 9.50544 6.75 10.5Z" fill="#0E6C51"/>
</svg>
