<svg width="19" height="19" viewBox="0 0 19 19" fill="none" xmlns="http://www.w3.org/2000/svg">
<path d="M9.49996 1.1665C7.85179 1.1665 6.24062 1.65525 4.87021 2.57092C3.4998 3.4866 2.4317 4.78809 1.80097 6.31081C1.17024 7.83353 1.00521 9.50908 1.32675 11.1256C1.6483 12.7421 2.44197 14.227 3.60741 15.3924C4.77284 16.5578 6.2577 17.3515 7.87421 17.673C9.49072 17.9946 11.1663 17.8296 12.689 17.1988C14.2117 16.5681 15.5132 15.5 16.4289 14.1296C17.3446 12.7592 17.8333 11.148 17.8333 9.49984C17.8308 7.29045 16.9521 5.17227 15.3898 3.60999C13.8275 2.04772 11.7093 1.16896 9.49996 1.1665ZM9.49996 16.1665C8.18142 16.1665 6.89249 15.7755 5.79616 15.043C4.69983 14.3104 3.84535 13.2692 3.34077 12.0511C2.83618 10.8329 2.70416 9.49244 2.96139 8.19923C3.21863 6.90603 3.85357 5.71814 4.78592 4.78579C5.71827 3.85344 6.90615 3.2185 8.19936 2.96127C9.49257 2.70403 10.833 2.83606 12.0512 3.34064C13.2694 3.84522 14.3105 4.69971 15.0431 5.79604C15.7756 6.89236 16.1666 8.18129 16.1666 9.49984C16.1646 11.2673 15.4616 12.9618 14.2118 14.2116C12.962 15.4615 11.2675 16.1645 9.49996 16.1665ZM11.2484 7.528L10.3333 8.05656V5.33317C10.3333 5.11216 10.2455 4.9002 10.0892 4.74391C9.93294 4.58763 9.72098 4.49984 9.49996 4.49984C9.27895 4.49984 9.06699 4.58763 8.91071 4.74391C8.75443 4.9002 8.66663 5.11216 8.66663 5.33317V9.49984C8.66667 9.64611 8.70519 9.78979 8.77834 9.91646C8.85148 10.0431 8.95667 10.1483 9.08333 10.2215C9.21 10.2946 9.35368 10.3331 9.49995 10.3332C9.64622 10.3332 9.78992 10.2948 9.91663 10.2217L12.0817 8.97168C12.1766 8.91699 12.2597 8.84415 12.3264 8.75732C12.3931 8.67049 12.4421 8.57137 12.4704 8.46562C12.4988 8.35987 12.5061 8.24957 12.4918 8.14102C12.4775 8.03246 12.442 7.92778 12.3873 7.83296C12.3326 7.73813 12.2597 7.65502 12.1728 7.58837C12.0859 7.52172 11.9868 7.47284 11.881 7.44452C11.7753 7.4162 11.665 7.409 11.5564 7.42332C11.4479 7.43764 11.3432 7.47321 11.2484 7.528Z" fill="#DD4E4B"/>
</svg>
