<svg width="23" height="25" viewBox="0 0 23 25" fill="none" xmlns="http://www.w3.org/2000/svg">
<path d="M20.8339 6.02538L12.4818 1.50048C12.1806 1.33612 11.843 1.25 11.4999 1.25C11.1569 1.25 10.8193 1.33612 10.5181 1.50048L2.16635 6.02538C1.79513 6.22965 1.48906 6.53451 1.28332 6.90492C1.07757 7.27533 0.980501 7.69627 1.00325 8.11938C1.12291 11.1845 2.02189 14.1685 3.61528 16.7896C5.20867 19.4107 7.44388 21.5824 10.1098 23.0996L11.1429 23.6592C11.2526 23.7183 11.3753 23.7493 11.4999 23.7493C11.6246 23.7493 11.7473 23.7183 11.857 23.6592L12.8904 23.0996C15.6858 21.5615 17.9971 19.2748 19.565 16.4961C21.0157 13.931 21.8483 11.0631 21.9966 8.11998C22.0194 7.69684 21.9223 7.27587 21.7167 6.90538C21.511 6.53489 21.2051 6.22989 20.8339 6.02538ZM15.076 9.98043L11.326 14.4804C11.2586 14.5594 11.1757 14.6237 11.0824 14.6692C10.9891 14.7148 10.8874 14.7408 10.7837 14.7454C10.6799 14.7501 10.5764 14.7334 10.4793 14.6964C10.3823 14.6594 10.2939 14.6028 10.2197 14.5302L7.9697 12.2802C7.83308 12.1388 7.75748 11.9493 7.75919 11.7527C7.7609 11.556 7.83978 11.3679 7.97883 11.2289C8.11789 11.0898 8.306 11.0109 8.50265 11.0092C8.6993 11.0075 8.88875 11.0831 9.0302 11.2197L10.6994 12.8889L13.9239 9.01953C13.987 8.94388 14.0643 8.88139 14.1516 8.83564C14.2388 8.7899 14.3342 8.76178 14.4323 8.7529C14.5304 8.74402 14.6293 8.75455 14.7234 8.78389C14.8174 8.81323 14.9047 8.86081 14.9804 8.9239C15.0561 8.987 15.1185 9.06437 15.1643 9.15161C15.21 9.23885 15.2381 9.33425 15.247 9.43236C15.2559 9.53047 15.2454 9.62936 15.216 9.7234C15.1867 9.81744 15.1391 9.90478 15.076 9.98043Z" fill="#0E6C51"/>
</svg>
