<svg width="23" height="15" viewBox="0 0 23 15" fill="none" xmlns="http://www.w3.org/2000/svg">
<g clip-path="url(#clip0_1_2079)">
<path d="M21.25 5.25H22V0.75H1V5.25H1.75C2.34674 5.25 2.91903 5.48705 3.34099 5.90901C3.76295 6.33097 4 6.90326 4 7.5C4 8.09674 3.76295 8.66903 3.34099 9.09099C2.91903 9.51295 2.34674 9.75 1.75 9.75H1V14.25H22V9.75H21.25C20.6533 9.75 20.081 9.51295 19.659 9.09099C19.2371 8.66903 19 8.09674 19 7.5C19 6.90326 19.2371 6.33097 19.659 5.90901C20.081 5.48705 20.6533 5.25 21.25 5.25ZM8.5 12.75H7V11.25H8.5V12.75ZM8.5 9.75H7V8.25H8.5V9.75ZM8.5 6.75H7V5.25H8.5V6.75ZM8.5 3.75H7V2.25H8.5V3.75Z" fill="#0E6C51"/>
</g>
<defs>
<clipPath id="clip0_1_2079">
<rect width="22" height="14" fill="white" transform="translate(0.5 0.5)"/>
</clipPath>
</defs>
</svg>
