<svg width="25" height="25" viewBox="0 0 25 25" fill="none" xmlns="http://www.w3.org/2000/svg">
<path d="M20.5 5.5H4.5C2.8 5.5 1.5 6.8 1.5 8.5V16.5C1.5 18.2 2.8 19.5 4.5 19.5H20.5C22.2 19.5 23.5 18.2 23.5 16.5V8.5C23.5 6.8 22.2 5.5 20.5 5.5ZM6.5 13.5C5.9 13.5 5.5 13.1 5.5 12.5C5.5 11.9 5.9 11.5 6.5 11.5C7.1 11.5 7.5 11.9 7.5 12.5C7.5 13.1 7.1 13.5 6.5 13.5ZM15.4 13.1C15.1 14.7 13.5 15.8 11.9 15.5C10.3 15.2 9.2 13.6 9.5 12C9.7 10.8 10.7 9.9 11.9 9.6C13.5 9.3 15.1 10.3 15.4 12C15.5 12.3 15.5 12.7 15.4 13.1ZM18.5 13.5C17.9 13.5 17.5 13.1 17.5 12.5C17.5 11.9 17.9 11.5 18.5 11.5C19.1 11.5 19.5 11.9 19.5 12.5C19.5 13.1 19.1 13.5 18.5 13.5Z" fill="#0E6C51"/>
</svg>
