<svg width="26" height="25" viewBox="0 0 26 25" fill="none" xmlns="http://www.w3.org/2000/svg">
<path d="M22.9816 12.6801C22.9816 11.8612 22.9136 11.2637 22.7665 10.6441H13.1981V14.3398H18.8145C18.7013 15.2583 18.0899 16.6415 16.731 17.5709L16.712 17.6946L19.7373 19.9849L19.9469 20.0053C21.8719 18.268 22.9816 15.712 22.9816 12.6801Z" fill="#4285F4"/>
<path d="M13.1981 22.4176C15.9497 22.4176 18.2597 21.5323 19.9469 20.0053L16.731 17.5709C15.8705 18.1574 14.7154 18.5668 13.1981 18.5668C10.5032 18.5668 8.21583 16.8296 7.40046 14.4284L7.28095 14.4383L4.13516 16.8174L4.09402 16.9291C5.76988 20.1823 9.21223 22.4176 13.1981 22.4176Z" fill="#34A853"/>
<path d="M7.40046 14.4284C7.18532 13.8088 7.0608 13.1448 7.0608 12.4588C7.0608 11.7727 7.18532 11.1088 7.38914 10.4892L7.38344 10.3572L4.19823 7.93991L4.09402 7.98835C3.40331 9.33834 3.00699 10.8543 3.00699 12.4588C3.00699 14.0632 3.40331 15.5791 4.09402 16.9291L7.40046 14.4284Z" fill="#FBBC05"/>
<path d="M13.1981 6.3507C15.1118 6.3507 16.4026 7.15847 17.1387 7.8335L20.0148 5.08928C18.2484 3.48482 15.9497 2.5 13.1981 2.5C9.21223 2.5 5.76988 4.73518 4.09402 7.98835L7.38915 10.4892C8.21583 8.08798 10.5032 6.3507 13.1981 6.3507Z" fill="#EB4335"/>
</svg>
