<svg width="41" height="41" viewBox="0 0 41 41" fill="none" xmlns="http://www.w3.org/2000/svg">
<g clip-path="url(#clip0_1_2225)">
<path d="M20.5 40C31.2696 40 40 31.2696 40 20.5C40 9.73045 31.2696 1 20.5 1C9.73045 1 1 9.73045 1 20.5C1 31.2696 9.73045 40 20.5 40Z" fill="white" stroke="#F6F6F6"/>
<path d="M27.9396 21.4999C27.7196 21.4999 27.4896 21.4299 27.2696 21.3799C26.8241 21.2817 26.3863 21.1514 25.9596 20.9899C25.4957 20.8211 24.9858 20.8299 24.5279 21.0145C24.0701 21.1991 23.6967 21.5465 23.4796 21.9899L23.2596 22.4399C22.2856 21.898 21.3906 21.2251 20.5996 20.4399C19.8144 19.6489 19.1414 18.7539 18.5996 17.7799L19.0196 17.4999C19.463 17.2828 19.8104 16.9094 19.995 16.4516C20.1796 15.9937 20.1884 15.4838 20.0196 15.0199C19.8608 14.5923 19.7305 14.1547 19.6296 13.7099C19.5796 13.4899 19.5396 13.2599 19.5096 13.0299C19.3882 12.3255 19.0192 11.6876 18.4692 11.2311C17.9192 10.7746 17.2243 10.5295 16.5096 10.5399H13.5096C13.0786 10.5358 12.6519 10.6247 12.2583 10.8004C11.8648 10.9761 11.5137 11.2346 11.229 11.5582C10.9444 11.8817 10.7327 12.2629 10.6086 12.6756C10.4845 13.0883 10.4507 13.5229 10.5096 13.9499C11.0424 18.1392 12.9556 22.0317 15.9473 25.0125C18.9389 27.9933 22.8383 29.8924 27.0296 30.4099H27.4096C28.147 30.4109 28.859 30.1404 29.4096 29.6499C29.726 29.3669 29.9787 29.02 30.1511 28.6322C30.3235 28.2443 30.4116 27.8243 30.4096 27.3999V24.3999C30.3974 23.7053 30.1444 23.0364 29.694 22.5075C29.2435 21.9786 28.6234 21.6225 27.9396 21.4999ZM28.4396 27.4999C28.4394 27.6419 28.409 27.7822 28.3504 27.9115C28.2918 28.0408 28.2063 28.1562 28.0996 28.2499C27.9879 28.3463 27.8572 28.4184 27.716 28.4615C27.5748 28.5045 27.4262 28.5176 27.2796 28.4999C23.5345 28.0197 20.0558 26.3064 17.3923 23.6302C14.7288 20.954 13.032 17.4672 12.5696 13.7199C12.5537 13.5734 12.5676 13.4252 12.6106 13.2843C12.6536 13.1433 12.7247 13.0126 12.8196 12.8999C12.9133 12.7932 13.0287 12.7077 13.158 12.6491C13.2873 12.5905 13.4276 12.56 13.5696 12.5599H16.5696C16.8022 12.5547 17.0292 12.6307 17.2118 12.7749C17.3943 12.9191 17.5208 13.1224 17.5696 13.3499C17.6096 13.6232 17.6596 13.8932 17.7196 14.1599C17.8351 14.687 17.9889 15.205 18.1796 15.7099L16.7796 16.3599C16.6599 16.4148 16.5522 16.4928 16.4628 16.5895C16.3733 16.6861 16.3038 16.7995 16.2583 16.9231C16.2128 17.0466 16.1921 17.178 16.1975 17.3096C16.2028 17.4412 16.2342 17.5704 16.2896 17.6899C17.7288 20.7726 20.2069 23.2507 23.2896 24.6899C23.5331 24.7899 23.8062 24.7899 24.0496 24.6899C24.1743 24.6453 24.2889 24.5763 24.3868 24.4871C24.4846 24.3978 24.5638 24.29 24.6196 24.1699L25.2396 22.7699C25.7566 22.9547 26.2842 23.1084 26.8196 23.2299C27.0863 23.2899 27.3563 23.3399 27.6296 23.3799C27.857 23.4287 28.0604 23.5552 28.2045 23.7377C28.3487 23.9202 28.4248 24.1473 28.4196 24.3799L28.4396 27.4999Z" fill="#0E6C51"/>
</g>
<defs>
<clipPath id="clip0_1_2225">
<rect width="40" height="40" fill="white" transform="translate(0.5 0.5)"/>
</clipPath>
</defs>
</svg>
