<svg width="41" height="41" viewBox="0 0 41 41" fill="none" xmlns="http://www.w3.org/2000/svg">
<g clip-path="url(#clip0_1_2141)">
<path d="M20.5 40C31.2696 40 40 31.2696 40 20.5C40 9.73045 31.2696 1 20.5 1C9.73045 1 1 9.73045 1 20.5C1 31.2696 9.73045 40 20.5 40Z" fill="white" stroke="#F6F6F6"/>
<mask id="mask0_1_2141" style="mask-type:luminance" maskUnits="userSpaceOnUse" x="8" y="8" width="25" height="25">
<path d="M32.5 8.5H8.5V32.5H32.5V8.5Z" fill="white"/>
</mask>
<g mask="url(#mask0_1_2141)">
<path d="M22.3656 27.94V30.1727C24.301 29.8085 26.0815 28.8689 27.4744 27.4766C28.8673 26.0844 29.8077 24.3043 30.1728 22.3691H27.9365C27.2565 25.0964 25.0928 27.26 22.3656 27.94ZM18.6347 13.0636V10.8273C16.6985 11.1911 14.9172 12.131 13.5242 13.5241C12.1311 14.9171 11.1912 16.6984 10.8274 18.6345H13.0637C13.7437 15.9036 15.9037 13.7436 18.6347 13.0636ZM13.0637 22.3691H10.8274C11.1925 24.3043 12.133 26.0844 13.5258 27.4766C14.9187 28.8689 16.6992 29.8085 18.6347 30.1727V27.9364C15.9074 27.2564 13.7437 25.0964 13.0637 22.3691ZM27.9365 18.6345H30.1728C29.809 16.6984 28.8691 14.9171 27.476 13.5241C26.083 12.131 24.3018 11.1911 22.3656 10.8273V13.06C25.0965 13.74 27.2565 15.9036 27.9365 18.6345ZM14.3365 20.5C14.3365 19.8709 13.8274 19.3618 13.1983 19.3618H10.2747C9.64557 19.3618 9.13647 19.8709 9.13647 20.5C9.13647 21.1291 9.64557 21.6418 10.2747 21.6418H13.1983C13.8274 21.6418 14.3365 21.1291 14.3365 20.5ZM30.7256 19.3618H27.8019C27.1728 19.3618 26.6637 19.8709 26.6637 20.5C26.6637 21.1291 27.1728 21.6418 27.8019 21.6418H30.7256C31.3547 21.6418 31.8637 21.1291 31.8637 20.5C31.8637 19.8709 31.3547 19.3618 30.7256 19.3618ZM20.5001 14.34C21.1292 14.34 21.6383 13.8273 21.6383 13.1982V10.2782C21.6383 10.1287 21.6089 9.98072 21.5517 9.84263C21.4945 9.70454 21.4106 9.57907 21.3049 9.47338C21.1992 9.36769 21.0738 9.28385 20.9357 9.22665C20.7976 9.16945 20.6496 9.14001 20.5001 9.14001C20.3506 9.14001 20.2026 9.16945 20.0645 9.22665C19.9265 9.28385 19.801 9.36769 19.6953 9.47338C19.5896 9.57907 19.5058 9.70454 19.4486 9.84263C19.3914 9.98072 19.3619 10.1287 19.3619 10.2782V13.1982C19.3619 13.8273 19.871 14.34 20.5001 14.34ZM20.5001 26.6636C19.871 26.6636 19.3619 27.1727 19.3619 27.8018V30.7255C19.3619 31.3545 19.871 31.8636 20.5001 31.8636C21.1292 31.8636 21.6383 31.3545 21.6383 30.7255V27.8018C21.6383 27.1727 21.1292 26.6636 20.5001 26.6636Z" fill="#0E6C51"/>
<path d="M20.5012 23.8902C22.3729 23.8902 23.8902 22.3728 23.8902 20.5011C23.8902 18.6293 22.3729 17.112 20.5012 17.112C18.6294 17.112 17.1121 18.6293 17.1121 20.5011C17.1121 22.3728 18.6294 23.8902 20.5012 23.8902Z" fill="#0E6C51"/>
</g>
</g>
<defs>
<clipPath id="clip0_1_2141">
<rect width="40" height="40" fill="white" transform="translate(0.5 0.5)"/>
</clipPath>
</defs>
</svg>
