<svg width="41" height="41" viewBox="0 0 41 41" fill="none" xmlns="http://www.w3.org/2000/svg">
<g clip-path="url(#clip0_1_2274)">
<path d="M20.5 40C31.2696 40 40 31.2696 40 20.5C40 9.73045 31.2696 1 20.5 1C9.73045 1 1 9.73045 1 20.5C1 31.2696 9.73045 40 20.5 40Z" fill="white" stroke="#F6F6F6"/>
<path d="M28.5 13.5H12.5C10.8 13.5 9.5 14.8 9.5 16.5V24.5C9.5 26.2 10.8 27.5 12.5 27.5H28.5C30.2 27.5 31.5 26.2 31.5 24.5V16.5C31.5 14.8 30.2 13.5 28.5 13.5ZM14.5 21.5C13.9 21.5 13.5 21.1 13.5 20.5C13.5 19.9 13.9 19.5 14.5 19.5C15.1 19.5 15.5 19.9 15.5 20.5C15.5 21.1 15.1 21.5 14.5 21.5ZM23.4 21.1C23.1 22.7 21.5 23.8 19.9 23.5C18.3 23.2 17.2 21.6 17.5 20C17.7 18.8 18.7 17.9 19.9 17.6C21.5 17.3 23.1 18.3 23.4 20C23.5 20.3 23.5 20.7 23.4 21.1ZM26.5 21.5C25.9 21.5 25.5 21.1 25.5 20.5C25.5 19.9 25.9 19.5 26.5 19.5C27.1 19.5 27.5 19.9 27.5 20.5C27.5 21.1 27.1 21.5 26.5 21.5Z" fill="#0E6C51"/>
</g>
<defs>
<clipPath id="clip0_1_2274">
<rect width="40" height="40" fill="white" transform="translate(0.5 0.5)"/>
</clipPath>
</defs>
</svg>
