<svg width="37" height="37" viewBox="0 0 37 37" fill="none" xmlns="http://www.w3.org/2000/svg">
<g clip-path="url(#clip0_1_2192)">
<path d="M18.5 36C28.165 36 36 28.165 36 18.5C36 8.83502 28.165 1 18.5 1C8.83502 1 1 8.83502 1 18.5C1 28.165 8.83502 36 18.5 36Z" fill="white" stroke="#F6F6F6"/>
<mask id="mask0_1_2192" style="mask-type:luminance" maskUnits="userSpaceOnUse" x="6" y="6" width="25" height="25">
<path d="M30.5 6.5H6.5V30.5H30.5V6.5Z" fill="white"/>
</mask>
<g mask="url(#mask0_1_2192)">
<path d="M18.5 8.5C16.5222 8.5 14.5888 9.08649 12.9443 10.1853C11.2998 11.2841 10.0181 12.8459 9.26121 14.6732C8.50433 16.5004 8.3063 18.5111 8.69215 20.4509C9.078 22.3907 10.0304 24.1725 11.4289 25.5711C12.8275 26.9696 14.6093 27.922 16.5491 28.3079C18.4889 28.6937 20.4996 28.4957 22.3268 27.7388C24.1541 26.9819 25.7159 25.7002 26.8147 24.0557C27.9135 22.4112 28.5 20.4778 28.5 18.5C28.5 17.1868 28.2413 15.8864 27.7388 14.6732C27.2363 13.4599 26.4997 12.3575 25.5711 11.4289C24.6425 10.5003 23.5401 9.76375 22.3268 9.2612C21.1136 8.75866 19.8132 8.5 18.5 8.5ZM18.5 26.5C16.9178 26.5 15.371 26.0308 14.0554 25.1518C12.7398 24.2727 11.7145 23.0233 11.109 21.5615C10.5035 20.0997 10.345 18.4911 10.6537 16.9393C10.9624 15.3874 11.7243 13.962 12.8432 12.8431C13.962 11.7243 15.3874 10.9624 16.9393 10.6537C18.4911 10.345 20.0997 10.5035 21.5615 11.109C23.0233 11.7145 24.2727 12.7398 25.1518 14.0554C26.0308 15.371 26.5 16.9177 26.5 18.5C26.5 20.6217 25.6572 22.6566 24.1569 24.1569C22.6566 25.6571 20.6217 26.5 18.5 26.5Z" fill="#0E6C51"/>
<path d="M18.5 12.5001C17.5717 12.5001 16.6815 12.8688 16.0251 13.5252C15.3687 14.1816 15 15.0718 15 16.0001C15 16.2653 15.1054 16.5196 15.2929 16.7072C15.4804 16.8947 15.7348 17.0001 16 17.0001C16.2652 17.0001 16.5196 16.8947 16.7071 16.7072C16.8946 16.5196 17 16.2653 17 16.0001C17 15.7034 17.088 15.4134 17.2528 15.1667C17.4176 14.92 17.6519 14.7278 17.926 14.6142C18.2001 14.5007 18.5017 14.471 18.7926 14.5289C19.0836 14.5868 19.3509 14.7296 19.5607 14.9394C19.7704 15.1492 19.9133 15.4165 19.9712 15.7074C20.0291 15.9984 19.9994 16.3 19.8858 16.5741C19.7723 16.8482 19.58 17.0824 19.3334 17.2473C19.0867 17.4121 18.7967 17.5001 18.5 17.5001C18.2348 17.5001 17.9804 17.6054 17.7929 17.793C17.6054 17.9805 17.5 18.2349 17.5 18.5001V20.5001C17.5 20.7653 17.6054 21.0196 17.7929 21.2072C17.9804 21.3947 18.2348 21.5001 18.5 21.5001C18.7652 21.5001 19.0196 21.3947 19.2071 21.2072C19.3946 21.0196 19.5 20.7653 19.5 20.5001V19.3401C20.3081 19.1041 21.0037 18.5839 21.4585 17.8755C21.9133 17.1671 22.0967 16.3181 21.9749 15.4851C21.8532 14.6521 21.4344 13.8912 20.7958 13.3427C20.1572 12.7941 19.3418 12.4948 18.5 12.5001Z" fill="#0E6C51"/>
<path d="M18.5 24.5C19.0523 24.5 19.5 24.0523 19.5 23.5C19.5 22.9477 19.0523 22.5 18.5 22.5C17.9477 22.5 17.5 22.9477 17.5 23.5C17.5 24.0523 17.9477 24.5 18.5 24.5Z" fill="#0E6C51"/>
</g>
</g>
<defs>
<clipPath id="clip0_1_2192">
<rect width="36" height="36" fill="white" transform="translate(0.5 0.5)"/>
</clipPath>
</defs>
</svg>
