<svg width="32" height="33" viewBox="0 0 32 33" fill="none" xmlns="http://www.w3.org/2000/svg">
<g clip-path="url(#clip0_1_2201)">
<path opacity="0.7" d="M16 32.5C24.5604 32.5 31.5 25.3366 31.5 16.5C31.5 7.66344 24.5604 0.5 16 0.5C7.43959 0.5 0.5 7.66344 0.5 16.5C0.5 25.3366 7.43959 32.5 16 32.5Z" fill="black" fill-opacity="0.1"/>
<path d="M15.805 17.9346L11.8515 21.8881C11.7035 22.036 11.5153 22.11 11.2867 22.11C11.0581 22.11 10.8698 22.036 10.7219 21.8881C10.574 21.7402 10.5 21.5519 10.5 21.3233C10.5 21.0947 10.574 20.9065 10.7219 20.7585L14.6754 16.805L10.7219 12.8515C10.574 12.7035 10.5 12.5153 10.5 12.2867C10.5 12.0581 10.574 11.8698 10.7219 11.7219C10.8698 11.574 11.0581 11.5 11.2867 11.5C11.5153 11.5 11.7035 11.574 11.8515 11.7219L15.805 15.6754L19.7585 11.7219C19.9065 11.574 20.0947 11.5 20.3233 11.5C20.5519 11.5 20.7402 11.574 20.8881 11.7219C21.036 11.8698 21.11 12.0581 21.11 12.2867C21.11 12.5153 21.036 12.7035 20.8881 12.8515L16.9346 16.805L20.8881 20.7585C21.036 20.9065 21.11 21.0947 21.11 21.3233C21.11 21.5519 21.036 21.7402 20.8881 21.8881C20.7402 22.036 20.5519 22.11 20.3233 22.11C20.0947 22.11 19.9065 22.036 19.7585 21.8881L15.805 17.9346Z" fill="#0E6C51"/>
</g>
<defs>
<clipPath id="clip0_1_2201">
<rect width="31" height="32" fill="white" transform="translate(0.5 0.5)"/>
</clipPath>
</defs>
</svg>
