<svg width="37" height="37" viewBox="0 0 37 37" fill="none" xmlns="http://www.w3.org/2000/svg">
<g clip-path="url(#clip0_1_2312)">
<path d="M18.5 36C28.165 36 36 28.165 36 18.5C36 8.83502 28.165 1 18.5 1C8.83502 1 1 8.83502 1 18.5C1 28.165 8.83502 36 18.5 36Z" fill="white" stroke="#F6F6F6"/>
<mask id="mask0_1_2312" style="mask-type:luminance" maskUnits="userSpaceOnUse" x="8" y="8" width="21" height="21">
<path d="M28.5 8.5H8.5V28.5H28.5V8.5Z" fill="white"/>
</mask>
<g mask="url(#mask0_1_2312)">
<path d="M18.5 23.7165L12.6225 27.0065L13.935 20.3998L8.98914 15.8265L15.6783 15.0332L18.5 8.9165L21.3216 15.0332L28.0108 15.8265L23.065 20.3998L24.3775 27.0065L18.5 23.7165ZM18.5 21.8065L22.0391 23.7873L21.2483 19.8098L24.2258 17.0557L20.1983 16.5782L18.5 12.8957L16.8016 16.579L12.7741 17.0557L15.7516 19.8098L14.9608 23.7873L18.5 21.8065Z" fill="#0E6C51"/>
</g>
</g>
<defs>
<clipPath id="clip0_1_2312">
<rect width="36" height="36" fill="white" transform="translate(0.5 0.5)"/>
</clipPath>
</defs>
</svg>
