<svg width="41" height="41" viewBox="0 0 41 41" fill="none" xmlns="http://www.w3.org/2000/svg">
<g clip-path="url(#clip0_1_2204)">
<path d="M20.5 40.5C31.5457 40.5 40.5 31.5457 40.5 20.5C40.5 9.4543 31.5457 0.5 20.5 0.5C9.4543 0.5 0.5 9.4543 0.5 20.5C0.5 31.5457 9.4543 40.5 20.5 40.5Z" fill="white"/>
<path d="M13.75 24.4381V27.2511H16.563L24.858 18.9511L22.045 16.1431L13.75 24.4381ZM27.032 16.7801C27.1015 16.7107 27.1565 16.6283 27.1941 16.5377C27.2317 16.447 27.2511 16.3498 27.2511 16.2516C27.2511 16.1534 27.2317 16.0562 27.1941 15.9656C27.1565 15.8749 27.1015 15.7925 27.032 15.7231L25.277 13.9681C25.2076 13.8987 25.1252 13.8436 25.0346 13.806C24.9439 13.7684 24.8467 13.749 24.7485 13.749C24.6503 13.749 24.5531 13.7684 24.4624 13.806C24.3718 13.8436 24.2894 13.8987 24.22 13.9681L22.85 15.3401L25.66 18.1511L27.032 16.7801Z" fill="#0E6C51"/>
</g>
<defs>
<clipPath id="clip0_1_2204">
<rect width="40" height="40" fill="white" transform="translate(0.5 0.5)"/>
</clipPath>
</defs>
</svg>
