<svg width="37" height="37" viewBox="0 0 37 37" fill="none" xmlns="http://www.w3.org/2000/svg">
<g clip-path="url(#clip0_1_2257)">
<path d="M18.5 36C28.165 36 36 28.165 36 18.5C36 8.83502 28.165 1 18.5 1C8.83502 1 1 8.83502 1 18.5C1 28.165 8.83502 36 18.5 36Z" fill="white" stroke="#F6F6F6"/>
<path d="M19.5 27.5C19.5 27.7652 19.3946 28.0196 19.2071 28.2071C19.0196 28.3946 18.7652 28.5 18.5 28.5H9.5C9.23478 28.5 8.98043 28.3946 8.79289 28.2071C8.60536 28.0196 8.5 27.7652 8.5 27.5V9.5C8.5 9.23478 8.60536 8.98043 8.79289 8.79289C8.98043 8.60536 9.23478 8.5 9.5 8.5H18.5C18.7652 8.5 19.0196 8.60536 19.2071 8.79289C19.3946 8.98043 19.5 9.23478 19.5 9.5C19.5 9.76522 19.3946 10.0196 19.2071 10.2071C19.0196 10.3946 18.7652 10.5 18.5 10.5H10.5V26.5H18.5C18.7652 26.5 19.0196 26.6054 19.2071 26.7929C19.3946 26.9804 19.5 27.2348 19.5 27.5ZM28.42 18.12C28.3683 18 28.2935 17.8913 28.2 17.8L24.2 13.8C24.0087 13.6362 23.7626 13.5506 23.5109 13.5603C23.2593 13.57 23.0205 13.6743 22.8424 13.8524C22.6643 14.0305 22.56 14.2693 22.5503 14.5209C22.5406 14.7726 22.6262 15.0187 22.79 15.21L25.09 17.5H13.5C13.2348 17.5 12.9804 17.6054 12.7929 17.7929C12.6054 17.9804 12.5 18.2348 12.5 18.5C12.5 18.7652 12.6054 19.0196 12.7929 19.2071C12.9804 19.3946 13.2348 19.5 13.5 19.5H25.09L22.8 21.79C22.6953 21.8796 22.6103 21.99 22.5503 22.114C22.4903 22.2381 22.4565 22.3732 22.4512 22.5109C22.4459 22.6487 22.4691 22.786 22.5194 22.9143C22.5696 23.0426 22.6459 23.1592 22.7433 23.2567C22.8408 23.3541 22.9574 23.4304 23.0857 23.4806C23.214 23.5309 23.3513 23.5541 23.4891 23.5488C23.6268 23.5435 23.7619 23.5097 23.886 23.4497C24.01 23.3897 24.1204 23.3047 24.21 23.2L28.21 19.2C28.3504 19.0605 28.4463 18.8824 28.4855 18.6884C28.5246 18.4944 28.5053 18.2931 28.43 18.11L28.42 18.12Z" fill="#dd4e4b"/>
</g>
<defs>
<clipPath id="clip0_1_2257">
<rect width="36" height="36" fill="white" transform="translate(0.5 0.5)"/>
</clipPath>
</defs>
</svg>
