<svg width="41" height="41" viewBox="0 0 41 41" fill="none" xmlns="http://www.w3.org/2000/svg">
<g clip-path="url(#clip0_1_2277)">
<path d="M20.5 40C31.2696 40 40 31.2696 40 20.5C40 9.73045 31.2696 1 20.5 1C9.73045 1 1 9.73045 1 20.5C1 31.2696 9.73045 40 20.5 40Z" fill="white" stroke="#E6E6E6"/>
<path d="M26.4997 22.5C25.9088 22.5039 25.3262 22.6386 24.7937 22.8945C24.2611 23.1504 23.7919 23.5211 23.4197 23.98L18.3197 21.63C18.5594 20.8957 18.5594 20.1042 18.3197 19.37L23.4197 17.02C24.0213 17.746 24.86 18.2361 25.7878 18.4038C26.7156 18.5716 27.6729 18.4062 28.4906 17.9369C29.3084 17.4676 29.934 16.7245 30.2572 15.8387C30.5804 14.953 30.5803 13.9816 30.257 13.0959C29.9336 12.2102 29.3078 11.4672 28.49 10.9981C27.6722 10.5289 26.7149 10.3637 25.7871 10.5316C24.8593 10.6995 24.0207 11.1898 23.4192 11.9159C22.8177 12.642 22.492 13.5572 22.4997 14.5C22.5027 14.7382 22.5261 14.9758 22.5697 15.21L17.2897 17.64C16.7267 17.0896 16.0139 16.7175 15.2405 16.5704C14.467 16.4233 13.6674 16.5078 12.9417 16.8131C12.216 17.1185 11.5966 17.6312 11.1611 18.2871C10.7255 18.9429 10.4932 19.7127 10.4932 20.5C10.4932 21.2873 10.7255 22.0571 11.1611 22.7129C11.5966 23.3688 12.216 23.8815 12.9417 24.1869C13.6674 24.4922 14.467 24.5767 15.2405 24.4296C16.0139 24.2825 16.7267 23.9104 17.2897 23.36L22.5697 25.79C22.5261 26.0242 22.5027 26.2618 22.4997 26.5C22.4997 27.2911 22.7343 28.0645 23.1738 28.7223C23.6133 29.3801 24.238 29.8928 24.9689 30.1955C25.6998 30.4983 26.5041 30.5775 27.28 30.4231C28.0559 30.2688 28.7687 29.8878 29.3281 29.3284C29.8875 28.769 30.2685 28.0563 30.4228 27.2804C30.5771 26.5044 30.4979 25.7002 30.1952 24.9693C29.8924 24.2384 29.3797 23.6136 28.7219 23.1741C28.0641 22.7346 27.2908 22.5 26.4997 22.5ZM26.4997 12.5C26.8952 12.5 27.2819 12.6173 27.6108 12.8371C27.9397 13.0568 28.196 13.3692 28.3474 13.7346C28.4988 14.1001 28.5384 14.5022 28.4612 14.8902C28.3841 15.2781 28.1936 15.6345 27.9139 15.9142C27.6342 16.1939 27.2778 16.3844 26.8898 16.4616C26.5019 16.5387 26.0997 16.4991 25.7343 16.3478C25.3688 16.1964 25.0565 15.94 24.8367 15.6111C24.617 15.2822 24.4997 14.8956 24.4997 14.5C24.4997 13.9696 24.7104 13.4609 25.0854 13.0858C25.4605 12.7107 25.9692 12.5 26.4997 12.5ZM14.4997 22.5C14.1041 22.5 13.7174 22.3827 13.3885 22.1629C13.0596 21.9432 12.8033 21.6308 12.6519 21.2654C12.5005 20.8999 12.4609 20.4978 12.5381 20.1098C12.6153 19.7218 12.8057 19.3655 13.0854 19.0858C13.3652 18.8061 13.7215 18.6156 14.1095 18.5384C14.4974 18.4613 14.8996 18.5009 15.265 18.6522C15.6305 18.8036 15.9428 19.06 16.1626 19.3889C16.3824 19.7178 16.4997 20.1044 16.4997 20.5C16.4997 21.0304 16.2889 21.5391 15.9139 21.9142C15.5388 22.2893 15.0301 22.5 14.4997 22.5ZM26.4997 28.5C26.1041 28.5 25.7174 28.3827 25.3885 28.1629C25.0596 27.9432 24.8033 27.6308 24.6519 27.2654C24.5005 26.8999 24.4609 26.4978 24.5381 26.1098C24.6153 25.7218 24.8057 25.3655 25.0854 25.0858C25.3652 24.8061 25.7215 24.6156 26.1095 24.5384C26.4974 24.4613 26.8996 24.5009 27.265 24.6522C27.6305 24.8036 27.9428 25.06 28.1626 25.3889C28.3824 25.7177 28.4997 26.1044 28.4997 26.5C28.4997 27.0304 28.2889 27.5391 27.9139 27.9142C27.5388 28.2893 27.0301 28.5 26.4997 28.5Z" fill="#0E6C51"/>
</g>
<defs>
<clipPath id="clip0_1_2277">
<rect width="40" height="40" fill="white" transform="translate(0.5 0.5)"/>
</clipPath>
</defs>
</svg>
