<svg width="41" height="41" viewBox="0 0 41 41" fill="none" xmlns="http://www.w3.org/2000/svg">
<g clip-path="url(#clip0_1_2156)">
<path d="M20.5 40C31.2696 40 40 31.2696 40 20.5C40 9.73045 31.2696 1 20.5 1C9.73045 1 1 9.73045 1 20.5C1 31.2696 9.73045 40 20.5 40Z" fill="white" stroke="#F6F6F6"/>
<mask id="mask0_1_2156" style="mask-type:luminance" maskUnits="userSpaceOnUse" x="8" y="8" width="25" height="25">
<path d="M32.5 8.5H8.5V32.5H32.5V8.5Z" fill="white"/>
</mask>
<g mask="url(#mask0_1_2156)">
<path d="M20.5007 19.0862L25.4507 14.1362L26.8647 15.5502L21.9147 20.5002L26.8647 25.4502L25.4507 26.8642L20.5007 21.9142L15.5507 26.8642L14.1367 25.4502L19.0867 20.5002L14.1367 15.5502L15.5507 14.1362L20.5007 19.0862Z" fill="#0E6C51"/>
</g>
</g>
<defs>
<clipPath id="clip0_1_2156">
<rect width="40" height="40" fill="white" transform="translate(0.5 0.5)"/>
</clipPath>
</defs>
</svg>
