<svg width="37" height="37" viewBox="0 0 37 37" fill="none" xmlns="http://www.w3.org/2000/svg">
<g clip-path="url(#clip0_1_2243)">
<path d="M18.5 36C28.165 36 36 28.165 36 18.5C36 8.83502 28.165 1 18.5 1C8.83502 1 1 8.83502 1 18.5C1 28.165 8.83502 36 18.5 36Z" fill="white" stroke="#F6F6F6"/>
<mask id="mask0_1_2243" style="mask-type:luminance" maskUnits="userSpaceOnUse" x="6" y="6" width="25" height="25">
<path d="M30.5 6.5H6.5V30.5H30.5V6.5Z" fill="white"/>
</mask>
<g mask="url(#mask0_1_2243)">
<path d="M8.5 18.5001C8.5 17.6351 8.61 16.7971 8.816 15.9961C9.36847 16.0251 9.9182 15.9008 10.4044 15.6369C10.8907 15.373 11.2945 14.9799 11.5712 14.5008C11.8479 14.0218 11.9868 13.4755 11.9725 12.9225C11.9581 12.3694 11.7912 11.8311 11.49 11.3671C12.6989 10.1776 14.1908 9.31556 15.825 8.86206C16.076 9.35553 16.4586 9.76993 16.9306 10.0594C17.4025 10.3488 17.9454 10.502 18.499 10.502C19.0526 10.502 19.5955 10.3488 20.0674 10.0594C20.5394 9.76993 20.922 9.35553 21.173 8.86206C22.8072 9.31556 24.2991 10.1776 25.508 11.3671C25.2065 11.8312 25.0393 12.3697 25.0248 12.923C25.0104 13.4763 25.1493 14.0228 25.4262 14.5021C25.7031 14.9813 26.1071 15.3746 26.5937 15.6385C27.0802 15.9023 27.6303 16.0264 28.183 15.9971C28.389 16.7971 28.499 17.6351 28.499 18.5001C28.499 19.3651 28.389 20.2031 28.183 21.0041C27.6305 20.9748 27.0806 21.099 26.5942 21.3628C26.1078 21.6266 25.7039 22.0198 25.427 22.4988C25.1502 22.9779 25.0112 23.5242 25.0255 24.0774C25.0398 24.6305 25.2068 25.1689 25.508 25.6331C24.2991 26.8225 22.8072 27.6846 21.173 28.1381C20.922 27.6446 20.5394 27.2302 20.0674 26.9408C19.5955 26.6513 19.0526 26.4981 18.499 26.4981C17.9454 26.4981 17.4025 26.6513 16.9306 26.9408C16.4586 27.2302 16.076 27.6446 15.825 28.1381C14.1908 27.6846 12.6989 26.8225 11.49 25.6331C11.7915 25.1689 11.9587 24.6304 11.9732 24.0771C11.9876 23.5238 11.8487 22.9773 11.5718 22.498C11.2949 22.0188 10.8909 21.6255 10.4043 21.3616C9.91776 21.0978 9.3677 20.9737 8.815 21.0031C8.61 20.2041 8.5 19.3661 8.5 18.5001ZM13.304 21.5001C13.934 22.5911 14.114 23.8461 13.868 25.0241C14.276 25.3141 14.71 25.5651 15.165 25.7741C16.0817 24.9529 17.2693 24.4992 18.5 24.5001C19.76 24.5001 20.938 24.9711 21.835 25.7741C22.29 25.5651 22.724 25.3141 23.132 25.0241C22.8794 23.82 23.0803 22.5651 23.696 21.5001C24.3106 20.4344 25.297 19.6332 26.466 19.2501C26.5122 18.7511 26.5122 18.249 26.466 17.7501C25.2966 17.3671 24.3099 16.5659 23.695 15.5001C23.0793 14.435 22.8784 13.1801 23.131 11.9761C22.7231 11.686 22.2889 11.4349 21.834 11.2261C20.9176 12.047 19.7303 12.5007 18.5 12.5001C17.2693 12.5009 16.0817 12.0472 15.165 11.2261C14.7101 11.4349 14.2759 11.686 13.868 11.9761C14.1206 13.1801 13.9197 14.435 13.304 15.5001C12.6894 16.5657 11.703 17.3669 10.534 17.7501C10.4878 18.249 10.4878 18.7511 10.534 19.2501C11.7034 19.633 12.6891 20.4342 13.304 21.5001ZM18.5 21.5001C17.7044 21.5001 16.9413 21.184 16.3787 20.6214C15.8161 20.0588 15.5 19.2957 15.5 18.5001C15.5 17.7044 15.8161 16.9413 16.3787 16.3787C16.9413 15.8161 17.7044 15.5001 18.5 15.5001C19.2956 15.5001 20.0587 15.8161 20.6213 16.3787C21.1839 16.9413 21.5 17.7044 21.5 18.5001C21.5 19.2957 21.1839 20.0588 20.6213 20.6214C20.0587 21.184 19.2956 21.5001 18.5 21.5001ZM18.5 19.5001C18.7652 19.5001 19.0196 19.3947 19.2071 19.2072C19.3946 19.0196 19.5 18.7653 19.5 18.5001C19.5 18.2348 19.3946 17.9805 19.2071 17.793C19.0196 17.6054 18.7652 17.5001 18.5 17.5001C18.2348 17.5001 17.9804 17.6054 17.7929 17.793C17.6054 17.9805 17.5 18.2348 17.5 18.5001C17.5 18.7653 17.6054 19.0196 17.7929 19.2072C17.9804 19.3947 18.2348 19.5001 18.5 19.5001Z" fill="#0E6C51"/>
</g>
</g>
<defs>
<clipPath id="clip0_1_2243">
<rect width="36" height="36" fill="white" transform="translate(0.5 0.5)"/>
</clipPath>
</defs>
</svg>
