<svg width="41" height="41" viewBox="0 0 41 41" fill="none" xmlns="http://www.w3.org/2000/svg">
<g clip-path="url(#clip0_1_2222)">
<path d="M20.5 40C31.2696 40 40 31.2696 40 20.5C40 9.73045 31.2696 1 20.5 1C9.73045 1 1 9.73045 1 20.5C1 31.2696 9.73045 40 20.5 40Z" fill="white" stroke="#F6F6F6"/>
<path d="M23.6392 20.3125C23.2388 20.0554 22.8042 19.8559 22.3482 19.7198C22.0684 19.6352 21.7587 19.5524 21.4378 19.4726C21.1587 19.3948 20.8265 19.315 20.4156 19.2246C19.9263 19.1221 19.4461 18.9804 18.9796 18.8008C18.7392 18.7073 18.5271 18.5532 18.3639 18.3536C18.2447 18.1903 18.1882 17.9896 18.2047 17.7881C18.2042 17.572 18.276 17.362 18.4088 17.1914C18.5951 16.9729 18.8368 16.8087 19.1085 16.7159C19.5662 16.5586 20.0486 16.4855 20.5323 16.5C20.906 16.4941 21.2785 16.5434 21.6377 16.6465C21.8763 16.7133 22.101 16.8221 22.3013 16.9678C22.4308 17.0601 22.5412 17.1765 22.6265 17.3106C22.6885 17.4266 22.7727 17.5293 22.8744 17.6127C22.9762 17.6961 23.0933 17.7587 23.2193 17.7967C23.3452 17.8348 23.4774 17.8476 23.6083 17.8344C23.7392 17.8213 23.8662 17.7824 23.982 17.7201C24.0979 17.6578 24.2003 17.5732 24.2834 17.4712C24.3665 17.3693 24.4286 17.2519 24.4663 17.1258C24.5039 16.9998 24.5163 16.8676 24.5027 16.7367C24.4892 16.6059 24.4499 16.479 24.3873 16.3633C24.1763 15.9903 23.8913 15.6643 23.5498 15.4053C23.1556 15.1024 22.7084 14.8756 22.231 14.7364C21.6797 14.5734 21.1071 14.4937 20.5323 14.5C19.8018 14.4845 19.0748 14.6034 18.3873 14.8506C17.7653 15.0764 17.2187 15.4715 16.8091 15.9913C16.4172 16.5083 16.2049 17.1393 16.2046 17.7881C16.1884 18.4341 16.3931 19.0662 16.7847 19.5801C17.1628 20.0564 17.6584 20.4259 18.2227 20.6524C18.6491 20.8164 19.0857 20.9527 19.5298 21.0603C19.5381 21.063 19.5438 21.0698 19.5523 21.0723C19.7437 21.1299 20.0499 21.2071 20.4922 21.3028C20.6646 21.3398 20.827 21.3806 20.9894 21.4212C21.0051 21.4259 21.0279 21.4309 21.043 21.4356L21.0611 21.4383C21.3094 21.5016 21.5482 21.567 21.7667 21.6338C22.0359 21.7124 22.293 21.8281 22.5303 21.9776C22.678 22.0706 22.802 22.1966 22.8926 22.3457C22.9808 22.5276 23.0216 22.7289 23.0113 22.9307C23.0253 23.1921 22.9498 23.4504 22.7974 23.6632C22.5914 23.9311 22.3128 24.1341 21.9947 24.2482C21.5211 24.4309 21.0157 24.5165 20.5083 24.5C19.9212 24.5228 19.3371 24.4049 18.8047 24.1563C18.5591 24.0254 18.348 23.8379 18.189 23.6094C18.0775 23.4631 18.0078 23.2893 17.9873 23.1065C17.9873 22.8413 17.882 22.5869 17.6945 22.3994C17.5069 22.2119 17.2526 22.1065 16.9873 22.1065C16.7221 22.1065 16.4678 22.2119 16.2802 22.3994C16.0927 22.5869 15.9873 22.8413 15.9873 23.1065C16.0041 23.6962 16.1979 24.2671 16.5435 24.7452C16.8889 25.243 17.3492 25.6503 17.8853 25.9327C18.701 26.3308 19.601 26.5255 20.5083 26.5C21.2793 26.5186 22.046 26.3807 22.7623 26.0948C23.428 25.8394 24.0061 25.3977 24.4273 24.8223C24.8275 24.2613 25.0325 23.5844 25.0107 22.8956C25.0201 22.3616 24.8909 21.8344 24.6357 21.3653C24.3895 20.942 24.0484 20.5816 23.6392 20.3125ZM30.8614 22.1915C31.1313 20.5478 31.006 18.8634 30.4958 17.2777C29.9855 15.6921 29.1051 14.2507 27.9272 13.0729C26.7494 11.895 25.308 11.0146 23.7224 10.5043C22.1367 9.99411 20.4523 9.86878 18.8086 10.1387C17.5953 9.55698 16.2312 9.36623 14.9048 9.59278C13.5784 9.81933 12.355 10.452 11.4035 11.4035C10.452 12.355 9.81933 13.5784 9.59278 14.9048C9.36623 16.2312 9.55698 17.5953 10.1387 18.8086C9.86878 20.4523 9.99411 22.1367 10.5043 23.7224C11.0146 25.308 11.895 26.7494 13.0729 27.9272C14.2507 29.1051 15.6921 29.9855 17.2777 30.4958C18.8634 31.006 20.5478 31.1313 22.1915 30.8614C23.4048 31.4431 24.7689 31.6339 26.0953 31.4073C27.4217 31.1808 28.6451 30.5481 29.5966 29.5966C30.5481 28.6451 31.1808 27.4217 31.4073 26.0953C31.6339 24.7689 31.4431 23.4048 30.8614 22.1915ZM25 29.5C24.2415 29.4998 23.4953 29.308 22.8306 28.9424C22.6244 28.8286 22.3846 28.7909 22.1534 28.836C20.9209 29.0818 19.6493 29.0511 18.4302 28.7459C17.211 28.4408 16.0748 27.8688 15.1035 27.0714C14.1322 26.2739 13.35 25.2708 12.8133 24.1345C12.2767 22.9981 11.9989 21.7568 12 20.5C12.0011 19.9446 12.056 19.3906 12.1641 18.8457C12.2093 18.6147 12.1718 18.3752 12.0582 18.169C11.5881 17.3151 11.4081 16.3317 11.5452 15.3666C11.6823 14.4016 12.1291 13.5071 12.8183 12.8179C13.5076 12.1286 14.402 11.6819 15.367 11.5448C16.3321 11.4077 17.3155 11.5877 18.1695 12.0577C18.3756 12.1719 18.6155 12.2096 18.8467 12.1641C20.0792 11.9183 21.3508 11.949 22.5699 12.2542C23.7891 12.5593 24.9253 13.1313 25.8966 13.9287C26.8679 14.7262 27.6501 15.7293 28.1868 16.8656C28.7234 18.002 29.0012 19.2433 29 20.5C28.999 21.0555 28.9441 21.6095 28.836 22.1543C28.7908 22.3854 28.8284 22.6249 28.942 22.8311C29.3193 23.5162 29.5115 24.2878 29.4996 25.0698C29.4877 25.8518 29.2721 26.6172 28.8741 27.2905C28.4762 27.9638 27.9096 28.5217 27.2302 28.9091C26.5508 29.2966 25.7822 29.5003 25 29.5Z" fill="#0E6C51"/>
</g>
<defs>
<clipPath id="clip0_1_2222">
<rect width="40" height="40" fill="white" transform="translate(0.5 0.5)"/>
</clipPath>
</defs>
</svg>
