<svg width="41" height="41" viewBox="0 0 41 41" fill="none" xmlns="http://www.w3.org/2000/svg">
<g clip-path="url(#clip0_1_2163)">
<path d="M20.5 40C31.2696 40 40 31.2696 40 20.5C40 9.73045 31.2696 1 20.5 1C9.73045 1 1 9.73045 1 20.5C1 31.2696 9.73045 40 20.5 40Z" fill="white" stroke="#F6F6F6"/>
<path d="M20.5 20.5C22.9752 20.5 25 18.475 25 16C25 13.525 22.9752 11.5 20.5 11.5C18.0248 11.5 16 13.525 16 16C16 18.475 18.0248 20.5 20.5 20.5ZM20.5 22.75C17.5188 22.75 11.5 24.2688 11.5 27.25V29.5H29.5V27.25C29.5 24.2688 23.4812 22.75 20.5 22.75Z" fill="#999999"/>
</g>
<defs>
<clipPath id="clip0_1_2163">
<rect width="40" height="40" fill="white" transform="translate(0.5 0.5)"/>
</clipPath>
</defs>
</svg>
