<svg width="37" height="37" viewBox="0 0 37 37" fill="none" xmlns="http://www.w3.org/2000/svg">
<g clip-path="url(#clip0_1_2329)">
<path d="M18.5 36C28.165 36 36 28.165 36 18.5C36 8.83502 28.165 1 18.5 1C8.83502 1 1 8.83502 1 18.5C1 28.165 8.83502 36 18.5 36Z" fill="white" stroke="#F6F6F6"/>
<path d="M27.2563 30.5H9.74378C9.26378 30.5 8.87378 30.11 8.87378 29.63V7.37C8.87378 6.89 9.26378 6.5 9.74378 6.5H23.54C23.7725 6.5 23.99 6.59 24.155 6.755L27.8713 10.4712C28.0363 10.6325 28.1263 10.8537 28.1263 11.0862V29.63C28.1263 30.11 27.7363 30.5 27.2563 30.5ZM10.6138 28.76H26.3863V11.4462L23.18 8.24H10.6138V28.76Z" fill="#0E6C51"/>
<path d="M22.5762 13.6287H14.4237C13.9437 13.6287 13.5537 13.2387 13.5537 12.7587C13.5537 12.2787 13.9437 11.8887 14.4237 11.8887H22.5762C23.0562 11.8887 23.4462 12.2787 23.4462 12.7587C23.4462 13.2387 23.0562 13.6287 22.5762 13.6287ZM22.5762 17.4574H14.4237C13.9437 17.4574 13.5537 17.0674 13.5537 16.5874C13.5537 16.1074 13.9437 15.7174 14.4237 15.7174H22.5762C23.0562 15.7174 23.4462 16.1074 23.4462 16.5874C23.4462 17.0674 23.0562 17.4574 22.5762 17.4574ZM22.5762 21.2824H14.4237C13.9437 21.2824 13.5537 20.8924 13.5537 20.4124C13.5537 19.9324 13.9437 19.5424 14.4237 19.5424H22.5762C23.0562 19.5424 23.4462 19.9324 23.4462 20.4124C23.4462 20.8924 23.0562 21.2824 22.5762 21.2824ZM22.5762 25.1074H14.4237C13.9437 25.1074 13.5537 24.7174 13.5537 24.2374C13.5537 23.7574 13.9437 23.3674 14.4237 23.3674H22.5762C23.0562 23.3674 23.4462 23.7574 23.4462 24.2374C23.4462 24.7174 23.0562 25.1074 22.5762 25.1074Z" fill="#0E6C51"/>
</g>
<defs>
<clipPath id="clip0_1_2329">
<rect width="36" height="36" fill="white" transform="translate(0.5 0.5)"/>
</clipPath>
</defs>
</svg>
