<svg width="41" height="41" viewBox="0 0 41 41" fill="none" xmlns="http://www.w3.org/2000/svg">
<g clip-path="url(#clip0_1_2291)">
<path d="M20.5 40C31.2696 40 40 31.2696 40 20.5C40 9.73045 31.2696 1 20.5 1C9.73045 1 1 9.73045 1 20.5C1 31.2696 9.73045 40 20.5 40Z" fill="white" stroke="#E6E6E6"/>
<path d="M11.7 19.7001L19.42 12.6761C19.715 12.4062 20.1002 12.2566 20.5 12.2566C20.8998 12.2566 21.2851 12.4062 21.58 12.6761L29.3 19.7001" stroke="#0E6C51" stroke-width="2" stroke-linecap="round" stroke-linejoin="round"/>
<path d="M13.3 18.1001V27.7001C13.3 27.9123 13.3843 28.1158 13.5343 28.2658C13.6843 28.4158 13.8878 28.5001 14.1 28.5001H18.1V22.1001H22.9V28.5001H26.9C27.1122 28.5001 27.3156 28.4158 27.4657 28.2658C27.6157 28.1158 27.7 27.9123 27.7 27.7001V18.1001" stroke="#0E6C51" stroke-width="2" stroke-linejoin="round"/>
</g>
<defs>
<clipPath id="clip0_1_2291">
<rect width="40" height="40" fill="white" transform="translate(0.5 0.5)"/>
</clipPath>
</defs>
</svg>
