<svg width="41" height="42" viewBox="0 0 41 42" fill="none" xmlns="http://www.w3.org/2000/svg">
<g clip-path="url(#clip0_1_2214)">
<path d="M3.40137 29.5134H32.4147V32.4147H3.40137V29.5134ZM6.3027 17.908H9.20404V28.0627H6.3027V17.908ZM13.556 17.908H16.4574V28.0627H13.556V17.908ZM19.3587 17.908H22.26V28.0627H19.3587V17.908ZM26.612 17.908H29.5134V28.0627H26.612V17.908ZM3.40137 10.6547L17.908 3.40137L32.4147 10.6547V16.4574H3.40137V10.6547ZM17.908 12.1054C18.7092 12.1054 19.3587 11.4559 19.3587 10.6547C19.3587 9.85353 18.7092 9.20404 17.908 9.20404C17.1068 9.20404 16.4574 9.85353 16.4574 10.6547C16.4574 11.4559 17.1068 12.1054 17.908 12.1054Z" fill="#EF4444"/>
<path d="M30.2386 40.9999C35.3809 40.9999 39.5495 36.8312 39.5495 31.689C39.5495 26.5467 35.3809 22.3781 30.2386 22.3781C25.0963 22.3781 20.9277 26.5467 20.9277 31.689C20.9277 36.8312 25.0963 40.9999 30.2386 40.9999Z" fill="#EF4444" stroke="white"/>
<path d="M29.6824 31.2983H30.7266H33.8592V32.4229H30.7266H29.6824H26.5498V31.2983H29.6824Z" fill="white"/>
</g>
<defs>
<clipPath id="clip0_1_2214">
<rect width="40" height="41" fill="white" transform="translate(0.5 0.5)"/>
</clipPath>
</defs>
</svg>
