<svg width="27" height="27" viewBox="0 0 27 27" fill="none" xmlns="http://www.w3.org/2000/svg">
<g clip-path="url(#clip0_1_2285)">
<path d="M13.5 26C20.4036 26 26 20.4036 26 13.5C26 6.59644 20.4036 1 13.5 1C6.59644 1 1 6.59644 1 13.5C1 20.4036 6.59644 26 13.5 26Z" fill="white" stroke="#E6E6E6"/>
<path d="M13.625 5.375H13.375C8.95672 5.375 5.375 8.95672 5.375 13.375V13.625C5.375 18.0433 8.95672 21.625 13.375 21.625H13.625C18.0433 21.625 21.625 18.0433 21.625 13.625V13.375C21.625 8.95672 18.0433 5.375 13.625 5.375Z" fill="white"/>
<path d="M18.9505 12.823H8.04948C7.69423 12.823 7.40625 13.111 7.40625 13.4662V13.5339C7.40625 13.8892 7.69423 14.1772 8.04948 14.1772H18.9505C19.3058 14.1772 19.5938 13.8892 19.5938 13.5339V13.4662C19.5938 13.111 19.3058 12.823 18.9505 12.823Z" fill="#0E6C51"/>
<path d="M18.9505 16.2083H8.04948C7.69423 16.2083 7.40625 16.4962 7.40625 16.8515V16.9192C7.40625 17.2744 7.69423 17.5624 8.04948 17.5624H18.9505C19.3058 17.5624 19.5938 17.2744 19.5938 16.9192V16.8515C19.5938 16.4962 19.3058 16.2083 18.9505 16.2083Z" fill="#0E6C51"/>
<path d="M18.9505 9.4375H8.04948C7.69423 9.4375 7.40625 9.72548 7.40625 10.0807V10.1484C7.40625 10.5037 7.69423 10.7917 8.04948 10.7917H18.9505C19.3058 10.7917 19.5938 10.5037 19.5938 10.1484V10.0807C19.5938 9.72548 19.3058 9.4375 18.9505 9.4375Z" fill="#0E6C51"/>
</g>
<defs>
<clipPath id="clip0_1_2285">
<rect width="26" height="26" fill="white" transform="translate(0.5 0.5)"/>
</clipPath>
</defs>
</svg>
