<svg width="37" height="37" viewBox="0 0 37 37" fill="none" xmlns="http://www.w3.org/2000/svg">
<g clip-path="url(#clip0_1_2113)">
<path d="M18.5 36C28.165 36 36 28.165 36 18.5C36 8.83502 28.165 1 18.5 1C8.83502 1 1 8.83502 1 18.5C1 28.165 8.83502 36 18.5 36Z" fill="white" stroke="#F6F6F6"/>
<mask id="mask0_1_2113" style="mask-type:luminance" maskUnits="userSpaceOnUse" x="6" y="6" width="25" height="25">
<path d="M30.5 6.5H6.5V30.5H30.5V6.5Z" fill="white"/>
</mask>
<g mask="url(#mask0_1_2113)">
<path d="M18.49 8.5C12.97 8.5 8.5 12.98 8.5 18.5C8.5 24.02 12.97 28.5 18.49 28.5C24.02 28.5 28.5 24.02 28.5 18.5C28.5 12.98 24.02 8.5 18.49 8.5ZM25.42 14.5H22.47C22.15 13.25 21.69 12.05 21.09 10.94C22.93 11.57 24.46 12.85 25.42 14.5ZM18.5 10.54C19.33 11.74 19.98 13.07 20.41 14.5H16.59C17.02 13.07 17.67 11.74 18.5 10.54ZM10.76 20.5C10.6 19.86 10.5 19.19 10.5 18.5C10.5 17.81 10.6 17.14 10.76 16.5H14.14C14.06 17.16 14 17.82 14 18.5C14 19.18 14.06 19.84 14.14 20.5H10.76ZM11.58 22.5H14.53C14.85 23.75 15.31 24.95 15.91 26.06C14.07 25.43 12.54 24.16 11.58 22.5ZM14.53 14.5H11.58C12.54 12.84 14.07 11.57 15.91 10.94C15.31 12.05 14.85 13.25 14.53 14.5ZM18.5 26.46C17.67 25.26 17.02 23.93 16.59 22.5H20.41C19.98 23.93 19.33 25.26 18.5 26.46ZM20.84 20.5H16.16C16.07 19.84 16 19.18 16 18.5C16 17.82 16.07 17.15 16.16 16.5H20.84C20.93 17.15 21 17.82 21 18.5C21 19.18 20.93 19.84 20.84 20.5ZM21.09 26.06C21.69 24.95 22.15 23.75 22.47 22.5H25.42C24.46 24.15 22.93 25.43 21.09 26.06ZM22.86 20.5C22.94 19.84 23 19.18 23 18.5C23 17.82 22.94 17.16 22.86 16.5H26.24C26.4 17.14 26.5 17.81 26.5 18.5C26.5 19.19 26.4 19.86 26.24 20.5H22.86Z" fill="#0E6C51"/>
</g>
</g>
<defs>
<clipPath id="clip0_1_2113">
<rect width="36" height="36" fill="white" transform="translate(0.5 0.5)"/>
</clipPath>
</defs>
</svg>
