<svg width="41" height="41" viewBox="0 0 41 41" fill="none" xmlns="http://www.w3.org/2000/svg">
<g clip-path="url(#clip0_1_2166)">
<path d="M20.5 40C31.2696 40 40 31.2696 40 20.5C40 9.73045 31.2696 1 20.5 1C9.73045 1 1 9.73045 1 20.5C1 31.2696 9.73045 40 20.5 40Z" fill="white" stroke="#F6F6F6"/>
<mask id="mask0_1_2166" style="mask-type:luminance" maskUnits="userSpaceOnUse" x="8" y="8" width="25" height="25">
<path d="M32.5 8.5H8.5V32.5H32.5V8.5Z" fill="white"/>
</mask>
<g mask="url(#mask0_1_2166)">
<path d="M29.5 24.92V28.456C29.5001 28.7092 29.4042 28.953 29.2316 29.1382C29.059 29.3234 28.8226 29.4363 28.57 29.454C28.133 29.484 27.776 29.5 27.5 29.5C18.663 29.5 11.5 22.337 11.5 13.5C11.5 13.224 11.515 12.867 11.546 12.43C11.5637 12.1774 11.6766 11.941 11.8618 11.7684C12.047 11.5958 12.2908 11.4999 12.544 11.5H16.08C16.204 11.4999 16.3237 11.5459 16.4157 11.629C16.5078 11.7122 16.5656 11.8266 16.578 11.95C16.601 12.18 16.622 12.363 16.642 12.502C16.8407 13.8889 17.248 15.2378 17.85 16.503C17.945 16.703 17.883 16.942 17.703 17.07L15.545 18.612C16.8645 21.6865 19.3145 24.1365 22.389 25.456L23.929 23.302C23.9919 23.214 24.0838 23.1509 24.1885 23.1237C24.2932 23.0964 24.4042 23.1068 24.502 23.153C25.767 23.7539 27.1156 24.1601 28.502 24.358C28.641 24.378 28.824 24.4 29.052 24.422C29.1752 24.4346 29.2894 24.4926 29.3724 24.5846C29.4553 24.6766 29.5002 24.7961 29.5 24.92Z" fill="#0E6C51"/>
</g>
</g>
<defs>
<clipPath id="clip0_1_2166">
<rect width="40" height="40" fill="white" transform="translate(0.5 0.5)"/>
</clipPath>
</defs>
</svg>
