<svg width="41" height="41" viewBox="0 0 41 41" fill="none" xmlns="http://www.w3.org/2000/svg">
<g clip-path="url(#clip0_1_2110)">
<path d="M20.5 40C31.2696 40 40 31.2696 40 20.5C40 9.73045 31.2696 1 20.5 1C9.73045 1 1 9.73045 1 20.5C1 31.2696 9.73045 40 20.5 40Z" fill="white" stroke="#F6F6F6"/>
<path d="M21.2498 24.2875C24.5278 24.2358 27.7327 23.3116 30.5348 21.61V26.8075C30.5348 27.6031 30.2188 28.3662 29.6562 28.9288C29.0936 29.4914 28.3305 29.8075 27.5348 29.8075H13.4648C12.6692 29.8075 11.9061 29.4914 11.3435 28.9288C10.7809 28.3662 10.4648 27.6031 10.4648 26.8075V21.61C13.267 23.3116 16.4719 24.2358 19.7498 24.2875V24.7075C19.7498 24.9064 19.8289 25.0972 19.9695 25.2378C20.1102 25.3785 20.3009 25.4575 20.4998 25.4575C20.6988 25.4575 20.8895 25.3785 21.0302 25.2378C21.1708 25.0972 21.2498 24.9064 21.2498 24.7075V24.2875ZM30.5348 17.0725V19.8175C29.1623 20.725 29.4923 20.5225 29.0348 20.7925C26.3963 22.1485 23.4662 22.8386 20.4998 22.8025C17.5335 22.8386 14.6033 22.1485 11.9648 20.7925C11.4698 20.4925 11.8823 20.7475 10.4648 19.8175V17.0725C10.4648 16.2768 10.7809 15.5138 11.3435 14.9512C11.9061 14.3886 12.6692 14.0725 13.4648 14.0725H16.4648C16.7026 14.0736 16.9322 13.9857 17.1084 13.8261C17.2847 13.6665 17.3949 13.4467 17.4173 13.21C17.4751 12.6544 17.7374 12.1402 18.1532 11.7673C18.5691 11.3944 19.1088 11.1895 19.6673 11.1925H21.4223C21.9809 11.1895 22.5206 11.3944 22.9365 11.7673C23.3523 12.1402 23.6146 12.6544 23.6723 13.21C23.6948 13.4467 23.805 13.6665 23.9812 13.8261C24.1575 13.9857 24.3871 14.0736 24.6248 14.0725H27.6248C28.4048 14.0959 29.1449 14.4223 29.6882 14.9824C30.2315 15.5425 30.5352 16.2922 30.5348 17.0725ZM22.2848 14.0725C22.187 13.8488 22.1262 13.6107 22.1048 13.3675C22.0862 13.1819 21.999 13.0098 21.8603 12.885C21.7216 12.7602 21.5414 12.6916 21.3548 12.6925H19.6223C19.4358 12.6916 19.2555 12.7602 19.1169 12.885C18.9782 13.0098 18.891 13.1819 18.8723 13.3675C18.851 13.6107 18.7902 13.8488 18.6923 14.0725H22.2848Z" fill="#0E6C51"/>
</g>
<defs>
<clipPath id="clip0_1_2110">
<rect width="40" height="40" fill="white" transform="translate(0.5 0.5)"/>
</clipPath>
</defs>
</svg>
