<svg width="37" height="37" viewBox="0 0 37 37" fill="none" xmlns="http://www.w3.org/2000/svg">
<g clip-path="url(#clip0_1_2309)">
<path d="M18.5 36C28.165 36 36 28.165 36 18.5C36 8.83502 28.165 1 18.5 1C8.83502 1 1 8.83502 1 18.5C1 28.165 8.83502 36 18.5 36Z" fill="white" stroke="#F6F6F6"/>
<path d="M25.0906 18.4999L24.7953 14.3655C24.7156 13.2312 23.7688 12.3546 22.6344 12.3546H21.1391V10.5874H15.8609V12.3499H14.3656C13.2219 12.3499 12.2844 13.2312 12.2047 14.3608L11.9094 18.4952C10.6953 18.4952 9.71094 19.4796 9.71094 20.6937V24.6452H10.5922V26.403H13.2313V24.6452H23.7781V26.403H26.4172V24.6452H27.2938V20.6937C27.2891 19.4843 26.3047 18.4999 25.0906 18.4999ZM13.9578 14.4968C13.9766 14.2765 14.1594 14.1124 14.3703 14.1124H22.6344C22.8453 14.1124 23.0281 14.2812 23.0469 14.4968L23.3328 18.4999H13.6719L13.9578 14.4968ZM12.7859 22.8921C12.0594 22.8921 11.4688 22.3015 11.4688 21.5749C11.4688 20.8483 12.0594 20.2577 12.7859 20.2577C13.5125 20.2577 14.1031 20.8483 14.1031 21.5749C14.1078 22.3062 13.5172 22.8921 12.7859 22.8921ZM21.1391 22.8968H15.8656V21.139H21.1391V22.8968ZM24.2141 22.8921C23.4875 22.8921 22.8969 22.3015 22.8969 21.5749C22.8969 20.8483 23.4875 20.2577 24.2141 20.2577C24.9406 20.2577 25.5312 20.8483 25.5312 21.5749C25.5312 22.3062 24.9406 22.8921 24.2141 22.8921Z" fill="#0E6C51"/>
</g>
<defs>
<clipPath id="clip0_1_2309">
<rect width="36" height="36" fill="white" transform="translate(0.5 0.5)"/>
</clipPath>
</defs>
</svg>
