<svg width="37" height="37" viewBox="0 0 37 37" fill="none" xmlns="http://www.w3.org/2000/svg">
<g clip-path="url(#clip0_1_2319)">
<path d="M18.5 36C28.165 36 36 28.165 36 18.5C36 8.83502 28.165 1 18.5 1C8.83502 1 1 8.83502 1 18.5C1 28.165 8.83502 36 18.5 36Z" fill="white" stroke="#F6F6F6"/>
<mask id="mask0_1_2319" style="mask-type:luminance" maskUnits="userSpaceOnUse" x="6" y="6" width="25" height="25">
<path d="M30.5 6.5H6.5V30.5H30.5V6.5Z" fill="white"/>
</mask>
<g mask="url(#mask0_1_2319)">
<path d="M27.476 18.6511C27.2487 18.6511 27.0306 18.5608 26.8699 18.4C26.7091 18.2393 26.6188 18.0213 26.6188 17.7939V15.3254C26.651 14.8396 26.4906 14.3608 26.1723 13.9924C25.8541 13.6241 25.4035 13.396 24.9183 13.3574H10.0863C9.85894 13.3574 9.64092 13.267 9.48018 13.1063C9.31943 12.9456 9.22913 12.7275 9.22913 12.5002C9.22913 12.2729 9.31943 12.0549 9.48018 11.8941C9.64092 11.7334 9.85894 11.6431 10.0863 11.6431H24.9183C25.8599 11.677 26.7496 12.083 27.3923 12.772C28.0351 13.461 28.3783 14.3768 28.3468 15.3185V17.7871C28.3478 17.9014 28.3258 18.0147 28.2823 18.1204C28.2388 18.2261 28.1746 18.322 28.0934 18.4025C28.0123 18.483 27.9158 18.5465 27.8098 18.5892C27.7038 18.6319 27.5903 18.6529 27.476 18.6511Z" fill="#0E6C51"/>
<path d="M24.9183 29.5951H10.0863C9.1447 29.5611 8.25498 29.1551 7.61225 28.4661C6.96953 27.7771 6.62627 26.8613 6.65775 25.9196V10.4499C6.65775 10.2226 6.74806 10.0046 6.9088 9.84382C7.06955 9.68308 7.28756 9.59277 7.51489 9.59277C7.74222 9.59277 7.96024 9.68308 8.12098 9.84382C8.28173 10.0046 8.37204 10.2226 8.37204 10.4499V25.9196C8.33992 26.4046 8.50053 26.8827 8.81897 27.25C9.13742 27.6172 9.58794 27.8439 10.0726 27.8808H24.9183C25.403 27.8439 25.8535 27.6172 26.172 27.25C26.4904 26.8827 26.651 26.4046 26.6189 25.9196V24.1779C26.6189 23.9506 26.7092 23.7326 26.8699 23.5718C27.0307 23.4111 27.2487 23.3208 27.476 23.3208C27.7034 23.3208 27.9214 23.4111 28.0821 23.5718C28.2429 23.7326 28.3332 23.9506 28.3332 24.1779V25.9196C28.3647 26.8591 28.0233 27.7728 27.3835 28.4614C26.7438 29.15 25.8575 29.5576 24.9183 29.5951Z" fill="#0E6C51"/>
<path d="M24.5685 13.357C24.3436 13.3571 24.1276 13.2686 23.9672 13.1108C23.8069 12.9531 23.715 12.7385 23.7114 12.5136V10.6142C23.6953 10.2073 23.5191 9.82334 23.2211 9.54589C22.9231 9.26845 22.5275 9.12004 22.1205 9.13303H9.77767C9.42776 9.12004 9.08696 9.24625 8.82991 9.48402C8.57286 9.72179 8.42052 10.0517 8.40624 10.4016C8.42052 10.7515 8.57286 11.0814 8.82991 11.3192C9.08696 11.5569 9.42776 11.6832 9.77767 11.6702H17.3205C17.5479 11.6702 17.7659 11.7605 17.9266 11.9212C18.0874 12.082 18.1777 12.3 18.1777 12.5273C18.1777 12.7546 18.0874 12.9727 17.9266 13.1334C17.7659 13.2941 17.5479 13.3845 17.3205 13.3845H9.7571C9.3576 13.3908 8.96077 13.3183 8.58934 13.171C8.21791 13.0238 7.87918 12.8047 7.59255 12.5264C7.30591 12.248 7.07701 11.9158 6.91894 11.5489C6.76087 11.1819 6.67675 10.7874 6.67139 10.3879C6.68581 9.5834 7.01882 8.8175 7.59733 8.25827C8.17584 7.69905 8.95259 7.39218 9.7571 7.40503H22.1C22.5294 7.39594 22.9564 7.47189 23.3564 7.6285C23.7564 7.78512 24.1215 8.0193 24.4306 8.31758C24.7397 8.61586 24.9867 8.97233 25.1575 9.36648C25.3283 9.76062 25.4194 10.1847 25.4257 10.6142V12.5136C25.4221 12.7385 25.3302 12.9531 25.1698 13.1108C25.0095 13.2686 24.7935 13.3571 24.5685 13.357ZM28.0314 25.0142H23.2794C22.3512 25.0325 21.4536 24.6818 20.7838 24.039C20.114 23.3962 19.7266 22.5138 19.7068 21.5856V20.3445C19.7266 19.4163 20.114 18.5339 20.7838 17.8911C21.4536 17.2482 22.3512 16.8975 23.2794 16.9159H28.0794C28.3792 16.9168 28.676 16.9767 28.9527 17.0923C29.2294 17.2079 29.4806 17.3769 29.692 17.5895C29.9034 17.8022 30.0708 18.0544 30.1848 18.3318C30.2987 18.6092 30.3569 18.9063 30.356 19.2062V22.765C30.3451 23.3713 30.0943 23.9485 29.6586 24.3701C29.2228 24.7917 28.6377 25.0233 28.0314 25.0142ZM23.2794 18.637C22.8069 18.6184 22.3463 18.7876 21.9981 19.1075C21.6499 19.4274 21.4425 19.8721 21.4211 20.3445V21.6199C21.4425 22.0922 21.6499 22.5369 21.9981 22.8569C22.3463 23.1768 22.8069 23.3459 23.2794 23.3273H28.0314C28.1812 23.3273 28.3249 23.2683 28.4314 23.163C28.538 23.0578 28.5987 22.9148 28.6005 22.765V19.2062C28.5964 19.0693 28.54 18.9392 28.4428 18.8427C28.3914 18.789 28.3297 18.7461 28.2614 18.7167C28.193 18.6872 28.1195 18.6718 28.0451 18.6713L23.2794 18.637Z" fill="#0E6C51"/>
<path d="M23.7525 21.8393C24.2259 21.8393 24.6097 21.4555 24.6097 20.9821C24.6097 20.5088 24.2259 20.125 23.7525 20.125C23.2791 20.125 22.8954 20.5088 22.8954 20.9821C22.8954 21.4555 23.2791 21.8393 23.7525 21.8393Z" fill="#0E6C51"/>
</g>
</g>
<defs>
<clipPath id="clip0_1_2319">
<rect width="36" height="36" fill="white" transform="translate(0.5 0.5)"/>
</clipPath>
</defs>
</svg>
