<svg width="41" height="41" viewBox="0 0 41 41" fill="none" xmlns="http://www.w3.org/2000/svg">
<g clip-path="url(#clip0_1_2207)">
<path d="M20.5 40.5C31.5457 40.5 40.5 31.5457 40.5 20.5C40.5 9.4543 31.5457 0.5 20.5 0.5C9.4543 0.5 0.5 9.4543 0.5 20.5C0.5 31.5457 9.4543 40.5 20.5 40.5Z" fill="white"/>
<mask id="mask0_1_2207" style="mask-type:luminance" maskUnits="userSpaceOnUse" x="10" y="10" width="21" height="21">
<path d="M30.5 10.5H10.5V30.5H30.5V10.5Z" fill="white"/>
</mask>
<g mask="url(#mask0_1_2207)">
<path d="M11.4841 20.5C12.2675 16.2333 16.0066 13 20.5 13C24.9933 13 28.7316 16.2333 29.5158 20.5C28.7325 24.7667 24.9933 28 20.5 28C16.0066 28 12.2683 24.7667 11.4841 20.5ZM20.5 24.6667C21.605 24.6667 22.6648 24.2277 23.4462 23.4463C24.2276 22.6649 24.6666 21.6051 24.6666 20.5C24.6666 19.3949 24.2276 18.3351 23.4462 17.5537C22.6648 16.7723 21.605 16.3333 20.5 16.3333C19.3949 16.3333 18.3351 16.7723 17.5537 17.5537C16.7723 18.3351 16.3333 19.3949 16.3333 20.5C16.3333 21.6051 16.7723 22.6649 17.5537 23.4463C18.3351 24.2277 19.3949 24.6667 20.5 24.6667ZM20.5 23C19.8369 23 19.201 22.7366 18.7322 22.2678C18.2634 21.7989 18 21.163 18 20.5C18 19.837 18.2634 19.2011 18.7322 18.7322C19.201 18.2634 19.8369 18 20.5 18C21.163 18 21.7989 18.2634 22.2677 18.7322C22.7366 19.2011 23 19.837 23 20.5C23 21.163 22.7366 21.7989 22.2677 22.2678C21.7989 22.7366 21.163 23 20.5 23Z" fill="#0E6C51"/>
</g>
</g>
<defs>
<clipPath id="clip0_1_2207">
<rect width="40" height="40" fill="white" transform="translate(0.5 0.5)"/>
</clipPath>
</defs>
</svg>
