<svg width="61" height="61" viewBox="0 0 61 61" fill="none" xmlns="http://www.w3.org/2000/svg">
<g clip-path="url(#clip0_1_2280)">
<g filter="url(#filter0_d_1_2280)">
<path d="M30.5 48.5C41.5457 48.5 50.5 39.5457 50.5 28.5C50.5 17.4543 41.5457 8.5 30.5 8.5C19.4543 8.5 10.5 17.4543 10.5 28.5C10.5 39.5457 19.4543 48.5 30.5 48.5Z" fill="white"/>
</g>
<path d="M21.7002 27.7L29.4202 20.676C29.7151 20.4062 30.1004 20.2565 30.5002 20.2565C30.9 20.2565 31.2852 20.4062 31.5802 20.676L39.3002 27.7" stroke="#0E6C51" stroke-width="2" stroke-linecap="round" stroke-linejoin="round"/>
<path d="M23.2998 26.1V35.7C23.2998 35.9122 23.3841 36.1157 23.5341 36.2657C23.6841 36.4157 23.8876 36.5 24.0998 36.5H28.0998V30.1H32.8998V36.5H36.8998C37.112 36.5 37.3155 36.4157 37.4655 36.2657C37.6155 36.1157 37.6998 35.9122 37.6998 35.7V26.1" stroke="#0E6C51" stroke-width="2" stroke-linejoin="round"/>
</g>
<defs>
<filter id="filter0_d_1_2280" x="0.5" y="0.5" width="60" height="60" filterUnits="userSpaceOnUse" color-interpolation-filters="sRGB">
<feFlood flood-opacity="0" result="BackgroundImageFix"/>
<feColorMatrix in="SourceAlpha" type="matrix" values="0 0 0 0 0 0 0 0 0 0 0 0 0 0 0 0 0 0 127 0" result="hardAlpha"/>
<feOffset dy="2"/>
<feGaussianBlur stdDeviation="5"/>
<feComposite in2="hardAlpha" operator="out"/>
<feColorMatrix type="matrix" values="0 0 0 0 0 0 0 0 0 0 0 0 0 0 0 0 0 0 0.08 0"/>
<feBlend mode="normal" in2="BackgroundImageFix" result="effect1_dropShadow_1_2280"/>
<feBlend mode="normal" in="SourceGraphic" in2="effect1_dropShadow_1_2280" result="shape"/>
</filter>
<clipPath id="clip0_1_2280">
<rect width="60" height="60" fill="white" transform="translate(0.5 0.5)"/>
</clipPath>
</defs>
</svg>
