<svg width="61" height="61" viewBox="0 0 61 61" fill="none" xmlns="http://www.w3.org/2000/svg">
<g clip-path="url(#clip0_1_2180)">
<g filter="url(#filter0_d_1_2180)">
<path d="M30.5 48.5C41.5457 48.5 50.5 39.5457 50.5 28.5C50.5 17.4543 41.5457 8.5 30.5 8.5C19.4543 8.5 10.5 17.4543 10.5 28.5C10.5 39.5457 19.4543 48.5 30.5 48.5Z" fill="white"/>
</g>
<mask id="mask0_1_2180" style="mask-type:luminance" maskUnits="userSpaceOnUse" x="18" y="16" width="25" height="25">
<path d="M42.5 16.5H18.5V40.5H42.5V16.5Z" fill="white"/>
</mask>
<g mask="url(#mask0_1_2180)">
<path d="M31.6202 33.523L27.4212 31.233C26.873 31.8191 26.1612 32.2267 25.3783 32.4029C24.5954 32.5791 23.7776 32.5157 23.0311 32.221C22.2847 31.9263 21.6442 31.414 21.1928 30.7504C20.7414 30.0869 20.5 29.303 20.5 28.5005C20.5 27.698 20.7414 26.9141 21.1928 26.2506C21.6442 25.587 22.2847 25.0747 23.0311 24.78C23.7776 24.4853 24.5954 24.4219 25.3783 24.5981C26.1612 24.7743 26.873 25.1819 27.4212 25.768L31.6212 23.478C31.3828 22.5341 31.4968 21.5356 31.9418 20.6697C32.3869 19.8038 33.1325 19.13 34.0389 18.7745C34.9452 18.419 35.9501 18.4063 36.8652 18.7387C37.7803 19.0712 38.5427 19.7259 39.0095 20.5803C39.4764 21.4346 39.6156 22.4299 39.4011 23.3795C39.1866 24.3292 38.6332 25.168 37.8444 25.7388C37.0557 26.3096 36.0859 26.5731 35.1168 26.48C34.1477 26.3869 33.2458 25.9435 32.5802 25.233L28.3802 27.523C28.5414 28.1644 28.5414 28.8356 28.3802 29.477L32.5792 31.767C33.2448 31.0565 34.1467 30.6131 35.1158 30.52C36.0849 30.4269 37.0547 30.6904 37.8434 31.2612C38.6322 31.832 39.1856 32.6708 39.4001 33.6205C39.6146 34.5701 39.4754 35.5654 39.0085 36.4197C38.5417 37.2741 37.7793 37.9288 36.8642 38.2613C35.9491 38.5937 34.9442 38.581 34.0379 38.2255C33.1315 37.87 32.3859 37.1962 31.9408 36.3303C31.4958 35.4644 31.3818 34.4669 31.6202 33.523ZM24.5002 30.5C25.0306 30.5 25.5393 30.2893 25.9144 29.9142C26.2895 29.5391 26.5002 29.0304 26.5002 28.5C26.5002 27.9696 26.2895 27.4609 25.9144 27.0858C25.5393 26.7107 25.0306 26.5 24.5002 26.5C23.9698 26.5 23.4611 26.7107 23.086 27.0858C22.7109 27.4609 22.5002 27.9696 22.5002 28.5C22.5002 29.0304 22.7109 29.5391 23.086 29.9142C23.4611 30.2893 23.9698 30.5 24.5002 30.5ZM35.5002 24.5C36.0306 24.5 36.5393 24.2893 36.9144 23.9142C37.2895 23.5391 37.5002 23.0304 37.5002 22.5C37.5002 21.9696 37.2895 21.4609 36.9144 21.0858C36.5393 20.7107 36.0306 20.5 35.5002 20.5C34.9698 20.5 34.4611 20.7107 34.086 21.0858C33.7109 21.4609 33.5002 21.9696 33.5002 22.5C33.5002 23.0304 33.7109 23.5391 34.086 23.9142C34.4611 24.2893 34.9698 24.5 35.5002 24.5ZM35.5002 36.5C36.0306 36.5 36.5393 36.2893 36.9144 35.9142C37.2895 35.5391 37.5002 35.0304 37.5002 34.5C37.5002 33.9696 37.2895 33.4609 36.9144 33.0858C36.5393 32.7107 36.0306 32.5 35.5002 32.5C34.9698 32.5 34.4611 32.7107 34.086 33.0858C33.7109 33.4609 33.5002 33.9696 33.5002 34.5C33.5002 35.0304 33.7109 35.5391 34.086 35.9142C34.4611 36.2893 34.9698 36.5 35.5002 36.5Z" fill="#0E6C51"/>
</g>
</g>
<defs>
<filter id="filter0_d_1_2180" x="0.5" y="0.5" width="60" height="60" filterUnits="userSpaceOnUse" color-interpolation-filters="sRGB">
<feFlood flood-opacity="0" result="BackgroundImageFix"/>
<feColorMatrix in="SourceAlpha" type="matrix" values="0 0 0 0 0 0 0 0 0 0 0 0 0 0 0 0 0 0 127 0" result="hardAlpha"/>
<feOffset dy="2"/>
<feGaussianBlur stdDeviation="5"/>
<feComposite in2="hardAlpha" operator="out"/>
<feColorMatrix type="matrix" values="0 0 0 0 0 0 0 0 0 0 0 0 0 0 0 0 0 0 0.15 0"/>
<feBlend mode="normal" in2="BackgroundImageFix" result="effect1_dropShadow_1_2180"/>
<feBlend mode="normal" in="SourceGraphic" in2="effect1_dropShadow_1_2180" result="shape"/>
</filter>
<clipPath id="clip0_1_2180">
<rect width="60" height="60" fill="white" transform="translate(0.5 0.5)"/>
</clipPath>
</defs>
</svg>
