<svg width="29" height="29" viewBox="0 0 29 29" fill="none" xmlns="http://www.w3.org/2000/svg">
<g clip-path="url(#clip0_1_2260)">
<path d="M14.5 28.5C22.232 28.5 28.5 22.232 28.5 14.5C28.5 6.76801 22.232 0.5 14.5 0.5C6.76801 0.5 0.5 6.76801 0.5 14.5C0.5 22.232 6.76801 28.5 14.5 28.5Z" fill="#0E6C51"/>
<mask id="mask0_1_2260" style="mask-type:luminance" maskUnits="userSpaceOnUse" x="5" y="5" width="19" height="19">
<path d="M23.5 5.5H5.5V23.5H23.5V5.5Z" fill="white"/>
</mask>
<g mask="url(#mask0_1_2260)">
<path d="M7.75 18.5949V20.8749C7.75 21.0849 7.915 21.2499 8.125 21.2499H10.405C10.5025 21.2499 10.6 21.2124 10.6675 21.1374L18.8575 12.9549L16.045 10.1424L7.8625 18.3249C7.7875 18.3999 7.75 18.4899 7.75 18.5949ZM21.0325 10.7799C21.325 10.4874 21.325 10.0149 21.0325 9.72242L19.2775 7.96742C18.985 7.67492 18.5125 7.67492 18.22 7.96742L16.8475 9.33992L19.66 12.1524L21.0325 10.7799Z" fill="white"/>
</g>
</g>
<defs>
<clipPath id="clip0_1_2260">
<rect width="28" height="28" fill="white" transform="translate(0.5 0.5)"/>
</clipPath>
</defs>
</svg>
