<svg width="37" height="37" viewBox="0 0 37 37" fill="none" xmlns="http://www.w3.org/2000/svg">
<g clip-path="url(#clip0_1_2250)">
<path d="M18.5 36C28.165 36 36 28.165 36 18.5C36 8.83502 28.165 1 18.5 1C8.83502 1 1 8.83502 1 18.5C1 28.165 8.83502 36 18.5 36Z" fill="white" stroke="#F6F6F6"/>
<mask id="mask0_1_2250" style="mask-type:luminance" maskUnits="userSpaceOnUse" x="6" y="6" width="25" height="25">
<path d="M30.5 6.5H6.5V30.5H30.5V6.5Z" fill="white"/>
</mask>
<g mask="url(#mask0_1_2250)">
<path fill-rule="evenodd" clip-rule="evenodd" d="M20.9216 28.3076C20.9216 27.4781 20.2491 26.8056 19.4196 26.8056C18.8345 26.8056 18.1655 26.8056 17.5804 26.8056C17.1821 26.8056 16.8 26.9639 16.5184 27.2456C16.2367 27.5272 16.0784 27.9093 16.0784 28.3076C16.0784 29.1371 16.7509 29.8096 17.5804 29.8096C18.1655 29.8096 18.8345 29.8096 19.4196 29.8096C20.2491 29.8096 20.9216 29.1371 20.9216 28.3076ZM9.65755 24.4347C9.90842 24.4538 10.2119 24.4649 10.5168 24.447C10.6792 25.2707 11.0827 26.0346 11.685 26.637C12.4846 27.4365 13.5691 27.8857 14.6998 27.8857H15.2729C15.2477 28.024 15.2347 28.1652 15.2347 28.3076C15.2347 28.4517 15.2477 28.5927 15.2726 28.7295H14.6998C13.3453 28.7295 12.0462 28.1914 11.0884 27.2336C10.3243 26.4695 9.82728 25.4881 9.65755 24.4347ZM9.22836 23.5369C8.56222 23.4246 7.94234 23.1079 7.45845 22.6239C6.84477 22.0102 6.5 21.1779 6.5 20.31C6.5 19.6724 6.5 18.9534 6.5 18.3158C6.5 17.4479 6.84477 16.6155 7.45845 16.0019C8.07214 15.3882 8.9045 15.0434 9.77239 15.0434H9.99022C10.3384 10.6485 14.0154 7.19043 18.5 7.19043C22.9846 7.19043 26.6616 10.6485 27.0098 15.0434H27.2276C28.0955 15.0434 28.9279 15.3882 29.5415 16.0019C30.1552 16.6155 30.5 17.4479 30.5 18.3158V20.31C30.5 21.1779 30.1552 22.0102 29.5415 22.6239C28.9279 23.2377 28.0955 23.5824 27.2276 23.5824H26.2619C25.8614 23.5824 25.5368 23.2577 25.5368 22.8573V15.7272C25.5368 11.8409 22.3863 8.69043 18.5 8.69043C14.6137 8.69043 11.4632 11.8409 11.4632 15.7272C11.4632 15.7272 11.4632 20.9124 11.4632 22.8573C11.4632 23.14 11.3014 23.385 11.0652 23.5046C10.4151 23.7302 9.407 23.567 9.22836 23.5369Z" fill="#0E6C51"/>
</g>
</g>
<defs>
<clipPath id="clip0_1_2250">
<rect width="36" height="36" fill="white" transform="translate(0.5 0.5)"/>
</clipPath>
</defs>
</svg>
