<svg width="41" height="41" viewBox="0 0 41 41" fill="none" xmlns="http://www.w3.org/2000/svg">
<g clip-path="url(#clip0_1_2267)">
<path d="M20.5 40C31.2696 40 40 31.2696 40 20.5C40 9.73045 31.2696 1 20.5 1C9.73045 1 1 9.73045 1 20.5C1 31.2696 9.73045 40 20.5 40Z" fill="white" stroke="#F6F6F6"/>
<mask id="mask0_1_2267" style="mask-type:luminance" maskUnits="userSpaceOnUse" x="8" y="8" width="25" height="25">
<path d="M32.5 8.5H8.5V32.5H32.5V8.5Z" fill="white"/>
</mask>
<g mask="url(#mask0_1_2267)">
<path d="M12.5 16.5H28.5V29.5C28.5 29.7652 28.3946 30.0196 28.2071 30.2071C28.0196 30.3946 27.7652 30.5 27.5 30.5H13.5C13.2348 30.5 12.9804 30.3946 12.7929 30.2071C12.6054 30.0196 12.5 29.7652 12.5 29.5V16.5ZM14.5 18.5V28.5H26.5V18.5H14.5ZM17.5 20.5H19.5V26.5H17.5V20.5ZM21.5 20.5H23.5V26.5H21.5V20.5ZM15.5 13.5V11.5C15.5 11.2348 15.6054 10.9804 15.7929 10.7929C15.9804 10.6054 16.2348 10.5 16.5 10.5H24.5C24.7652 10.5 25.0196 10.6054 25.2071 10.7929C25.3946 10.9804 25.5 11.2348 25.5 11.5V13.5H30.5V15.5H10.5V13.5H15.5ZM17.5 12.5V13.5H23.5V12.5H17.5Z" fill="#EF4444"/>
</g>
</g>
<defs>
<clipPath id="clip0_1_2267">
<rect width="40" height="40" fill="white" transform="translate(0.5 0.5)"/>
</clipPath>
</defs>
</svg>
