<svg width="37" height="37" viewBox="0 0 37 37" fill="none" xmlns="http://www.w3.org/2000/svg">
<g clip-path="url(#clip0_1_2188)">
<path d="M18.5 36C28.165 36 36 28.165 36 18.5C36 8.83502 28.165 1 18.5 1C8.83502 1 1 8.83502 1 18.5C1 28.165 8.83502 36 18.5 36Z" fill="white" stroke="#F6F6F6"/>
<path d="M18.3185 30.0043C18.4377 30.0336 18.5623 30.0336 18.6815 30.0043C21.4161 29.3242 23.8442 27.7479 25.5784 25.5269C27.3127 23.3058 28.2532 20.568 28.25 17.7501V11.7501C28.25 11.5512 28.171 11.3604 28.0303 11.2198C27.8897 11.0791 27.6989 11.0001 27.5 11.0001C24.3462 10.8706 21.3424 9.61859 19.0303 7.46983C18.8896 7.32923 18.6989 7.25024 18.5 7.25024C18.3011 7.25024 18.1104 7.32923 17.9698 7.46983C14.495 10.9446 9.54801 11.0001 9.50001 11.0001C9.3011 11.0001 9.11033 11.0791 8.96968 11.2198C8.82903 11.3604 8.75001 11.5512 8.75001 11.7501V17.7501C8.74679 20.568 9.68732 23.3058 11.4216 25.5269C13.1558 27.7479 15.5839 29.3242 18.3185 30.0043ZM10.25 12.4596C13.2896 12.202 16.1734 11.0035 18.5 9.03058C20.8267 11.0035 23.7104 12.202 26.75 12.4596V17.7501C26.7527 20.2011 25.9451 22.5842 24.4531 24.5288C22.9611 26.4733 20.8682 27.8702 18.5 28.5021C16.1319 27.8702 14.039 26.4733 12.5469 24.5288C11.0549 22.5842 10.2474 20.2011 10.25 17.7501V12.4596Z" fill="#0E6C51"/>
<path d="M17.2198 21.2803C17.3617 21.4186 17.552 21.496 17.7501 21.496C17.9482 21.496 18.1384 21.4186 18.2803 21.2803L22.7803 16.7803C22.9169 16.6389 22.9925 16.4494 22.9908 16.2528C22.9891 16.0561 22.9102 15.868 22.7712 15.7289C22.6321 15.5899 22.444 15.511 22.2474 15.5093C22.0507 15.5076 21.8613 15.5832 21.7198 15.7198L17.7501 19.6896L16.0303 17.9698C15.8889 17.8332 15.6994 17.7576 15.5028 17.7593C15.3061 17.761 15.118 17.8399 14.9789 17.9789C14.8399 18.118 14.761 18.3061 14.7593 18.5028C14.7576 18.6994 14.8332 18.8889 14.9698 19.0303L17.2198 21.2803Z" fill="#0E6C51"/>
</g>
<defs>
<clipPath id="clip0_1_2188">
<rect width="36" height="36" fill="white" transform="translate(0.5 0.5)"/>
</clipPath>
</defs>
</svg>
