<svg width="19" height="19" viewBox="0 0 19 19" fill="none" xmlns="http://www.w3.org/2000/svg">
<g clip-path="url(#clip0_1_2335)">
<path d="M17.1557 7.83921C16.8851 7.68186 16.6419 7.48146 16.4357 7.24587C16.4566 6.91788 16.5347 6.59608 16.6666 6.29504C16.9091 5.61087 17.1832 4.83587 16.7432 4.23337C16.3032 3.63087 15.4724 3.65004 14.7432 3.66671C14.421 3.69986 14.0955 3.67788 13.7807 3.60171C13.613 3.3288 13.4932 3.02919 13.4266 2.71587C13.2199 2.01171 12.9841 1.21587 12.2599 0.97754C11.5616 0.75254 10.9149 1.24754 10.3432 1.68254C10.0966 1.9078 9.81073 2.08602 9.49989 2.20837C9.18581 2.08702 8.8968 1.90876 8.6474 1.68254C8.07739 1.25004 7.43323 0.75004 6.73156 0.978373C6.00906 1.21337 5.77323 2.01171 5.5649 2.71587C5.49834 3.02818 5.37974 3.32707 5.21406 3.60004C4.89866 3.676 4.57275 3.69854 4.2499 3.66671C3.51823 3.64671 2.69406 3.62504 2.2499 4.23337C1.80573 4.84171 2.08323 5.61087 2.32656 6.29421C2.46026 6.5948 2.53955 6.91674 2.56073 7.24504C2.35496 7.48094 2.11204 7.68163 1.84156 7.83921C1.23156 8.25587 0.539062 8.73004 0.539062 9.50004C0.539062 10.27 1.23156 10.7425 1.84156 11.1609C2.11198 11.3182 2.3549 11.5186 2.56073 11.7542C2.54178 12.0824 2.46475 12.4046 2.33323 12.7059C2.09156 13.3892 1.81823 14.1642 2.2574 14.7667C2.69656 15.3692 3.5249 15.35 4.2574 15.3334C4.57987 15.3002 4.90564 15.3222 5.22073 15.3984C5.38771 15.6716 5.50718 15.9711 5.57406 16.2842C5.78073 16.9884 6.01656 17.7842 6.74073 18.0225C6.85683 18.0598 6.97797 18.0789 7.0999 18.0792C7.6859 17.9951 8.23055 17.7286 8.65656 17.3175C8.90323 17.0923 9.18905 16.9141 9.49989 16.7917C9.81398 16.9131 10.103 17.0913 10.3524 17.3175C10.9232 17.7534 11.5699 18.2509 12.2691 18.0217C12.9916 17.7867 13.2274 16.9884 13.4357 16.285C13.5025 15.9721 13.622 15.6729 13.7891 15.4C14.1032 15.3235 14.4282 15.301 14.7499 15.3334C15.4816 15.3509 16.3057 15.375 16.7499 14.7667C17.1941 14.1584 16.9166 13.3892 16.6732 12.705C16.5404 12.4047 16.4612 12.0835 16.4391 11.7559C16.6449 11.5198 16.8882 11.319 17.1591 11.1617C17.7691 10.745 18.4616 10.27 18.4616 9.50004C18.4616 8.73004 17.7666 8.25671 17.1557 7.83921Z" fill="#49ADF4"/>
<path d="M8.6667 11.7918C8.58462 11.7919 8.50332 11.7758 8.42751 11.7443C8.3517 11.7128 8.28288 11.6667 8.22504 11.6084L6.55837 9.94175C6.44797 9.82327 6.38787 9.66657 6.39072 9.50465C6.39358 9.34273 6.45917 9.18824 6.57368 9.07373C6.68819 8.95922 6.84268 8.89363 7.0046 8.89077C7.16652 8.88791 7.32322 8.94802 7.4417 9.05842L8.72503 10.3418L11.625 8.16675C11.7576 8.06729 11.9243 8.02459 12.0884 8.04803C12.2525 8.07147 12.4006 8.15914 12.5 8.29175C12.5995 8.42436 12.6422 8.59104 12.6188 8.75514C12.5953 8.91923 12.5076 9.06729 12.375 9.16675L9.0417 11.6668C8.93349 11.7478 8.80192 11.7917 8.6667 11.7918Z" fill="white"/>
</g>
<defs>
<clipPath id="clip0_1_2335">
<rect width="18" height="18" fill="white" transform="translate(0.5 0.5)"/>
</clipPath>
</defs>
</svg>
