<svg width="41" height="41" viewBox="0 0 41 41" fill="none" xmlns="http://www.w3.org/2000/svg">
<g clip-path="url(#clip0_1_2228)">
<path d="M20.5 40C31.2696 40 40 31.2696 40 20.5C40 9.73045 31.2696 1 20.5 1C9.73045 1 1 9.73045 1 20.5C1 31.2696 9.73045 40 20.5 40Z" fill="white" stroke="#F6F6F6"/>
<path d="M28.5328 28.4949H12.4678C11.6227 28.4939 10.8125 28.1577 10.215 27.5602C9.61741 26.9626 9.28127 26.1525 9.28027 25.3074V15.6924C9.28127 14.8473 9.61741 14.0371 10.215 13.4396C10.8125 12.842 11.6227 12.5059 12.4678 12.5049H28.5328C29.3778 12.5059 30.188 12.842 30.7856 13.4396C31.3831 14.0371 31.7193 14.8473 31.7203 15.6924V25.3074C31.7193 26.1525 31.3831 26.9626 30.7856 27.5602C30.188 28.1577 29.3778 28.4939 28.5328 28.4949ZM12.4678 13.6299C11.9208 13.6299 11.3962 13.8472 11.0094 14.234C10.6226 14.6208 10.4053 15.1454 10.4053 15.6924V25.3074C10.4053 25.8544 10.6226 26.379 11.0094 26.7658C11.3962 27.1526 11.9208 27.3699 12.4678 27.3699H28.5328C29.0798 27.3699 29.6044 27.1526 29.9912 26.7658C30.378 26.379 30.5953 25.8544 30.5953 25.3074V15.6924C30.5953 15.1454 30.378 14.6208 29.9912 14.234C29.6044 13.8472 29.0798 13.6299 28.5328 13.6299H12.4678Z" fill="#0E6C51"/>
<path d="M20.5004 22.7798C19.8065 22.7809 19.1311 22.5558 18.5767 22.1386L9.82042 15.5161C9.75855 15.4727 9.70607 15.4172 9.66611 15.3531C9.62614 15.2889 9.59952 15.2174 9.58783 15.1427C9.57613 15.068 9.57961 14.9918 9.59805 14.9185C9.61648 14.8452 9.6495 14.7763 9.69514 14.7161C9.74077 14.6558 9.79807 14.6054 9.86363 14.5678C9.92919 14.5301 10.0017 14.5061 10.0767 14.4972C10.1518 14.4882 10.2278 14.4944 10.3004 14.5155C10.373 14.5366 10.4406 14.5721 10.4992 14.6198L19.2554 21.2498C19.615 21.5183 20.0517 21.6633 20.5004 21.6633C20.9491 21.6633 21.3858 21.5183 21.7454 21.2498L30.5017 14.6198C30.5602 14.5721 30.6278 14.5366 30.7004 14.5155C30.773 14.4944 30.8491 14.4882 30.9241 14.4972C30.9992 14.5061 31.0716 14.5301 31.1372 14.5678C31.2028 14.6054 31.2601 14.6558 31.3057 14.7161C31.3513 14.7763 31.3844 14.8452 31.4028 14.9185C31.4212 14.9918 31.4247 15.068 31.413 15.1427C31.4013 15.2174 31.3747 15.2889 31.3347 15.3531C31.2948 15.4172 31.2423 15.4727 31.1804 15.5161L22.4242 22.1386C21.8697 22.5558 21.1943 22.7809 20.5004 22.7798Z" fill="#0E6C51"/>
<path d="M10.0633 26.9277C9.94924 26.9279 9.8378 26.8934 9.7438 26.8287C9.64979 26.7641 9.57766 26.6724 9.53698 26.5658C9.4963 26.4592 9.48899 26.3428 9.51602 26.232C9.54305 26.1211 9.60314 26.0211 9.68833 25.9452L16.5883 19.7915C16.6997 19.692 16.8461 19.6409 16.9951 19.6493C17.1442 19.6578 17.2839 19.7251 17.3833 19.8365C17.4828 19.9479 17.5339 20.0942 17.5255 20.2433C17.517 20.3924 17.4497 20.532 17.3383 20.6315L10.4383 26.7852C10.3359 26.8785 10.2018 26.9294 10.0633 26.9277ZM30.9358 26.9277C30.7973 26.9294 30.6633 26.8785 30.5608 26.7852L23.6608 20.6315C23.5494 20.532 23.4821 20.3924 23.4737 20.2433C23.4652 20.0942 23.5164 19.9479 23.6158 19.8365C23.7153 19.7251 23.8549 19.6578 24.004 19.6493C24.1531 19.6409 24.2994 19.692 24.4108 19.7915L31.3071 25.9452C31.3923 26.0211 31.4524 26.1211 31.4794 26.232C31.5064 26.3428 31.4991 26.4592 31.4584 26.5658C31.4177 26.6724 31.3456 26.7641 31.2516 26.8287C31.1576 26.8934 31.0462 26.9279 30.9321 26.9277H30.9358Z" fill="#0E6C51"/>
</g>
<defs>
<clipPath id="clip0_1_2228">
<rect width="40" height="40" fill="white" transform="translate(0.5 0.5)"/>
</clipPath>
</defs>
</svg>
