<svg width="38" height="37" viewBox="0 0 38 37" fill="none" xmlns="http://www.w3.org/2000/svg">
<g clip-path="url(#clip0_1_2349)">
<path d="M19.2224 36C28.8874 36 36.7224 28.165 36.7224 18.5C36.7224 8.83502 28.8874 1 19.2224 1C9.55741 1 1.7224 8.83502 1.7224 18.5C1.7224 28.165 9.55741 36 19.2224 36Z" fill="white" stroke="#F6F6F6"/>
<mask id="mask0_1_2349" style="mask-type:luminance" maskUnits="userSpaceOnUse" x="8" y="7" width="23" height="23">
<path d="M30.2224 7.5H8.22241V29.5H30.2224V7.5Z" fill="white"/>
</mask>
<g mask="url(#mask0_1_2349)">
<path d="M30.2224 22.3887C30.2224 19.182 28.0617 16.3803 25.0148 15.536C24.8233 11.0724 21.1327 7.5 16.6228 7.5C11.9907 7.5 8.22241 11.2683 8.22241 15.9004C8.22241 17.41 8.62424 18.8798 9.38727 20.1702L8.2533 24.2697L12.353 23.1359C13.5391 23.8374 14.8772 24.2325 16.2582 24.2921C17.1023 27.3391 19.9042 29.5 23.1111 29.5C24.3911 29.5 25.6358 29.1591 26.7295 28.5114L30.1914 29.4689L29.2338 26.0071C29.8815 24.9134 30.2224 23.6687 30.2224 22.3887ZM12.5564 21.7421L10.1021 22.4211L10.7811 19.9668L10.6263 19.7248C9.89702 18.5838 9.51147 17.2613 9.51147 15.9004C9.51147 11.9792 12.7016 8.78906 16.6228 8.78906C20.544 8.78906 23.7341 11.9792 23.7341 15.9004C23.7341 19.8216 20.544 23.0117 16.6228 23.0117C15.2619 23.0117 13.9396 22.6262 12.7984 21.8969L12.5564 21.7421ZM28.3427 27.6203L26.5216 27.1164L26.2784 27.2747C25.3356 27.8872 24.2402 28.2109 23.1111 28.2109C20.5907 28.2109 18.376 26.5813 17.5913 24.2446C21.4507 23.7996 24.522 20.7283 24.9671 16.8687C27.3037 17.6535 28.9333 19.8683 28.9333 22.3887C28.9333 23.5178 28.6096 24.6131 27.9971 25.5559L27.8388 25.7991L28.3427 27.6203Z" fill="#0E6C51"/>
<path d="M15.9783 19.1445H17.2673V20.4336H15.9783V19.1445Z" fill="#0E6C51"/>
<path d="M17.9119 13.9453C17.9119 14.3114 17.7628 14.6493 17.4922 14.8968L15.9783 16.2826V17.8555H17.2673V16.8502L18.3625 15.8479C18.8953 15.3603 19.2009 14.6669 19.2009 13.9453C19.2009 12.5237 18.0445 11.3672 16.6228 11.3672C15.2011 11.3672 14.0447 12.5237 14.0447 13.9453H15.3337C15.3337 13.2345 15.912 12.6562 16.6228 12.6562C17.3336 12.6562 17.9119 13.2345 17.9119 13.9453Z" fill="#0E6C51"/>
</g>
</g>
<defs>
<clipPath id="clip0_1_2349">
<rect width="37" height="36" fill="white" transform="translate(0.5 0.5)"/>
</clipPath>
</defs>
</svg>
