<svg width="69" height="69" viewBox="0 0 69 69" fill="none" xmlns="http://www.w3.org/2000/svg">
<g clip-path="url(#clip0_1_2360)">
<path d="M34.0313 7.4375C28.7715 7.4375 23.6299 8.9972 19.2566 11.9194C14.8832 14.8415 11.4747 18.9949 9.46184 23.8543C7.44902 28.7136 6.92238 34.0607 7.9485 39.2194C8.97463 44.3781 11.5074 49.1167 15.2266 52.8359C18.9458 56.5551 23.6844 59.0879 28.8431 60.114C34.0018 61.1401 39.3489 60.6135 44.2082 58.6007C49.0676 56.5879 53.221 53.1793 56.1432 48.8059C59.0653 44.4326 60.625 39.291 60.625 34.0312C60.625 26.9781 57.8232 20.2139 52.8359 15.2266C47.8486 10.2393 41.0844 7.4375 34.0313 7.4375Z" fill="#EF4444"/>
<path d="M34.0313 0.5C27.3994 0.5 20.9165 2.46657 15.4023 6.15103C9.88811 9.83549 5.59033 15.0724 3.05243 21.1994C0.514528 27.3264 -0.149502 34.0684 1.14431 40.5729C2.43812 47.0773 5.63166 53.052 10.3211 57.7414C15.0105 62.4309 20.9852 65.6244 27.4896 66.9182C33.9941 68.212 40.7361 67.548 46.8631 65.0101C52.9902 62.4722 58.227 58.1744 61.9115 52.6602C65.5959 47.146 67.5625 40.6631 67.5625 34.0312C67.5625 25.1382 64.0298 16.6094 57.7414 10.3211C51.4531 4.03275 42.9243 0.5 34.0313 0.5ZM34.0313 65.25C27.8568 65.25 21.821 63.4191 16.6871 59.9887C11.5532 56.5583 7.55177 51.6826 5.1889 45.9781C2.82603 40.2737 2.20779 33.9966 3.41237 27.9408C4.61696 21.8849 7.59026 16.3223 11.9563 11.9563C16.3223 7.59024 21.8849 4.61694 27.9408 3.41236C33.9966 2.20778 40.2737 2.82601 45.9782 5.18889C51.6826 7.55176 56.5583 11.5531 59.9887 16.687C63.4191 21.8209 65.25 27.8568 65.25 34.0312C65.25 42.311 61.9609 50.2516 56.1063 56.1062C50.2516 61.9609 42.311 65.25 34.0313 65.25Z" fill="#EF4444"/>
</g>
<defs>
<clipPath id="clip0_1_2360">
<rect width="68" height="68" fill="white" transform="translate(0.5 0.5)"/>
</clipPath>
</defs>
</svg>
