<svg width="37" height="37" viewBox="0 0 37 37" fill="none" xmlns="http://www.w3.org/2000/svg">
<g clip-path="url(#clip0_1_2376)">
<path d="M18.5 36C28.165 36 36 28.165 36 18.5C36 8.83502 28.165 1 18.5 1C8.83502 1 1 8.83502 1 18.5C1 28.165 8.83502 36 18.5 36Z" fill="white" stroke="#F6F6F6"/>
<path d="M13.5 18.5C13.5 21.3 15.7 23.5 18.5 23.5C21.3 23.5 23.5 21.3 23.5 18.5C23.5 15.7 21.3 13.5 18.5 13.5C15.7 13.5 13.5 15.7 13.5 18.5ZM18.5 15.5C20.2 15.5 21.5 16.8 21.5 18.5C21.5 20.2 20.2 21.5 18.5 21.5C16.8 21.5 15.5 20.2 15.5 18.5C15.5 16.8 16.8 15.5 18.5 15.5ZM19.5 11.5V9.5C19.5 8.9 19.1 8.5 18.5 8.5C17.9 8.5 17.5 8.9 17.5 9.5V11.5C17.5 12.1 17.9 12.5 18.5 12.5C19.1 12.5 19.5 12.1 19.5 11.5ZM25.6 11.4C25.2 11 24.6 11 24.2 11.4L22.8 12.8C22.4 13.2 22.4 13.8 22.8 14.2C23 14.4 23.3 14.5 23.5 14.5C23.7 14.5 24 14.4 24.2 14.2L25.6 12.8C26 12.5 26 11.8 25.6 11.4ZM27.5 17.5H25.5C24.9 17.5 24.5 17.9 24.5 18.5C24.5 19.1 24.9 19.5 25.5 19.5H27.5C28.1 19.5 28.5 19.1 28.5 18.5C28.5 17.9 28.1 17.5 27.5 17.5ZM24.2 22.7C23.8 22.3 23.2 22.3 22.8 22.7C22.4 23.1 22.4 23.7 22.8 24.1L24.2 25.5C24.4 25.7 24.7 25.8 24.9 25.8C25.1 25.8 25.4 25.7 25.6 25.5C26 25.1 26 24.5 25.6 24.1L24.2 22.7ZM17.5 25.5V27.5C17.5 28.1 17.9 28.5 18.5 28.5C19.1 28.5 19.5 28.1 19.5 27.5V25.5C19.5 24.9 19.1 24.5 18.5 24.5C17.9 24.5 17.5 24.9 17.5 25.5ZM11.4 25.6C11.6 25.8 11.9 25.9 12.1 25.9C12.3 25.9 12.6 25.8 12.8 25.6L14.2 24.2C14.6 23.8 14.6 23.2 14.2 22.8C13.8 22.4 13.2 22.4 12.8 22.8L11.4 24.2C11 24.5 11 25.2 11.4 25.6ZM8.5 18.5C8.5 19.1 8.9 19.5 9.5 19.5H11.5C12.1 19.5 12.5 19.1 12.5 18.5C12.5 17.9 12.1 17.5 11.5 17.5H9.5C8.9 17.5 8.5 17.9 8.5 18.5ZM12.8 11.4C12.4 11 11.8 11 11.4 11.4C11 11.8 11 12.4 11.4 12.8L12.8 14.2C13 14.5 13.3 14.6 13.6 14.6C13.9 14.6 14.1 14.5 14.3 14.3C14.7 13.9 14.7 13.3 14.3 12.9L12.8 11.4Z" fill="#0E6C51"/>
</g>
<defs>
<clipPath id="clip0_1_2376">
<rect width="36" height="36" fill="white" transform="translate(0.5 0.5)"/>
</clipPath>
</defs>
</svg>
