<svg width="38" height="37" viewBox="0 0 38 37" fill="none" xmlns="http://www.w3.org/2000/svg">
<g clip-path="url(#clip0_1_2367)">
<path d="M19.4268 36C29.0918 36 36.9268 28.165 36.9268 18.5C36.9268 8.83502 29.0918 1 19.4268 1C9.76184 1 1.92682 8.83502 1.92682 18.5C1.92682 28.165 9.76184 36 19.4268 36Z" fill="white" stroke="#F6F6F6"/>
<path d="M24.0101 28.3543H11.1768C10.7515 28.3538 10.3438 28.1846 10.0431 27.8839C9.74232 27.5832 9.57315 27.1755 9.57263 26.7502V10.2502C9.57315 9.82487 9.74232 9.41714 10.0431 9.11642C10.3438 8.81569 10.7515 8.64651 11.1768 8.646H24.0101C24.4354 8.64651 24.8432 8.81569 25.1439 9.11642C25.4446 9.41714 25.6138 9.82487 25.6143 10.2502V20.3335C25.6143 20.5158 25.5419 20.6907 25.4129 20.8196C25.284 20.9486 25.1091 21.021 24.9268 21.021C24.7445 21.021 24.5696 20.9486 24.4407 20.8196C24.3117 20.6907 24.2393 20.5158 24.2393 20.3335V10.2502C24.2386 10.1896 24.2142 10.1317 24.1714 10.0889C24.1286 10.0461 24.0707 10.0217 24.0101 10.021H11.1768C11.1162 10.0217 11.0584 10.0461 11.0155 10.0889C10.9727 10.1317 10.9483 10.1896 10.9476 10.2502V26.7502C10.9483 26.8107 10.9727 26.8686 11.0155 26.9114C11.0584 26.9542 11.1162 26.9786 11.1768 26.9793H24.0101C24.1824 26.9108 24.3746 26.9122 24.5458 26.9832C24.7171 27.0541 24.8539 27.1891 24.9272 27.3593C24.9629 27.4413 24.982 27.5296 24.9832 27.619C24.9844 27.7084 24.9678 27.7971 24.9343 27.8801C24.9009 27.963 24.8512 28.0384 24.7883 28.1019C24.7254 28.1654 24.6504 28.2158 24.5678 28.25C24.3903 28.3202 24.201 28.3556 24.0101 28.3543Z" fill="#0E6C51"/>
<path d="M21.7185 13.6875H13.4685C13.2862 13.6875 13.1113 13.6151 12.9824 13.4861C12.8534 13.3572 12.781 13.1823 12.781 13C12.781 12.8177 12.8534 12.6428 12.9824 12.5139C13.1113 12.3849 13.2862 12.3125 13.4685 12.3125H21.7185C21.9008 12.3125 22.0757 12.3849 22.2046 12.5139C22.3336 12.6428 22.406 12.8177 22.406 13C22.406 13.1823 22.3336 13.3572 22.2046 13.4861C22.0757 13.6151 21.9008 13.6875 21.7185 13.6875Z" fill="#0E6C51"/>
<path d="M21.7185 17.3545H13.4685C13.2862 17.3545 13.1113 17.2821 12.9824 17.1531C12.8534 17.0242 12.781 16.8493 12.781 16.667C12.781 16.4847 12.8534 16.3098 12.9824 16.1809C13.1113 16.0519 13.2862 15.9795 13.4685 15.9795H21.7185C21.9008 15.9795 22.0757 16.0519 22.2046 16.1809C22.3336 16.3098 22.406 16.4847 22.406 16.667C22.406 16.8493 22.3336 17.0242 22.2046 17.1531C22.0757 17.2821 21.9008 17.3545 21.7185 17.3545Z" fill="#0E6C51"/>
<path d="M19.4268 21.021H13.4685C13.2862 21.021 13.1113 20.9486 12.9824 20.8196C12.8534 20.6907 12.781 20.5158 12.781 20.3335C12.781 20.1512 12.8534 19.9763 12.9824 19.8474C13.1113 19.7184 13.2862 19.646 13.4685 19.646H19.4268C19.6092 19.646 19.784 19.7184 19.913 19.8474C20.0419 19.9763 20.1143 20.1512 20.1143 20.3335C20.1143 20.5158 20.0419 20.6907 19.913 20.8196C19.784 20.9486 19.6092 21.021 19.4268 21.021Z" fill="#0E6C51"/>
<path d="M18.5102 24.6875H13.4685C13.2862 24.6875 13.1113 24.6151 12.9824 24.4861C12.8534 24.3572 12.781 24.1823 12.781 24C12.781 23.8177 12.8534 23.6428 12.9824 23.5139C13.1113 23.3849 13.2862 23.3125 13.4685 23.3125H18.5102C18.6925 23.3125 18.8674 23.3849 18.9963 23.5139C19.1252 23.6428 19.1977 23.8177 19.1977 24C19.1977 24.1823 19.1252 24.3572 18.9963 24.4861C18.8674 24.6151 18.6925 24.6875 18.5102 24.6875Z" fill="#0E6C51"/>
<path d="M24.9268 28.3543C24.0656 28.3543 23.2238 28.099 22.5078 27.6205C21.7917 27.1421 21.2336 26.4621 20.9041 25.6664C20.5745 24.8708 20.4883 23.9953 20.6563 23.1507C20.8243 22.3061 21.239 21.5302 21.8479 20.9213C22.4569 20.3124 23.2327 19.8977 24.0773 19.7297C24.922 19.5617 25.7974 19.6479 26.5931 19.9774C27.3887 20.307 28.0687 20.8651 28.5472 21.5811C29.0256 22.2972 29.281 23.139 29.281 24.0002C29.2797 25.1546 28.8205 26.2613 28.0042 27.0776C27.1879 27.8939 26.0812 28.353 24.9268 28.3543ZM24.9268 21.021C24.3376 21.021 23.7616 21.1957 23.2717 21.5231C22.7817 21.8504 22.3999 22.3157 22.1744 22.8601C21.9489 23.4045 21.8899 24.0035 22.0049 24.5814C22.1198 25.1593 22.4036 25.6901 22.8202 26.1068C23.2369 26.5234 23.7677 26.8071 24.3456 26.9221C24.9235 27.037 25.5225 26.978 26.0669 26.7526C26.6113 26.5271 27.0765 26.1452 27.4039 25.6553C27.7312 25.1654 27.906 24.5894 27.906 24.0002C27.9051 23.2103 27.5909 22.4531 27.0324 21.8946C26.4739 21.3361 25.7166 21.0219 24.9268 21.021Z" fill="#0E6C51"/>
<path d="M24.4684 25.6044C24.3781 25.6045 24.2887 25.5868 24.2053 25.5522C24.1219 25.5177 24.0461 25.467 23.9823 25.403L23.0657 24.4864C23.0015 24.4226 22.9505 24.3468 22.9156 24.2633C22.8807 24.1798 22.8627 24.0901 22.8625 23.9997C22.8624 23.9092 22.8801 23.8196 22.9146 23.736C22.9492 23.6524 22.9999 23.5763 23.0639 23.5123C23.1279 23.4483 23.2039 23.3976 23.2875 23.3631C23.3711 23.3285 23.4607 23.3109 23.5512 23.3111C23.6417 23.3112 23.7313 23.3292 23.8148 23.364C23.8983 23.3989 23.9741 23.45 24.0378 23.5142L24.4684 23.9447L25.8157 22.5975C25.9447 22.4694 26.1193 22.3976 26.3012 22.398C26.4831 22.3983 26.6574 22.4707 26.7861 22.5993C26.9147 22.7279 26.9871 22.9022 26.9874 23.0841C26.9877 23.266 26.916 23.4406 26.7878 23.5697L24.9545 25.403C24.8907 25.467 24.815 25.5177 24.7316 25.5522C24.6481 25.5868 24.5587 25.6045 24.4684 25.6044Z" fill="#0E6C51"/>
</g>
<defs>
<clipPath id="clip0_1_2367">
<rect width="37" height="36" fill="white" transform="translate(0.5 0.5)"/>
</clipPath>
</defs>
</svg>
