<svg width="25" height="25" viewBox="0 0 25 25" fill="none" xmlns="http://www.w3.org/2000/svg">
<path d="M7.5 12.5C7.5 15.3 9.7 17.5 12.5 17.5C15.3 17.5 17.5 15.3 17.5 12.5C17.5 9.7 15.3 7.5 12.5 7.5C9.7 7.5 7.5 9.7 7.5 12.5ZM12.5 9.5C14.2 9.5 15.5 10.8 15.5 12.5C15.5 14.2 14.2 15.5 12.5 15.5C10.8 15.5 9.5 14.2 9.5 12.5C9.5 10.8 10.8 9.5 12.5 9.5ZM13.5 5.5V3.5C13.5 2.9 13.1 2.5 12.5 2.5C11.9 2.5 11.5 2.9 11.5 3.5V5.5C11.5 6.1 11.9 6.5 12.5 6.5C13.1 6.5 13.5 6.1 13.5 5.5ZM19.6 5.4C19.2 5 18.6 5 18.2 5.4L16.8 6.8C16.4 7.2 16.4 7.8 16.8 8.2C17 8.4 17.3 8.5 17.5 8.5C17.7 8.5 18 8.4 18.2 8.2L19.6 6.8C20 6.5 20 5.8 19.6 5.4ZM21.5 11.5H19.5C18.9 11.5 18.5 11.9 18.5 12.5C18.5 13.1 18.9 13.5 19.5 13.5H21.5C22.1 13.5 22.5 13.1 22.5 12.5C22.5 11.9 22.1 11.5 21.5 11.5ZM18.2 16.7C17.8 16.3 17.2 16.3 16.8 16.7C16.4 17.1 16.4 17.7 16.8 18.1L18.2 19.5C18.4 19.7 18.7 19.8 18.9 19.8C19.1 19.8 19.4 19.7 19.6 19.5C20 19.1 20 18.5 19.6 18.1L18.2 16.7ZM11.5 19.5V21.5C11.5 22.1 11.9 22.5 12.5 22.5C13.1 22.5 13.5 22.1 13.5 21.5V19.5C13.5 18.9 13.1 18.5 12.5 18.5C11.9 18.5 11.5 18.9 11.5 19.5ZM5.4 19.6C5.6 19.8 5.9 19.9 6.1 19.9C6.3 19.9 6.6 19.8 6.8 19.6L8.2 18.2C8.6 17.8 8.6 17.2 8.2 16.8C7.8 16.4 7.2 16.4 6.8 16.8L5.4 18.2C5 18.5 5 19.2 5.4 19.6ZM2.5 12.5C2.5 13.1 2.9 13.5 3.5 13.5H5.5C6.1 13.5 6.5 13.1 6.5 12.5C6.5 11.9 6.1 11.5 5.5 11.5H3.5C2.9 11.5 2.5 11.9 2.5 12.5ZM6.8 5.4C6.4 5 5.8 5 5.4 5.4C5 5.8 5 6.4 5.4 6.8L6.8 8.2C7 8.5 7.3 8.6 7.6 8.6C7.9 8.6 8.1 8.5 8.3 8.3C8.7 7.9 8.7 7.3 8.3 6.9L6.8 5.4Z" fill="#0E6C51"/>
</svg>
