<svg width="21" height="21" viewBox="0 0 21 21" fill="none" xmlns="http://www.w3.org/2000/svg">
<g clip-path="url(#clip0_1_2383)">
<mask id="mask0_1_2383" style="mask-type:luminance" maskUnits="userSpaceOnUse" x="0" y="0" width="21" height="21">
<path d="M20.5 0.5H0.5V20.5H20.5V0.5Z" fill="white"/>
</mask>
<g mask="url(#mask0_1_2383)">
<path d="M10.5003 2.16663C7.27949 2.16663 4.66699 4.77913 4.66699 7.99996C4.66699 12.375 10.5003 18.8333 10.5003 18.8333C10.5003 18.8333 16.3337 12.375 16.3337 7.99996C16.3337 4.77913 13.7212 2.16663 10.5003 2.16663ZM10.5003 10.0833C9.35033 10.0833 8.41699 9.14996 8.41699 7.99996C8.41699 6.84996 9.35033 5.91663 10.5003 5.91663C11.6503 5.91663 12.5837 6.84996 12.5837 7.99996C12.5837 9.14996 11.6503 10.0833 10.5003 10.0833Z" fill="white"/>
</g>
</g>
<defs>
<clipPath id="clip0_1_2383">
<rect width="20" height="20" fill="white" transform="translate(0.5 0.5)"/>
</clipPath>
</defs>
</svg>
