<svg width="31" height="31" viewBox="0 0 31 31" fill="none" xmlns="http://www.w3.org/2000/svg">
<g clip-path="url(#clip0_1_2398)">
<mask id="mask0_1_2398" style="mask-type:luminance" maskUnits="userSpaceOnUse" x="0" y="0" width="31" height="31">
<path d="M30.5 0.5H0.5V30.5H30.5V0.5Z" fill="white"/>
</mask>
<g mask="url(#mask0_1_2398)">
<path fill-rule="evenodd" clip-rule="evenodd" d="M24.6804 19.6697C24.6804 19.5942 24.6768 19.5079 24.6733 19.4037C24.6445 18.523 24.6014 16.9666 24.5582 16.1326C24.5151 15.3023 24.472 15.1945 24.2743 14.7955C23.9256 14.0802 23.5374 13.2894 23.257 12.5561C23.2894 12.5417 23.3217 12.5309 23.3541 12.5165C23.9004 12.6028 24.4468 12.6891 24.8961 12.6064C25.3454 12.5201 25.6977 12.2649 25.8738 11.963C26.05 11.6646 26.0464 11.3196 25.917 11.1326C25.784 10.9457 25.5252 10.917 25.3275 10.8954C25.1298 10.8702 25.0004 10.8559 24.7919 10.8523C24.587 10.8487 24.303 10.8523 24.0802 11.0032C23.8537 11.1506 23.6776 11.449 23.4942 11.5855C23.3109 11.7221 23.1276 11.7293 22.9874 11.7401C22.7897 11.1614 22.5093 10.4425 22.2038 9.73436C21.8947 9.02624 21.4885 8.3972 21.1901 8.09885C20.8954 7.8005 20.6833 7.76456 20.0974 7.69986C16.8336 7.35478 14.0838 7.35478 10.8235 7.69986C10.234 7.76456 10.0219 7.8005 9.72717 8.09885C9.7092 8.11682 9.69482 8.13479 9.67685 8.15277L10.4605 8.93638C10.464 8.93278 10.4712 8.92919 10.4748 8.92559C10.5503 8.87527 10.6582 8.8573 11.4705 8.789C14.5259 8.53379 16.2728 8.53019 19.3354 8.789C20.1477 8.8573 20.252 8.87527 20.3311 8.92559C20.4065 8.97232 21.3447 10.8595 21.3986 11.0392C21.564 11.5748 21.5316 11.715 21.4454 11.794C21.3591 11.8731 21.2081 11.8911 20.1837 11.8479C17.592 11.7401 15.5719 11.7114 13.2822 11.7617L15.9853 14.4648L7.2074 5.68691C9.4468 3.79259 12.3404 2.65313 15.5 2.65313C19.0478 2.65313 22.2613 4.09094 24.5834 6.41661C26.9091 8.73868 28.3469 11.9522 28.3469 15.5C28.3469 18.6596 27.2074 21.5532 25.3131 23.7926L24.1988 22.6783V21.0248C24.0694 21.0967 23.9256 21.129 23.7674 21.129H22.6531L22.1283 20.6078H23.7674C24.0226 20.6078 24.2419 20.5144 24.4216 20.3311C24.6014 20.1477 24.6876 19.9249 24.6804 19.6697ZM18.8573 17.3368H19.9285C20.2088 17.3368 20.4425 17.5669 20.4425 17.8508C20.4425 18.1348 20.2088 18.3648 19.9285 18.3648H19.8853L18.8573 17.3368ZM23.7926 25.3131C21.5532 27.2074 18.6596 28.3469 15.5 28.3469C11.9522 28.3469 8.73868 26.9091 6.41661 24.5834C4.09094 22.2613 2.65313 19.0478 2.65313 15.5C2.65313 12.3404 3.79259 9.4468 5.68691 7.2074L9.25269 10.7732L8.56614 10.0866C8.32171 10.6761 8.11323 11.2441 7.96226 11.7293C7.82207 11.7185 7.68907 11.7257 7.50575 11.5927C7.32602 11.4561 7.1463 11.1542 6.91984 11.0068C6.69698 10.8595 6.41301 10.8523 6.20812 10.8559C5.99964 10.863 5.86664 10.8774 5.67254 10.899C5.47484 10.9206 5.21603 10.9529 5.08303 11.1398C4.95363 11.3267 4.95004 11.6682 5.12617 11.9702C5.3023 12.2685 5.65456 12.5273 6.10388 12.61C6.5532 12.6963 7.05284 12.592 7.59921 12.5057C7.63156 12.5165 7.66032 12.5309 7.68907 12.5417C7.37994 13.3577 7.04206 14.0083 6.65744 14.7955C6.45974 15.1945 6.41661 15.3023 6.37347 16.1326C6.33034 16.9666 6.24766 18.523 6.25845 19.4037L6.26204 19.8134C6.26564 20.252 6.62509 20.6078 7.06722 20.6078H19.0837L16.8408 18.3648H11.0104C10.73 18.3648 10.4964 18.1348 10.4964 17.8508C10.4964 17.5669 10.73 17.3368 11.0104 17.3368H15.8127L12.3584 13.8789L23.7926 25.3131ZM9.42164 10.9421L10.3382 11.8623C9.56182 11.8911 9.43602 11.8695 9.35334 11.794C9.25988 11.715 9.22394 11.5748 9.38569 11.0392C9.39288 11.014 9.40726 10.9817 9.42164 10.9421ZM15.5 0.5C11.3591 0.5 7.60999 2.17865 4.89252 4.89252C2.17865 7.6064 0.5 11.3591 0.5 15.5C0.5 19.6409 2.17865 23.39 4.89252 26.1039C7.60999 28.8213 11.3591 30.5 15.5 30.5C19.6409 30.5 23.3936 28.8213 26.1075 26.1039C28.8213 23.39 30.5 19.6409 30.5 15.5C30.5 11.3591 28.8213 7.6064 26.1075 4.89252C23.3936 2.17865 19.6409 0.5 15.5 0.5ZM9.56542 21.129V22.9263C9.56542 23.275 9.28864 23.5589 8.95075 23.5589H7.35478C7.01689 23.5589 6.74011 23.275 6.74011 22.9263V21.0607C6.84076 21.1075 6.9486 21.129 7.06722 21.129H9.56542ZM22.0349 23.5589H21.9881C21.6502 23.5589 21.3735 23.275 21.3735 22.9263V22.894L22.0349 23.5589ZM7.81129 17.344C7.64234 17.3835 7.55967 17.4626 7.44464 17.7322C7.32962 18.0054 7.18224 18.4727 7.14989 18.7566C7.12114 19.0406 7.211 19.1413 7.6064 19.2599C7.9982 19.3821 8.69914 19.5259 9.15564 19.5618C9.61215 19.5978 9.83142 19.5259 9.89971 19.4396C9.96441 19.3533 9.88174 19.2491 9.71999 19.0802C9.55823 18.9112 9.3174 18.674 9.14486 18.3756C8.96873 18.0737 8.86089 17.7142 8.76384 17.5273C8.67038 17.3404 8.58771 17.326 8.41876 17.3188C8.24622 17.3116 7.98382 17.308 7.81129 17.344ZM23.1204 17.344C23.2894 17.3835 23.372 17.4626 23.4871 17.7322C23.6021 18.0054 23.7531 18.4727 23.7818 18.7566C23.8106 19.0406 23.7207 19.1413 23.3253 19.2599C22.9335 19.3821 22.2326 19.5259 21.7761 19.5618C21.3196 19.5978 21.1003 19.5259 21.032 19.4396C20.9673 19.3533 21.05 19.2491 21.2117 19.0802C21.3735 18.9112 21.6143 18.674 21.7904 18.3756C21.963 18.0737 22.0708 17.7142 22.1679 17.5273C22.2613 17.3404 22.344 17.326 22.5129 17.3188C22.6855 17.3116 22.9479 17.308 23.1204 17.344ZM11.3375 15.0399C11.129 15.1945 10.615 15.4281 10.3203 15.5539C10.0255 15.6833 9.95363 15.7049 9.57261 15.6618C9.19159 15.6222 8.50503 15.5216 8.15996 15.4137C7.81129 15.3095 7.8041 15.1981 7.90834 14.871C8.01258 14.5403 8.22825 13.9939 8.37563 13.6812C8.51941 13.3684 8.5913 13.2894 9.07297 13.505C9.55823 13.7207 10.4497 14.2275 10.9457 14.5187C11.4454 14.8098 11.5424 14.8853 11.3375 15.0399ZM19.5942 15.0399C19.8027 15.1945 20.3167 15.4281 20.6114 15.5539C20.9062 15.6833 20.9781 15.7049 21.3591 15.6618C21.7401 15.6222 22.4267 15.5216 22.7717 15.4137C23.1204 15.3095 23.1276 15.1981 23.0234 14.871C22.9191 14.5403 22.7034 13.9939 22.5561 13.6812C22.4123 13.3684 22.3404 13.2894 21.8587 13.505C21.3771 13.7207 20.482 14.2275 19.986 14.5187C19.4863 14.8098 19.3893 14.8853 19.5942 15.0399Z" fill="white"/>
</g>
</g>
<defs>
<clipPath id="clip0_1_2398">
<rect width="30" height="30" fill="white" transform="translate(0.5 0.5)"/>
</clipPath>
</defs>
</svg>
