<svg width="25" height="25" viewBox="0 0 25 25" fill="none" xmlns="http://www.w3.org/2000/svg">
<g clip-path="url(#clip0_1_2406)">
<mask id="mask0_1_2406" style="mask-type:luminance" maskUnits="userSpaceOnUse" x="0" y="0" width="25" height="25">
<path d="M24.5 0.5H0.5V24.5H24.5V0.5Z" fill="white"/>
</mask>
<g mask="url(#mask0_1_2406)">
<path d="M11.5 2.5C16.468 2.5 20.5 6.532 20.5 11.5C20.5 16.468 16.468 20.5 11.5 20.5C6.532 20.5 2.5 16.468 2.5 11.5C2.5 6.532 6.532 2.5 11.5 2.5ZM11.5 18.5C15.367 18.5 18.5 15.367 18.5 11.5C18.5 7.632 15.367 4.5 11.5 4.5C7.632 4.5 4.5 7.632 4.5 11.5C4.5 15.367 7.632 18.5 11.5 18.5ZM19.985 18.571L22.814 21.399L21.399 22.814L18.571 19.985L19.985 18.571Z" fill="#999999"/>
</g>
</g>
<defs>
<clipPath id="clip0_1_2406">
<rect width="24" height="24" fill="white" transform="translate(0.5 0.5)"/>
</clipPath>
</defs>
</svg>
