<svg width="21" height="21" viewBox="0 0 21 21" fill="none" xmlns="http://www.w3.org/2000/svg">
<g clip-path="url(#clip0_1_2412)">
<path d="M10.5 20.5C4.977 20.5 0.5 16.023 0.5 10.5C0.5 4.977 4.977 0.5 10.5 0.5C16.023 0.5 20.5 4.977 20.5 10.5C20.5 16.023 16.023 20.5 10.5 20.5ZM10.5 18.5C12.6217 18.5 14.6566 17.6571 16.1569 16.1569C17.6571 14.6566 18.5 12.6217 18.5 10.5C18.5 8.37827 17.6571 6.34344 16.1569 4.84315C14.6566 3.34285 12.6217 2.5 10.5 2.5C8.37827 2.5 6.34344 3.34285 4.84315 4.84315C3.34285 6.34344 2.5 8.37827 2.5 10.5C2.5 12.6217 3.34285 14.6566 4.84315 16.1569C6.34344 17.6571 8.37827 18.5 10.5 18.5ZM10.5 15.5C9.17392 15.5 7.90215 14.9732 6.96447 14.0355C6.02678 13.0979 5.5 11.8261 5.5 10.5C5.5 9.17392 6.02678 7.90215 6.96447 6.96447C7.90215 6.02678 9.17392 5.5 10.5 5.5C11.8261 5.5 13.0979 6.02678 14.0355 6.96447C14.9732 7.90215 15.5 9.17392 15.5 10.5C15.5 11.8261 14.9732 13.0979 14.0355 14.0355C13.0979 14.9732 11.8261 15.5 10.5 15.5Z" fill="#0E6C51"/>
</g>
<defs>
<clipPath id="clip0_1_2412">
<rect width="20" height="20" fill="white" transform="translate(0.5 0.5)"/>
</clipPath>
</defs>
</svg>
