<svg width="19" height="19" viewBox="0 0 19 19" fill="none" xmlns="http://www.w3.org/2000/svg">
<g clip-path="url(#clip0_1_2423)">
<path d="M1.5 0.5H17.5C17.7652 0.5 18.0196 0.605357 18.2071 0.792893C18.3946 0.98043 18.5 1.23478 18.5 1.5V17.5C18.5 17.7652 18.3946 18.0196 18.2071 18.2071C18.0196 18.3946 17.7652 18.5 17.5 18.5H1.5C1.23478 18.5 0.98043 18.3946 0.792893 18.2071C0.605357 18.0196 0.5 17.7652 0.5 17.5V1.5C0.5 1.23478 0.605357 0.98043 0.792893 0.792893C0.98043 0.605357 1.23478 0.5 1.5 0.5ZM8.503 13.5L15.573 6.429L14.159 5.015L8.503 10.672L5.674 7.843L4.26 9.257L8.503 13.5Z" fill="#0E6C51"/>
</g>
<defs>
<clipPath id="clip0_1_2423">
<rect width="18" height="18" fill="white" transform="translate(0.5 0.5)"/>
</clipPath>
</defs>
</svg>
