<svg width="25" height="25" viewBox="0 0 25 25" fill="none" xmlns="http://www.w3.org/2000/svg">
<path d="M12.5 7.25C13.7426 7.25 14.75 6.24264 14.75 5C14.75 3.75736 13.7426 2.75 12.5 2.75C11.2574 2.75 10.25 3.75736 10.25 5C10.25 6.24264 11.2574 7.25 12.5 7.25Z" fill="#0E6C51"/>
<path d="M12.5 14.75C13.7426 14.75 14.75 13.7426 14.75 12.5C14.75 11.2574 13.7426 10.25 12.5 10.25C11.2574 10.25 10.25 11.2574 10.25 12.5C10.25 13.7426 11.2574 14.75 12.5 14.75Z" fill="#0E6C51"/>
<path d="M12.5 22.25C13.7426 22.25 14.75 21.2426 14.75 20C14.75 18.7574 13.7426 17.75 12.5 17.75C11.2574 17.75 10.25 18.7574 10.25 20C10.25 21.2426 11.2574 22.25 12.5 22.25Z" fill="#0E6C51"/>
</svg>
