<svg width="61" height="61" viewBox="0 0 61 61" fill="none" xmlns="http://www.w3.org/2000/svg">
<g clip-path="url(#clip0_1_2435)">
<mask id="mask0_1_2435" style="mask-type:luminance" maskUnits="userSpaceOnUse" x="0" y="0" width="61" height="61">
<path d="M60.5 0.5H0.5V60.5H60.5V0.5Z" fill="white"/>
</mask>
<g mask="url(#mask0_1_2435)">
<path d="M30.5 1.125C14.275 1.125 1.125 14.275 1.125 30.5C1.125 46.725 14.275 59.875 30.5 59.875C46.725 59.875 59.875 46.725 59.875 30.5C59.875 14.275 46.725 1.125 30.5 1.125ZM47.5875 26.3625L28.4875 45.4625C27.475 46.4875 26.1375 46.9875 24.8 46.9875C23.4625 46.9875 22.125 46.475 21.1125 45.4625L11.625 35.975C9.5875 33.9375 9.5875 30.625 11.625 28.5875C13.6625 26.55 16.975 26.55 19.0125 28.5875L24.8 34.375L40.2 18.975C42.2375 16.9375 45.55 16.9375 47.5875 18.975C49.625 21.0125 49.625 24.325 47.5875 26.3625Z" fill="#0E6C51"/>
</g>
</g>
<defs>
<clipPath id="clip0_1_2435">
<rect width="60" height="60" fill="white" transform="translate(0.5 0.5)"/>
</clipPath>
</defs>
</svg>
