<svg width="31" height="31" viewBox="0 0 31 31" fill="none" xmlns="http://www.w3.org/2000/svg">
<g clip-path="url(#clip0_1_2449)">
<path d="M15.4961 0.499023C14.6068 0.501874 13.7549 0.857162 13.1271 1.48702L10.6971 3.91702H7.25808C6.37013 3.92045 5.51952 4.2747 4.89164 4.90258C4.26376 5.53046 3.90951 6.38107 3.90608 7.26902V10.701L1.47808 13.137C0.852519 13.7671 0.501465 14.6191 0.501465 15.507C0.501465 16.3949 0.852519 17.2468 1.47808 17.877L3.90608 20.305V23.746C3.90951 24.6339 4.26376 25.4846 4.89164 26.1124C5.51952 26.7403 6.37013 27.0946 7.25808 27.098H10.6971L13.1271 29.526C13.7586 30.1512 14.6114 30.5019 15.5001 30.5019C16.3888 30.5019 17.2415 30.1512 17.8731 29.526L20.3031 27.098H23.7351C25.5761 27.098 27.0941 25.587 27.0941 23.746V20.305L29.5221 17.877C30.1476 17.2468 30.4987 16.3949 30.4987 15.507C30.4987 14.6191 30.1476 13.7671 29.5221 13.137L27.0941 10.701V7.26902C27.0941 5.42802 25.5751 3.91702 23.7351 3.91702H20.3031L17.8731 1.48702C17.2426 0.856226 16.3879 0.50096 15.4961 0.499023ZM12.2191 7.94102C13.8651 7.94102 15.2151 9.30002 15.2151 10.945C15.2151 12.59 13.8641 13.941 12.2191 13.941C10.5741 13.941 9.22308 12.59 9.22308 10.945C9.22308 9.30002 10.5741 7.94102 12.2191 7.94102ZM22.2321 10.19C22.2357 10.329 22.2102 10.4673 22.1573 10.5959C22.1045 10.7245 22.0254 10.8407 21.9251 10.937L11.3181 21.543C10.9351 21.943 10.3011 21.957 9.90108 21.575C9.80518 21.4824 9.72862 21.3717 9.67585 21.2492C9.62307 21.1268 9.59513 20.9951 9.59364 20.8618C9.59215 20.7285 9.61715 20.5963 9.66718 20.4727C9.71721 20.3491 9.79127 20.2367 9.88508 20.142L20.5071 9.51702C20.6891 9.33102 20.9351 9.22402 21.2011 9.21502C21.3328 9.21116 21.4641 9.23334 21.5873 9.28028C21.7104 9.32722 21.8231 9.398 21.9189 9.48858C22.0147 9.57915 22.0916 9.68773 22.1454 9.8081C22.1991 9.92846 22.2286 10.0583 22.2321 10.19ZM12.2191 9.94102C11.6551 9.94102 11.2151 10.381 11.2151 10.945C11.2151 11.509 11.6541 11.941 12.2191 11.941C12.7841 11.941 13.2151 11.509 13.2151 10.945C13.2151 10.381 12.7831 9.94102 12.2191 9.94102ZM20.6351 16.354C22.2811 16.354 23.6311 17.707 23.6311 19.352C23.6311 20.997 22.2801 22.356 20.6351 22.356C18.9901 22.356 17.6291 20.997 17.6291 19.352C17.6291 17.707 18.9901 16.354 20.6351 16.354ZM20.6351 18.357C20.0711 18.357 19.6311 18.789 19.6311 19.353C19.6311 19.917 20.0701 20.357 20.6351 20.357C21.2001 20.357 21.6311 19.917 21.6311 19.353C21.6311 18.789 21.1991 18.357 20.6351 18.357Z" fill="#999999"/>
</g>
<defs>
<clipPath id="clip0_1_2449">
<rect width="30" height="30" fill="white" transform="translate(0.5 0.5)"/>
</clipPath>
</defs>
</svg>
