<svg width="17" height="21" viewBox="0 0 17 21" fill="none" xmlns="http://www.w3.org/2000/svg">
<g clip-path="url(#clip0_1_2451)">
<path d="M8.5 9.30009C8.89556 9.30009 9.28224 9.18279 9.61114 8.96303C9.94004 8.74326 10.1964 8.43091 10.3478 8.06545C10.4991 7.7 10.5387 7.29787 10.4616 6.90991C10.3844 6.52195 10.1939 6.16558 9.91421 5.88587C9.63451 5.60617 9.27814 5.41569 8.89018 5.33852C8.50222 5.26135 8.10009 5.30095 7.73463 5.45233C7.36918 5.6037 7.05682 5.86005 6.83706 6.18895C6.6173 6.51785 6.5 6.90453 6.5 7.30009C6.5 7.83052 6.71071 8.33923 7.08579 8.7143C7.46086 9.08937 7.96957 9.30009 8.5 9.30009ZM7.79 16.2101C7.88296 16.3038 7.99356 16.3782 8.11542 16.429C8.23728 16.4797 8.36799 16.5059 8.5 16.5059C8.63201 16.5059 8.76272 16.4797 8.88458 16.429C9.00644 16.3782 9.11704 16.3038 9.21 16.2101L13.3 12.1101C14.25 11.1606 14.897 9.95078 15.1593 8.63355C15.4216 7.31632 15.2873 5.95089 14.7735 4.70998C14.2597 3.46906 13.3894 2.4084 12.2727 1.66215C11.156 0.915894 9.84309 0.517578 8.5 0.517578C7.15691 0.517578 5.844 0.915894 4.72731 1.66215C3.61062 2.4084 2.74033 3.46906 2.22652 4.70998C1.7127 5.95089 1.57845 7.31632 1.84073 8.63355C2.10301 9.95078 2.75005 11.1606 3.7 12.1101L7.79 16.2101ZM3.73 6.84009C3.79833 6.12711 4.02502 5.43838 4.39352 4.8242C4.76203 4.21002 5.26305 3.6859 5.86 3.29009C6.6442 2.77519 7.56186 2.50085 8.5 2.50085C9.43814 2.50085 10.3558 2.77519 11.14 3.29009C11.733 3.68454 12.2311 4.20549 12.5987 4.81547C12.9663 5.42546 13.1942 6.10932 13.2659 6.81787C13.3376 7.52643 13.2514 8.24208 13.0135 8.91334C12.7756 9.58461 12.3919 10.1948 11.89 10.7001L8.5 14.0901L5.11 10.7001C4.60752 10.1997 4.22293 9.59362 3.98421 8.92589C3.74548 8.25816 3.65864 7.54561 3.73 6.84009ZM15.5 18.5001H1.5C1.23478 18.5001 0.98043 18.6054 0.792893 18.793C0.605357 18.9805 0.5 19.2349 0.5 19.5001C0.5 19.7653 0.605357 20.0197 0.792893 20.2072C0.98043 20.3947 1.23478 20.5001 1.5 20.5001H15.5C15.7652 20.5001 16.0196 20.3947 16.2071 20.2072C16.3946 20.0197 16.5 19.7653 16.5 19.5001C16.5 19.2349 16.3946 18.9805 16.2071 18.793C16.0196 18.6054 15.7652 18.5001 15.5 18.5001Z" fill="#0E6C51"/>
</g>
<defs>
<clipPath id="clip0_1_2451">
<rect width="16" height="20" fill="white" transform="translate(0.5 0.5)"/>
</clipPath>
</defs>
</svg>
