<svg width="21" height="21" viewBox="0 0 21 21" fill="none" xmlns="http://www.w3.org/2000/svg">
<g clip-path="url(#clip0_1_2443)">
<path d="M17.6999 5.69998H2.6999V5.09998L15.8999 4.04398V5.09998H17.6999V3.29998C17.6999 1.97998 16.6307 1.05358 15.3251 1.23958L3.2759 2.96038C1.9691 3.14758 0.899902 4.37998 0.899902 5.69998V17.7C0.899902 18.3365 1.15276 18.947 1.60285 19.3971C2.05293 19.8472 2.66338 20.1 3.2999 20.1H17.6999C18.3364 20.1 18.9469 19.8472 19.397 19.3971C19.847 18.947 20.0999 18.3365 20.0999 17.7V8.09998C20.0999 7.46346 19.847 6.85301 19.397 6.40293C18.9469 5.95284 18.3364 5.69998 17.6999 5.69998ZM15.8999 14.1072C15.6634 14.1071 15.4293 14.0605 15.2109 13.9699C14.9925 13.8794 14.794 13.7467 14.6269 13.5794C14.4597 13.4122 14.3271 13.2136 14.2367 12.9951C14.1463 12.7766 14.0998 12.5425 14.0999 12.306C14.1 12.0696 14.1466 11.8354 14.2372 11.617C14.3278 11.3986 14.4605 11.2001 14.6277 11.033C14.795 10.8658 14.9935 10.7333 15.212 10.6428C15.4305 10.5524 15.6646 10.5059 15.9011 10.506C16.3786 10.5062 16.8366 10.696 17.1741 11.0338C17.5117 11.3716 17.7013 11.8297 17.7011 12.3072C17.7009 12.7848 17.5111 13.2427 17.1733 13.5803C16.8355 13.9178 16.3774 14.1074 15.8999 14.1072Z" fill="#0E6C51"/>
</g>
<defs>
<clipPath id="clip0_1_2443">
<rect width="20" height="20" fill="white" transform="translate(0.5 0.5)"/>
</clipPath>
</defs>
</svg>
