<svg width="19" height="19" viewBox="0 0 19 19" fill="none" xmlns="http://www.w3.org/2000/svg">
<path d="M17.7835 7.52504L17.2252 3.06671C17.1841 2.74653 17.0385 2.44885 16.811 2.21984C16.5835 1.99083 16.2868 1.84327 15.9669 1.80004L11.5085 1.21671C11.1621 1.17488 10.8106 1.21159 10.4803 1.32412C10.1499 1.43664 9.84911 1.62209 9.6002 1.86671L1.78354 9.64171C1.63948 9.78617 1.52552 9.95778 1.44828 10.1466C1.37103 10.3354 1.33203 10.5377 1.33354 10.7417C1.34074 11.1525 1.5082 11.5443 1.8002 11.8333L7.11687 17.1833C7.26304 17.3309 7.43695 17.4481 7.62859 17.5282C7.82024 17.6083 8.02583 17.6497 8.23354 17.65C8.63476 17.6518 9.0207 17.4962 9.30854 17.2167L17.1169 9.44171C17.3667 9.19413 17.5566 8.89274 17.6721 8.56056C17.7877 8.22838 17.8258 7.8742 17.7835 7.52504ZM10.2085 7.41671C10.2085 7.68042 10.1303 7.9382 9.98383 8.15747C9.83732 8.37673 9.62908 8.54763 9.38545 8.64855C9.14181 8.74946 8.87373 8.77587 8.61508 8.72442C8.35644 8.67298 8.11887 8.54599 7.9324 8.35952C7.74593 8.17305 7.61894 7.93547 7.56749 7.67683C7.51604 7.41819 7.54245 7.1501 7.64336 6.90646C7.74428 6.66283 7.91518 6.45459 8.13444 6.30808C8.35371 6.16157 8.6115 6.08338 8.8752 6.08338C9.22883 6.08338 9.56796 6.22385 9.81801 6.4739C10.0681 6.72395 10.2085 7.06309 10.2085 7.41671ZM6.3752 9.29171H11.3752C11.541 9.29171 11.6999 9.35756 11.8171 9.47477C11.9344 9.59198 12.0002 9.75095 12.0002 9.91671C12.0002 10.0825 11.9344 10.2414 11.8171 10.3587C11.6999 10.4759 11.541 10.5417 11.3752 10.5417H6.3752C6.20944 10.5417 6.05047 10.4759 5.93326 10.3587C5.81605 10.2414 5.7502 10.0825 5.7502 9.91671C5.7502 9.75095 5.81605 9.59198 5.93326 9.47477C6.05047 9.35756 6.20944 9.29171 6.3752 9.29171ZM14.9419 5.77504C14.8247 5.89208 14.6658 5.95783 14.5002 5.95783C14.3346 5.95783 14.1757 5.89208 14.0585 5.77504L12.8335 4.50004C12.7433 4.45695 12.6647 4.39284 12.6044 4.3131C12.5441 4.23335 12.5038 4.1403 12.4869 4.04175C12.47 3.9432 12.477 3.84204 12.5073 3.74675C12.5375 3.65146 12.5902 3.56482 12.6609 3.49412C12.7317 3.42342 12.8183 3.37071 12.9136 3.34042C13.0089 3.31014 13.11 3.30315 13.2086 3.32006C13.3071 3.33697 13.4002 3.37728 13.4799 3.43759C13.5597 3.49791 13.6238 3.57648 13.6669 3.66671L14.9169 4.91671C15.0299 5.02951 15.0955 5.18129 15.1001 5.3409C15.1048 5.50052 15.0481 5.65586 14.9419 5.77504ZM7.54187 12.4417C7.54187 12.178 7.62007 11.9202 7.76658 11.7009C7.91309 11.4817 8.12133 11.3108 8.36496 11.2098C8.60859 11.1089 8.87668 11.0825 9.13532 11.134C9.39397 11.1854 9.63154 11.3124 9.81801 11.4989C10.0045 11.6853 10.1315 11.9229 10.1829 12.1816C10.2344 12.4402 10.208 12.7083 10.107 12.9519C10.0061 13.1956 9.83523 13.4038 9.61596 13.5503C9.3967 13.6968 9.13891 13.775 8.8752 13.775C8.69798 13.775 8.52254 13.7397 8.35912 13.6712C8.1957 13.6026 8.04759 13.5022 7.92345 13.3757C7.7993 13.2492 7.70162 13.0993 7.6361 12.9346C7.57058 12.7699 7.53855 12.5939 7.54187 12.4167V12.4417Z" fill="#999999"/>
</svg>
