<svg width="23" height="15" viewBox="0 0 23 15" fill="none" xmlns="http://www.w3.org/2000/svg">
<g clip-path="url(#clip0_1_2445)">
<path d="M19.5 0.5H3.5C1.8 0.5 0.5 1.8 0.5 3.5V11.5C0.5 13.2 1.8 14.5 3.5 14.5H19.5C21.2 14.5 22.5 13.2 22.5 11.5V3.5C22.5 1.8 21.2 0.5 19.5 0.5ZM5.5 8.5C4.9 8.5 4.5 8.1 4.5 7.5C4.5 6.9 4.9 6.5 5.5 6.5C6.1 6.5 6.5 6.9 6.5 7.5C6.5 8.1 6.1 8.5 5.5 8.5ZM14.4 8.1C14.1 9.7 12.5 10.8 10.9 10.5C9.3 10.2 8.2 8.6 8.5 7C8.7 5.8 9.7 4.9 10.9 4.6C12.5 4.3 14.1 5.3 14.4 7C14.5 7.3 14.5 7.7 14.4 8.1ZM17.5 8.5C16.9 8.5 16.5 8.1 16.5 7.5C16.5 6.9 16.9 6.5 17.5 6.5C18.1 6.5 18.5 6.9 18.5 7.5C18.5 8.1 18.1 8.5 17.5 8.5Z" fill="#0E6C51"/>
</g>
<defs>
<clipPath id="clip0_1_2445">
<rect width="22" height="14" fill="white" transform="translate(0.5 0.5)"/>
</clipPath>
</defs>
</svg>
