<svg width="21" height="21" viewBox="0 0 21 21" fill="none" xmlns="http://www.w3.org/2000/svg">
<g clip-path="url(#clip0_1_2453)">
<path d="M10.49 0.5C4.97 0.5 0.5 4.98 0.5 10.5C0.5 16.02 4.97 20.5 10.49 20.5C16.02 20.5 20.5 16.02 20.5 10.5C20.5 4.98 16.02 0.5 10.49 0.5ZM17.42 6.5H14.47C14.15 5.25 13.69 4.05 13.09 2.94C14.93 3.57 16.46 4.85 17.42 6.5ZM10.5 2.54C11.33 3.74 11.98 5.07 12.41 6.5H8.59C9.02 5.07 9.67 3.74 10.5 2.54ZM2.76 12.5C2.6 11.86 2.5 11.19 2.5 10.5C2.5 9.81 2.6 9.14 2.76 8.5H6.14C6.06 9.16 6 9.82 6 10.5C6 11.18 6.06 11.84 6.14 12.5H2.76ZM3.58 14.5H6.53C6.85 15.75 7.31 16.95 7.91 18.06C6.07 17.43 4.54 16.16 3.58 14.5ZM6.53 6.5H3.58C4.54 4.84 6.07 3.57 7.91 2.94C7.31 4.05 6.85 5.25 6.53 6.5ZM10.5 18.46C9.67 17.26 9.02 15.93 8.59 14.5H12.41C11.98 15.93 11.33 17.26 10.5 18.46ZM12.84 12.5H8.16C8.07 11.84 8 11.18 8 10.5C8 9.82 8.07 9.15 8.16 8.5H12.84C12.93 9.15 13 9.82 13 10.5C13 11.18 12.93 11.84 12.84 12.5ZM13.09 18.06C13.69 16.95 14.15 15.75 14.47 14.5H17.42C16.46 16.15 14.93 17.43 13.09 18.06ZM14.86 12.5C14.94 11.84 15 11.18 15 10.5C15 9.82 14.94 9.16 14.86 8.5H18.24C18.4 9.14 18.5 9.81 18.5 10.5C18.5 11.19 18.4 11.86 18.24 12.5H14.86Z" fill="#999999"/>
</g>
<defs>
<clipPath id="clip0_1_2453">
<rect width="20" height="20" fill="white" transform="translate(0.5 0.5)"/>
</clipPath>
</defs>
</svg>
