<svg width="25" height="25" viewBox="0 0 25 25" fill="none" xmlns="http://www.w3.org/2000/svg">
<path d="M19.7004 7.69998H4.70039V7.09998L17.9004 6.04398V7.09998H19.7004V5.29998C19.7004 3.97998 18.6312 3.05358 17.3256 3.23958L5.27639 4.96038C3.96959 5.14758 2.90039 6.37998 2.90039 7.69998V19.7C2.90039 20.3365 3.15325 20.947 3.60333 21.3971C4.05342 21.8472 4.66387 22.1 5.30039 22.1H19.7004C20.3369 22.1 20.9474 21.8472 21.3974 21.3971C21.8475 20.947 22.1004 20.3365 22.1004 19.7V10.1C22.1004 9.46346 21.8475 8.85301 21.3974 8.40293C20.9474 7.95284 20.3369 7.69998 19.7004 7.69998ZM17.9004 16.1072C17.6639 16.1071 17.4298 16.0605 17.2114 15.9699C16.9929 15.8794 16.7945 15.7467 16.6273 15.5794C16.4602 15.4122 16.3276 15.2136 16.2372 14.9951C16.1468 14.7766 16.1003 14.5425 16.1004 14.306C16.1005 14.0696 16.1471 13.8354 16.2377 13.617C16.3282 13.3986 16.4609 13.2001 16.6282 13.033C16.7955 12.8658 16.994 12.7333 17.2125 12.6428C17.431 12.5524 17.6651 12.5059 17.9016 12.506C18.3791 12.5062 18.8371 12.696 19.1746 13.0338C19.5122 13.3716 19.7017 13.8297 19.7016 14.3072C19.7014 14.7848 19.5116 15.2427 19.1738 15.5803C18.836 15.9178 18.3779 16.1074 17.9004 16.1072Z" fill="#0E6C51"/>
</svg>
