<svg width="25" height="25" viewBox="0 0 25 25" fill="none" xmlns="http://www.w3.org/2000/svg">
<g clip-path="url(#clip0_1_2459)">
<mask id="mask0_1_2459" style="mask-type:luminance" maskUnits="userSpaceOnUse" x="0" y="0" width="25" height="25">
<path d="M24.5 0.5H0.5V24.5H24.5V0.5Z" fill="white"/>
</mask>
<g mask="url(#mask0_1_2459)">
<path d="M21.4759 12.6508C21.2485 12.6508 21.0305 12.5605 20.8698 12.3998C20.709 12.239 20.6187 12.021 20.6187 11.7937V9.32511C20.6509 8.83938 20.4905 8.36052 20.1722 7.9922C19.8539 7.62387 19.4034 7.39571 18.9181 7.35711H4.08615C3.85882 7.35711 3.6408 7.2668 3.48006 7.10606C3.31931 6.94531 3.229 6.72729 3.229 6.49997C3.229 6.27264 3.31931 6.05462 3.48006 5.89387C3.6408 5.73313 3.85882 5.64282 4.08615 5.64282H18.9181C19.8598 5.67679 20.7495 6.08279 21.3922 6.77179C22.0349 7.46078 22.3782 8.37654 22.3467 9.31825V11.7868C22.3476 11.9011 22.3257 12.0145 22.2822 12.1201C22.2387 12.2258 22.1744 12.3218 22.0933 12.4023C22.0122 12.4828 21.9157 12.5462 21.8097 12.5889C21.7037 12.6316 21.5902 12.6527 21.4759 12.6508Z" fill="#0E6C51"/>
<path d="M18.9183 23.5948H4.08632C3.1447 23.5608 2.25498 23.1548 1.61225 22.4659C0.969533 21.7769 0.626274 20.8611 0.65775 19.9194V4.44967C0.65775 4.22234 0.748056 4.00433 0.908802 3.84358C1.06955 3.68284 1.28757 3.59253 1.51489 3.59253C1.74222 3.59253 1.96024 3.68284 2.12098 3.84358C2.28173 4.00433 2.37204 4.22234 2.37204 4.44967V19.9194C2.33992 20.4044 2.50053 20.8825 2.81897 21.2497C3.13742 21.6169 3.58794 21.8436 4.07261 21.8805H18.9183C19.403 21.8436 19.8535 21.6169 20.172 21.2497C20.4904 20.8825 20.651 20.4044 20.6189 19.9194V18.1777C20.6189 17.9503 20.7092 17.7323 20.8699 17.5716C21.0307 17.4108 21.2487 17.3205 21.476 17.3205C21.7034 17.3205 21.9214 17.4108 22.0821 17.5716C22.2429 17.7323 22.3332 17.9503 22.3332 18.1777V19.9194C22.3647 20.8588 22.0233 21.7726 21.3835 22.4612C20.7438 23.1498 19.8575 23.5573 18.9183 23.5948Z" fill="#0E6C51"/>
<path d="M18.5685 7.35703C18.3436 7.35706 18.1276 7.26863 17.9672 7.11084C17.8069 6.95305 17.715 6.73854 17.7114 6.5136V4.61417C17.6953 4.20733 17.5191 3.82334 17.2211 3.54589C16.9231 3.26845 16.5275 3.12004 16.1205 3.13303H3.77767C3.42776 3.12004 3.08696 3.24625 2.82991 3.48402C2.57286 3.72179 2.42052 4.05173 2.40624 4.4016C2.42052 4.75146 2.57286 5.08141 2.82991 5.31918C3.08696 5.55695 3.42776 5.68316 3.77767 5.67017H11.3205C11.5479 5.67017 11.7659 5.76047 11.9266 5.92122C12.0874 6.08197 12.1777 6.29998 12.1777 6.52731C12.1777 6.75464 12.0874 6.97266 11.9266 7.1334C11.7659 7.29415 11.5479 7.38445 11.3205 7.38445H3.7571C3.3576 7.3908 2.96077 7.31828 2.58934 7.17103C2.21791 7.02379 1.87918 6.80471 1.59255 6.52636C1.30591 6.24801 1.07701 5.91584 0.918939 5.54888C0.760871 5.18193 0.676748 4.7874 0.671387 4.38788C0.685815 3.5834 1.01882 2.8175 1.59733 2.25827C2.17584 1.69905 2.95259 1.39218 3.7571 1.40503H16.1C16.5294 1.39594 16.9564 1.47189 17.3564 1.6285C17.7564 1.78512 18.1215 2.0193 18.4306 2.31758C18.7397 2.61586 18.9867 2.97233 19.1575 3.36648C19.3283 3.76062 19.4194 4.18466 19.4257 4.61417V6.5136C19.4221 6.73854 19.3302 6.95305 19.1698 7.11084C19.0095 7.26863 18.7935 7.35706 18.5685 7.35703ZM22.0314 19.0142H17.2794C16.3512 19.0325 15.4536 18.6818 14.7838 18.039C14.114 17.3962 13.7266 16.5138 13.7068 15.5856V14.3445C13.7266 13.4163 14.114 12.5339 14.7838 11.8911C15.4536 11.2482 16.3512 10.8975 17.2794 10.9159H22.0794C22.3792 10.9168 22.676 10.9767 22.9527 11.0923C23.2294 11.2079 23.4806 11.3769 23.692 11.5895C23.9034 11.8022 24.0708 12.0544 24.1848 12.3318C24.2987 12.6092 24.3569 12.9063 24.356 13.2062V16.765C24.3451 17.3713 24.0943 17.9485 23.6586 18.3701C23.2228 18.7917 22.6377 19.0233 22.0314 19.0142ZM17.2794 12.637C16.8069 12.6184 16.3463 12.7876 15.9981 13.1075C15.6499 13.4274 15.4425 13.8721 15.4211 14.3445V15.6199C15.4425 16.0922 15.6499 16.5369 15.9981 16.8569C16.3463 17.1768 16.8069 17.3459 17.2794 17.3273H22.0314C22.1812 17.3273 22.3249 17.2683 22.4314 17.163C22.538 17.0578 22.5987 16.9148 22.6005 16.765V13.2062C22.5964 13.0693 22.54 12.9392 22.4428 12.8427C22.3914 12.789 22.3297 12.7461 22.2614 12.7167C22.193 12.6872 22.1195 12.6718 22.0451 12.6713L17.2794 12.637Z" fill="#0E6C51"/>
<path d="M17.7527 15.8395C18.226 15.8395 18.6098 15.4558 18.6098 14.9824C18.6098 14.509 18.226 14.1252 17.7527 14.1252C17.2793 14.1252 16.8955 14.509 16.8955 14.9824C16.8955 15.4558 17.2793 15.8395 17.7527 15.8395Z" fill="#0E6C51"/>
</g>
</g>
<defs>
<clipPath id="clip0_1_2459">
<rect width="24" height="24" fill="white" transform="translate(0.5 0.5)"/>
</clipPath>
</defs>
</svg>
