<svg width="22" height="23" viewBox="0 0 22 23" fill="none" xmlns="http://www.w3.org/2000/svg">
<g clip-path="url(#clip0_1_2468)">
<path d="M20.6537 16.0692H18.5412L16.9936 14.474L16.4962 10.5193C16.4822 10.4078 16.4279 10.3052 16.3436 10.2308C16.2593 10.1565 16.1507 10.1154 16.0383 10.1154H7.54597C6.98387 10.1151 6.42452 10.1939 5.88443 10.3497V8.26927H12.8075C13.0624 8.26927 13.269 8.06264 13.269 7.80773C13.269 7.55282 13.0624 7.34619 12.8075 7.34619H5.88443V4.99234C5.88443 4.73744 5.6778 4.53081 5.42289 4.53081H1.73058C1.47567 4.53081 1.26904 4.73744 1.26904 4.99234C1.26904 5.24725 1.47567 5.45388 1.73058 5.45388H3.1152V12.0739C2.14098 13.1411 1.54597 14.56 1.54597 16.1154C1.54597 19.4238 4.23757 22.1154 7.54597 22.1154C11.2283 22.1154 14.0644 18.8077 13.4673 15.1462H16.1478L16.4455 17.5127C15.4206 17.7477 14.6537 18.6664 14.6537 19.7615C14.6537 21.034 15.6889 22.0692 16.9614 22.0692C18.2338 22.0692 19.269 21.034 19.269 19.7615C19.269 18.6297 18.4497 17.6862 17.3732 17.4914L17.1852 15.9971L18.0147 16.8521C18.0578 16.8964 18.1092 16.9317 18.1662 16.9558C18.2231 16.9799 18.2842 16.9923 18.346 16.9923H20.6537C20.9086 16.9923 21.1152 16.7856 21.1152 16.5307C21.1152 16.2759 20.9085 16.0692 20.6537 16.0692ZM4.96135 10.7013C4.63788 10.8565 4.32895 11.0403 4.03827 11.2506V5.45388H4.96135V10.7013ZM7.54597 21.1923C4.74655 21.1923 2.46904 18.9148 2.46904 16.1154C2.46904 13.316 4.74655 11.0385 7.54597 11.0385C10.3454 11.0385 12.6229 13.316 12.6229 16.1154C12.6229 18.9148 10.3454 21.1923 7.54597 21.1923ZM13.24 14.2231C12.7976 12.8955 11.9031 11.7729 10.74 11.0385H13.7306V12.8846C13.7306 13.1395 13.9373 13.3462 14.1921 13.3462C14.447 13.3462 14.6537 13.1395 14.6537 12.8846V11.0385H15.6312L16.0318 14.2231H13.24ZM18.346 19.7615C18.346 20.525 17.7248 21.1462 16.9614 21.1462C16.1979 21.1462 15.5767 20.525 15.5767 19.7615C15.5767 18.9984 16.1973 18.3775 16.9604 18.377C17.7253 18.3764 18.346 18.9987 18.346 19.7615ZM8.65366 4.11542C9.41714 4.11542 10.0383 3.49428 10.0383 2.73081C10.0383 1.96733 9.41714 1.34619 8.65366 1.34619C7.89018 1.34619 7.26904 1.96733 7.26904 2.73081C7.26904 3.49428 7.89018 4.11542 8.65366 4.11542ZM8.65366 2.26927C8.90815 2.26927 9.1152 2.47631 9.1152 2.73081C9.1152 2.9853 8.90815 3.19234 8.65366 3.19234C8.39917 3.19234 8.19212 2.9853 8.19212 2.73081C8.19212 2.47631 8.39917 2.26927 8.65366 2.26927Z" fill="#0E6C51"/>
</g>
<defs>
<clipPath id="clip0_1_2468">
<rect width="21" height="22" fill="white" transform="translate(0.5 0.5)"/>
</clipPath>
</defs>
</svg>
